G04 #@! TF.GenerationSoftware,KiCad,Pcbnew,5.0.1-33cea8e~68~ubuntu16.04.1*
G04 #@! TF.CreationDate,2019-04-24T21:21:49+02:00*
G04 #@! TF.ProjectId,BeagleBone-Black-Cape,426561676C65426F6E652D426C61636B,0.2*
G04 #@! TF.SameCoordinates,Original*
G04 #@! TF.FileFunction,Copper,L1,Top,Signal*
G04 #@! TF.FilePolarity,Positive*
%FSLAX46Y46*%
G04 Gerber Fmt 4.6, Leading zero omitted, Abs format (unit mm)*
G04 Created by KiCad (PCBNEW 5.0.1-33cea8e~68~ubuntu16.04.1) date wo 24 apr 2019 21:21:49 CEST*
%MOMM*%
%LPD*%
G01*
G04 APERTURE LIST*
G04 #@! TA.AperFunction,ComponentPad*
%ADD10O,1.800000X1.800000*%
G04 #@! TD*
G04 #@! TA.AperFunction,ComponentPad*
%ADD11R,1.800000X1.800000*%
G04 #@! TD*
G04 #@! TA.AperFunction,ComponentPad*
%ADD12C,3.700000*%
G04 #@! TD*
G04 #@! TA.AperFunction,ComponentPad*
%ADD13R,3.300000X3.300000*%
G04 #@! TD*
G04 #@! TA.AperFunction,ComponentPad*
%ADD14C,3.300000*%
G04 #@! TD*
G04 #@! TA.AperFunction,ComponentPad*
%ADD15C,1.500000*%
G04 #@! TD*
G04 #@! TA.AperFunction,ComponentPad*
%ADD16R,2.600000X2.000000*%
G04 #@! TD*
G04 #@! TA.AperFunction,ComponentPad*
%ADD17O,2.600000X2.000000*%
G04 #@! TD*
G04 #@! TA.AperFunction,SMDPad,CuDef*
%ADD18R,0.700000X1.300000*%
G04 #@! TD*
G04 #@! TA.AperFunction,SMDPad,CuDef*
%ADD19R,0.700000X0.250000*%
G04 #@! TD*
G04 #@! TA.AperFunction,SMDPad,CuDef*
%ADD20R,1.250000X1.500000*%
G04 #@! TD*
G04 #@! TA.AperFunction,SMDPad,CuDef*
%ADD21R,1.500000X1.250000*%
G04 #@! TD*
G04 #@! TA.AperFunction,ComponentPad*
%ADD22R,1.600000X1.600000*%
G04 #@! TD*
G04 #@! TA.AperFunction,ComponentPad*
%ADD23C,1.600000*%
G04 #@! TD*
G04 #@! TA.AperFunction,ComponentPad*
%ADD24R,3.000000X3.000000*%
G04 #@! TD*
G04 #@! TA.AperFunction,ComponentPad*
%ADD25C,3.000000*%
G04 #@! TD*
G04 #@! TA.AperFunction,SMDPad,CuDef*
%ADD26R,1.800000X3.500000*%
G04 #@! TD*
G04 #@! TA.AperFunction,SMDPad,CuDef*
%ADD27R,3.500000X1.800000*%
G04 #@! TD*
G04 #@! TA.AperFunction,SMDPad,CuDef*
%ADD28R,1.500000X1.300000*%
G04 #@! TD*
G04 #@! TA.AperFunction,SMDPad,CuDef*
%ADD29R,1.300000X1.500000*%
G04 #@! TD*
G04 #@! TA.AperFunction,SMDPad,CuDef*
%ADD30R,1.900000X0.600000*%
G04 #@! TD*
G04 #@! TA.AperFunction,SMDPad,CuDef*
%ADD31R,2.400000X2.400000*%
G04 #@! TD*
G04 #@! TA.AperFunction,ComponentPad*
%ADD32O,1.727200X1.727200*%
G04 #@! TD*
G04 #@! TA.AperFunction,ComponentPad*
%ADD33R,1.727200X1.727200*%
G04 #@! TD*
G04 #@! TA.AperFunction,SMDPad,CuDef*
%ADD34R,3.150000X1.960000*%
G04 #@! TD*
G04 #@! TA.AperFunction,SMDPad,CuDef*
%ADD35R,1.960000X3.150000*%
G04 #@! TD*
G04 #@! TA.AperFunction,SMDPad,CuDef*
%ADD36R,0.800000X0.900000*%
G04 #@! TD*
G04 #@! TA.AperFunction,Conductor*
%ADD37C,0.250000*%
G04 #@! TD*
G04 #@! TA.AperFunction,Conductor*
%ADD38C,0.700000*%
G04 #@! TD*
G04 #@! TA.AperFunction,Conductor*
%ADD39C,0.500000*%
G04 #@! TD*
G04 #@! TA.AperFunction,Conductor*
%ADD40C,1.370000*%
G04 #@! TD*
G04 #@! TA.AperFunction,Conductor*
%ADD41C,3.000000*%
G04 #@! TD*
G04 #@! TA.AperFunction,Conductor*
%ADD42C,0.254000*%
G04 #@! TD*
G04 APERTURE END LIST*
D10*
G04 #@! TO.P,U3,8*
G04 #@! TO.N,X_DIR*
X145557240Y-109329220D03*
G04 #@! TO.P,U3,16*
G04 #@! TO.N,+24V*
X132857240Y-127109220D03*
G04 #@! TO.P,U3,7*
G04 #@! TO.N,X_STEP*
X145557240Y-111869220D03*
G04 #@! TO.P,U3,15*
G04 #@! TO.N,GND*
X132857240Y-124569220D03*
G04 #@! TO.P,U3,6*
G04 #@! TO.N,Net-(U3-Pad6)*
X145557240Y-114409220D03*
G04 #@! TO.P,U3,14*
G04 #@! TO.N,X_2B*
X132857240Y-122029220D03*
G04 #@! TO.P,U3,5*
G04 #@! TO.N,SPIO_DO*
X145557240Y-116949220D03*
G04 #@! TO.P,U3,13*
G04 #@! TO.N,X_2A*
X132857240Y-119489220D03*
G04 #@! TO.P,U3,4*
G04 #@! TO.N,SPI0_CSX*
X145557240Y-119489220D03*
G04 #@! TO.P,U3,12*
G04 #@! TO.N,X_1A*
X132857240Y-116949220D03*
G04 #@! TO.P,U3,3*
G04 #@! TO.N,SPIO_SCL*
X145557240Y-122029220D03*
G04 #@! TO.P,U3,11*
G04 #@! TO.N,X_1B*
X132857240Y-114409220D03*
G04 #@! TO.P,U3,2*
G04 #@! TO.N,SPIO_DI*
X145557240Y-124569220D03*
G04 #@! TO.P,U3,10*
G04 #@! TO.N,+3V3*
X132857240Y-111869220D03*
G04 #@! TO.P,U3,1*
G04 #@! TO.N,X_ENABLE*
X145557240Y-127109220D03*
D11*
G04 #@! TO.P,U3,9*
G04 #@! TO.N,GND*
X132857240Y-109329220D03*
G04 #@! TD*
D10*
G04 #@! TO.P,U5,8*
G04 #@! TO.N,Z_DIR*
X161500820Y-91066620D03*
G04 #@! TO.P,U5,16*
G04 #@! TO.N,+24V*
X148800820Y-108846620D03*
G04 #@! TO.P,U5,7*
G04 #@! TO.N,Z_STEP*
X161500820Y-93606620D03*
G04 #@! TO.P,U5,15*
G04 #@! TO.N,GND*
X148800820Y-106306620D03*
G04 #@! TO.P,U5,6*
G04 #@! TO.N,Net-(U5-Pad6)*
X161500820Y-96146620D03*
G04 #@! TO.P,U5,14*
G04 #@! TO.N,Z_2B*
X148800820Y-103766620D03*
G04 #@! TO.P,U5,5*
G04 #@! TO.N,SPIO_DO*
X161500820Y-98686620D03*
G04 #@! TO.P,U5,13*
G04 #@! TO.N,Z_2A*
X148800820Y-101226620D03*
G04 #@! TO.P,U5,4*
G04 #@! TO.N,SPIO_CSZ*
X161500820Y-101226620D03*
G04 #@! TO.P,U5,12*
G04 #@! TO.N,Z_1A*
X148800820Y-98686620D03*
G04 #@! TO.P,U5,3*
G04 #@! TO.N,SPIO_SCL*
X161500820Y-103766620D03*
G04 #@! TO.P,U5,11*
G04 #@! TO.N,Z_1B*
X148800820Y-96146620D03*
G04 #@! TO.P,U5,2*
G04 #@! TO.N,SPIO_DI*
X161500820Y-106306620D03*
G04 #@! TO.P,U5,10*
G04 #@! TO.N,+3V3*
X148800820Y-93606620D03*
G04 #@! TO.P,U5,1*
G04 #@! TO.N,Z_ENABLE*
X161500820Y-108846620D03*
D11*
G04 #@! TO.P,U5,9*
G04 #@! TO.N,GND*
X148800820Y-91066620D03*
G04 #@! TD*
D10*
G04 #@! TO.P,U4,8*
G04 #@! TO.N,Y_DIR*
X161300160Y-69479160D03*
G04 #@! TO.P,U4,16*
G04 #@! TO.N,+24V*
X148600160Y-87259160D03*
G04 #@! TO.P,U4,7*
G04 #@! TO.N,Y_STEP*
X161300160Y-72019160D03*
G04 #@! TO.P,U4,15*
G04 #@! TO.N,GND*
X148600160Y-84719160D03*
G04 #@! TO.P,U4,6*
G04 #@! TO.N,Net-(U4-Pad6)*
X161300160Y-74559160D03*
G04 #@! TO.P,U4,14*
G04 #@! TO.N,Y_2B*
X148600160Y-82179160D03*
G04 #@! TO.P,U4,5*
G04 #@! TO.N,SPIO_DO*
X161300160Y-77099160D03*
G04 #@! TO.P,U4,13*
G04 #@! TO.N,Y_2A*
X148600160Y-79639160D03*
G04 #@! TO.P,U4,4*
G04 #@! TO.N,SPIO_CSY*
X161300160Y-79639160D03*
G04 #@! TO.P,U4,12*
G04 #@! TO.N,Y_1A*
X148600160Y-77099160D03*
G04 #@! TO.P,U4,3*
G04 #@! TO.N,SPIO_SCL*
X161300160Y-82179160D03*
G04 #@! TO.P,U4,11*
G04 #@! TO.N,Y_1B*
X148600160Y-74559160D03*
G04 #@! TO.P,U4,2*
G04 #@! TO.N,SPIO_DI*
X161300160Y-84719160D03*
G04 #@! TO.P,U4,10*
G04 #@! TO.N,+3V3*
X148600160Y-72019160D03*
G04 #@! TO.P,U4,1*
G04 #@! TO.N,Y_ENABLE*
X161300160Y-87259160D03*
D11*
G04 #@! TO.P,U4,9*
G04 #@! TO.N,GND*
X148600160Y-69479160D03*
G04 #@! TD*
D12*
G04 #@! TO.P,F2,4*
G04 #@! TO.N,+24V*
X146025000Y-64109600D03*
G04 #@! TO.P,F2,3*
X151025000Y-64109600D03*
G04 #@! TO.P,F2,2*
G04 #@! TO.N,Net-(F2-Pad1)*
X155025000Y-64109600D03*
G04 #@! TO.P,F2,1*
X160025000Y-64109600D03*
G04 #@! TD*
D13*
G04 #@! TO.P,J1,1*
G04 #@! TO.N,GND*
X130804920Y-51054000D03*
D14*
G04 #@! TO.P,J1,4*
G04 #@! TO.N,Net-(F2-Pad1)*
X153664920Y-51054000D03*
G04 #@! TO.P,J1,2*
G04 #@! TO.N,Net-(F3-Pad2)*
X138424920Y-51054000D03*
G04 #@! TO.P,J1,3*
G04 #@! TO.N,Net-(F1-Pad2)*
X146044920Y-51054000D03*
G04 #@! TD*
D15*
G04 #@! TO.P,TP1,1*
G04 #@! TO.N,POT_W*
X133134100Y-70002400D03*
G04 #@! TD*
D16*
G04 #@! TO.P,J10,1*
G04 #@! TO.N,+3V3*
X135675000Y-78275000D03*
D17*
G04 #@! TO.P,J10,2*
G04 #@! TO.N,Z_PO*
X135675000Y-75735000D03*
G04 #@! TO.P,J10,3*
G04 #@! TO.N,GND*
X135675000Y-73195000D03*
G04 #@! TD*
D18*
G04 #@! TO.P,U1,9*
G04 #@! TO.N,GND*
X123753880Y-71081900D03*
D19*
G04 #@! TO.P,U1,8*
G04 #@! TO.N,+5V*
X124678878Y-70331900D03*
G04 #@! TO.P,U1,7*
G04 #@! TO.N,POT_W*
X124678878Y-70831899D03*
G04 #@! TO.P,U1,6*
G04 #@! TO.N,+3V3*
X124678878Y-71331896D03*
G04 #@! TO.P,U1,5*
G04 #@! TO.N,POT_SCL*
X124678878Y-71831898D03*
G04 #@! TO.P,U1,4*
G04 #@! TO.N,POT_SDA*
X122828882Y-71831898D03*
G04 #@! TO.P,U1,3*
G04 #@! TO.N,GND*
X122828882Y-71331896D03*
G04 #@! TO.P,U1,1*
X122828980Y-70331900D03*
G04 #@! TO.P,U1,2*
X122828882Y-70831899D03*
G04 #@! TD*
D20*
G04 #@! TO.P,C2,1*
G04 #@! TO.N,GND*
X129070100Y-66212400D03*
G04 #@! TO.P,C2,2*
G04 #@! TO.N,+5V*
X129070100Y-68712400D03*
G04 #@! TD*
G04 #@! TO.P,C3,1*
G04 #@! TO.N,GND*
X126530100Y-66212400D03*
G04 #@! TO.P,C3,2*
G04 #@! TO.N,+5V*
X126530100Y-68712400D03*
G04 #@! TD*
G04 #@! TO.P,C1,1*
G04 #@! TO.N,GND*
X127800100Y-74046400D03*
G04 #@! TO.P,C1,2*
G04 #@! TO.N,POT_W*
X127800100Y-71546400D03*
G04 #@! TD*
D21*
G04 #@! TO.P,C9,1*
G04 #@! TO.N,Z_PO*
X137300000Y-83475000D03*
G04 #@! TO.P,C9,2*
G04 #@! TO.N,GND*
X134800000Y-83475000D03*
G04 #@! TD*
G04 #@! TO.P,C6,1*
G04 #@! TO.N,+12V*
X130574100Y-59588400D03*
G04 #@! TO.P,C6,2*
G04 #@! TO.N,GND*
X128074100Y-59588400D03*
G04 #@! TD*
D20*
G04 #@! TO.P,C7,1*
G04 #@! TO.N,X_PO*
X132334000Y-95350000D03*
G04 #@! TO.P,C7,2*
G04 #@! TO.N,GND*
X132334000Y-92850000D03*
G04 #@! TD*
G04 #@! TO.P,C8,1*
G04 #@! TO.N,Y_PO*
X131102100Y-75062400D03*
G04 #@! TO.P,C8,2*
G04 #@! TO.N,GND*
X131102100Y-72562400D03*
G04 #@! TD*
D22*
G04 #@! TO.P,C5,1*
G04 #@! TO.N,+24V*
X142976600Y-86050120D03*
D23*
G04 #@! TO.P,C5,2*
G04 #@! TO.N,GND*
X142976600Y-83550120D03*
G04 #@! TD*
D22*
G04 #@! TO.P,C4,1*
G04 #@! TO.N,+24V*
X142950000Y-105125000D03*
D23*
G04 #@! TO.P,C4,2*
G04 #@! TO.N,GND*
X142950000Y-102625000D03*
G04 #@! TD*
D22*
G04 #@! TO.P,CP_1,1*
G04 #@! TO.N,+24V*
X126275000Y-125775000D03*
D23*
G04 #@! TO.P,CP_1,2*
G04 #@! TO.N,GND*
X126275000Y-123275000D03*
G04 #@! TD*
D16*
G04 #@! TO.P,J11,1*
G04 #@! TO.N,+24V*
X165450000Y-50575000D03*
D17*
G04 #@! TO.P,J11,2*
G04 #@! TO.N,Net-(D5-Pad2)*
X165450000Y-53115000D03*
G04 #@! TD*
D16*
G04 #@! TO.P,J4,1*
G04 #@! TO.N,+12V*
X138214100Y-59588400D03*
D17*
G04 #@! TO.P,J4,2*
G04 #@! TO.N,LDK*
X138214100Y-62128400D03*
G04 #@! TD*
D16*
G04 #@! TO.P,J3,1*
G04 #@! TO.N,+3V3*
X124752100Y-87020400D03*
D17*
G04 #@! TO.P,J3,2*
G04 #@! TO.N,PH_DIODE*
X124752100Y-89560400D03*
G04 #@! TO.P,J3,3*
G04 #@! TO.N,GND*
X124752100Y-92100400D03*
G04 #@! TD*
D16*
G04 #@! TO.P,J6,1*
G04 #@! TO.N,+3V3*
X133456680Y-103510080D03*
D17*
G04 #@! TO.P,J6,2*
G04 #@! TO.N,X_PO*
X133456680Y-100970080D03*
G04 #@! TO.P,J6,3*
G04 #@! TO.N,GND*
X133456680Y-98430080D03*
G04 #@! TD*
D16*
G04 #@! TO.P,J8,1*
G04 #@! TO.N,+3V3*
X124244100Y-77114400D03*
D17*
G04 #@! TO.P,J8,2*
G04 #@! TO.N,Y_PO*
X124244100Y-79654400D03*
G04 #@! TO.P,J8,3*
G04 #@! TO.N,GND*
X124244100Y-82194400D03*
G04 #@! TD*
D16*
G04 #@! TO.P,J5,1*
G04 #@! TO.N,X_2B*
X126314200Y-118826280D03*
D17*
G04 #@! TO.P,J5,2*
G04 #@! TO.N,X_2A*
X126314200Y-116286280D03*
G04 #@! TO.P,J5,3*
G04 #@! TO.N,X_1A*
X126314200Y-113746280D03*
G04 #@! TO.P,J5,4*
G04 #@! TO.N,X_1B*
X126314200Y-111206280D03*
G04 #@! TD*
D16*
G04 #@! TO.P,J9,1*
G04 #@! TO.N,Z_2B*
X142986760Y-98216720D03*
D17*
G04 #@! TO.P,J9,2*
G04 #@! TO.N,Z_2A*
X142986760Y-95676720D03*
G04 #@! TO.P,J9,3*
G04 #@! TO.N,Z_1A*
X142986760Y-93136720D03*
G04 #@! TO.P,J9,4*
G04 #@! TO.N,Z_1B*
X142986760Y-90596720D03*
G04 #@! TD*
D16*
G04 #@! TO.P,J7,1*
G04 #@! TO.N,Y_2B*
X142862300Y-79029560D03*
D17*
G04 #@! TO.P,J7,2*
G04 #@! TO.N,Y_2A*
X142862300Y-76489560D03*
G04 #@! TO.P,J7,3*
G04 #@! TO.N,Y_1A*
X142862300Y-73949560D03*
G04 #@! TO.P,J7,4*
G04 #@! TO.N,Y_1B*
X142862300Y-71409560D03*
G04 #@! TD*
D16*
G04 #@! TO.P,J2,1*
G04 #@! TO.N,+24V*
X124968000Y-107238800D03*
D17*
G04 #@! TO.P,J2,2*
G04 #@! TO.N,GND*
X124968000Y-104698800D03*
G04 #@! TO.P,J2,3*
G04 #@! TO.N,POLY_EN*
X124968000Y-102158800D03*
G04 #@! TO.P,J2,4*
G04 #@! TO.N,POLY_READY*
X124968000Y-99618800D03*
G04 #@! TO.P,J2,5*
G04 #@! TO.N,POLY_PWM*
X124968000Y-97078800D03*
G04 #@! TD*
D24*
G04 #@! TO.P,J12,1*
G04 #@! TO.N,+24V*
X157050000Y-120200000D03*
D25*
G04 #@! TO.P,J12,2*
G04 #@! TO.N,Net-(D4-Pad2)*
X157050000Y-125280000D03*
G04 #@! TD*
D26*
G04 #@! TO.P,D2,1*
G04 #@! TO.N,+12V*
X123736100Y-63104400D03*
G04 #@! TO.P,D2,2*
G04 #@! TO.N,GND*
X123736100Y-58104400D03*
G04 #@! TD*
G04 #@! TO.P,D5,1*
G04 #@! TO.N,+24V*
X160020000Y-50586000D03*
G04 #@! TO.P,D5,2*
G04 #@! TO.N,Net-(D5-Pad2)*
X160020000Y-55586000D03*
G04 #@! TD*
G04 #@! TO.P,D3,1*
G04 #@! TO.N,+5V*
X117132100Y-50484400D03*
G04 #@! TO.P,D3,2*
G04 #@! TO.N,GND*
X117132100Y-55484400D03*
G04 #@! TD*
D27*
G04 #@! TO.P,D1,1*
G04 #@! TO.N,+24V*
X164889820Y-45996860D03*
G04 #@! TO.P,D1,2*
G04 #@! TO.N,GND*
X159889820Y-45996860D03*
G04 #@! TD*
D28*
G04 #@! TO.P,R7,1*
G04 #@! TO.N,GND*
X166958000Y-57513220D03*
G04 #@! TO.P,R7,2*
G04 #@! TO.N,FAN_PWM*
X164258000Y-57513220D03*
G04 #@! TD*
G04 #@! TO.P,R6,1*
G04 #@! TO.N,+3V3*
X134825000Y-81300000D03*
G04 #@! TO.P,R6,2*
G04 #@! TO.N,Z_PO*
X137525000Y-81300000D03*
G04 #@! TD*
D29*
G04 #@! TO.P,R5,1*
G04 #@! TO.N,+3V3*
X129070100Y-76780400D03*
G04 #@! TO.P,R5,2*
G04 #@! TO.N,Y_PO*
X129070100Y-79480400D03*
G04 #@! TD*
G04 #@! TO.P,R4,1*
G04 #@! TO.N,+3V3*
X137922000Y-94545140D03*
G04 #@! TO.P,R4,2*
G04 #@! TO.N,X_PO*
X137922000Y-91845140D03*
G04 #@! TD*
G04 #@! TO.P,R3,1*
G04 #@! TO.N,GND*
X129578100Y-89386400D03*
G04 #@! TO.P,R3,2*
G04 #@! TO.N,PH_DIODE*
X129578100Y-86686400D03*
G04 #@! TD*
D28*
G04 #@! TO.P,R2,1*
G04 #@! TO.N,GND*
X133600000Y-62219840D03*
G04 #@! TO.P,R2,2*
G04 #@! TO.N,IC_HB_PWM2*
X130900000Y-62219840D03*
G04 #@! TD*
G04 #@! TO.P,R1,1*
G04 #@! TO.N,IC_HB_PWM1*
X138150000Y-70100000D03*
G04 #@! TO.P,R1,2*
G04 #@! TO.N,GND*
X135450000Y-70100000D03*
G04 #@! TD*
D29*
G04 #@! TO.P,R8,1*
G04 #@! TO.N,GND*
X149025000Y-111600000D03*
G04 #@! TO.P,R8,2*
G04 #@! TO.N,SPINDLE_PWM*
X149025000Y-114300000D03*
G04 #@! TD*
D30*
G04 #@! TO.P,U2,8*
G04 #@! TO.N,POT_W*
X133243340Y-68440300D03*
G04 #@! TO.P,U2,7*
G04 #@! TO.N,+5V*
X133243340Y-67170300D03*
G04 #@! TO.P,U2,6*
G04 #@! TO.N,GND*
X133243340Y-65900300D03*
G04 #@! TO.P,U2,5*
G04 #@! TO.N,IC_HB_PWM2*
X133243340Y-64630300D03*
G04 #@! TO.P,U2,4*
G04 #@! TO.N,GND*
X138643340Y-64630300D03*
G04 #@! TO.P,U2,3*
G04 #@! TO.N,LDK*
X138643340Y-65900300D03*
G04 #@! TO.P,U2,2*
G04 #@! TO.N,GND*
X138643340Y-67170300D03*
G04 #@! TO.P,U2,1*
G04 #@! TO.N,IC_HB_PWM1*
X138643340Y-68440300D03*
D31*
G04 #@! TO.P,U2,9*
G04 #@! TO.N,GND*
X135943340Y-66535300D03*
G04 #@! TD*
D32*
G04 #@! TO.P,P2,46*
G04 #@! TO.N,GND*
X118910100Y-118262400D03*
G04 #@! TO.P,P2,45*
X116370100Y-118262400D03*
G04 #@! TO.P,P2,44*
X118910100Y-115722400D03*
G04 #@! TO.P,P2,43*
X116370100Y-115722400D03*
G04 #@! TO.P,P2,42*
G04 #@! TO.N,X_DIR*
X118910100Y-113182400D03*
G04 #@! TO.P,P2,41*
G04 #@! TO.N,X_STEP*
X116370100Y-113182400D03*
G04 #@! TO.P,P2,40*
G04 #@! TO.N,Net-(P2-Pad40)*
X118910100Y-110642400D03*
G04 #@! TO.P,P2,39*
G04 #@! TO.N,Net-(P2-Pad39)*
X116370100Y-110642400D03*
G04 #@! TO.P,P2,38*
G04 #@! TO.N,Net-(P2-Pad38)*
X118910100Y-108102400D03*
G04 #@! TO.P,P2,37*
G04 #@! TO.N,Net-(P2-Pad37)*
X116370100Y-108102400D03*
G04 #@! TO.P,P2,36*
G04 #@! TO.N,Net-(P2-Pad36)*
X118910100Y-105562400D03*
G04 #@! TO.P,P2,35*
G04 #@! TO.N,Net-(P2-Pad35)*
X116370100Y-105562400D03*
G04 #@! TO.P,P2,34*
G04 #@! TO.N,Net-(P2-Pad34)*
X118910100Y-103022400D03*
G04 #@! TO.P,P2,33*
G04 #@! TO.N,Net-(P2-Pad33)*
X116370100Y-103022400D03*
G04 #@! TO.P,P2,32*
G04 #@! TO.N,Net-(P2-Pad32)*
X118910100Y-100482400D03*
G04 #@! TO.P,P2,31*
G04 #@! TO.N,Net-(P2-Pad31)*
X116370100Y-100482400D03*
G04 #@! TO.P,P2,30*
G04 #@! TO.N,POLY_PWM*
X118910100Y-97942400D03*
G04 #@! TO.P,P2,29*
G04 #@! TO.N,Net-(P2-Pad29)*
X116370100Y-97942400D03*
G04 #@! TO.P,P2,28*
G04 #@! TO.N,Net-(P2-Pad28)*
X118910100Y-95402400D03*
G04 #@! TO.P,P2,27*
G04 #@! TO.N,IC_HB_PWM2*
X116370100Y-95402400D03*
G04 #@! TO.P,P2,26*
G04 #@! TO.N,POLY_READY*
X118910100Y-92862400D03*
G04 #@! TO.P,P2,25*
G04 #@! TO.N,IC_HB_PWM1*
X116370100Y-92862400D03*
G04 #@! TO.P,P2,24*
G04 #@! TO.N,PH_DIODE*
X118910100Y-90322400D03*
G04 #@! TO.P,P2,23*
G04 #@! TO.N,POLY_EN*
X116370100Y-90322400D03*
G04 #@! TO.P,P2,22*
G04 #@! TO.N,SPIO_SCL*
X118910100Y-87782400D03*
G04 #@! TO.P,P2,21*
G04 #@! TO.N,SPIO_DO*
X116370100Y-87782400D03*
G04 #@! TO.P,P2,20*
G04 #@! TO.N,POT_SDA*
X118910100Y-85242400D03*
G04 #@! TO.P,P2,19*
G04 #@! TO.N,POT_SCL*
X116370100Y-85242400D03*
G04 #@! TO.P,P2,18*
G04 #@! TO.N,SPIO_DI*
X118910100Y-82702400D03*
G04 #@! TO.P,P2,17*
G04 #@! TO.N,SPI0_CSX*
X116370100Y-82702400D03*
G04 #@! TO.P,P2,16*
G04 #@! TO.N,Z_PO*
X118910100Y-80162400D03*
G04 #@! TO.P,P2,15*
G04 #@! TO.N,X_PO*
X116370100Y-80162400D03*
G04 #@! TO.P,P2,14*
G04 #@! TO.N,Y_PO*
X118910100Y-77622400D03*
G04 #@! TO.P,P2,13*
G04 #@! TO.N,Net-(P2-Pad13)*
X116370100Y-77622400D03*
G04 #@! TO.P,P2,12*
G04 #@! TO.N,X_ENABLE*
X118910100Y-75082400D03*
G04 #@! TO.P,P2,11*
G04 #@! TO.N,SPIO_CSY*
X116370100Y-75082400D03*
G04 #@! TO.P,P2,10*
G04 #@! TO.N,Net-(P2-Pad10)*
X118910100Y-72542400D03*
G04 #@! TO.P,P2,9*
G04 #@! TO.N,Net-(P2-Pad9)*
X116370100Y-72542400D03*
G04 #@! TO.P,P2,8*
G04 #@! TO.N,Net-(P2-Pad8)*
X118910100Y-70002400D03*
G04 #@! TO.P,P2,7*
G04 #@! TO.N,Net-(P2-Pad7)*
X116370100Y-70002400D03*
G04 #@! TO.P,P2,6*
G04 #@! TO.N,+5V*
X118910100Y-67462400D03*
G04 #@! TO.P,P2,5*
X116370100Y-67462400D03*
G04 #@! TO.P,P2,4*
G04 #@! TO.N,+3V3*
X118910100Y-64922400D03*
G04 #@! TO.P,P2,3*
X116370100Y-64922400D03*
G04 #@! TO.P,P2,2*
G04 #@! TO.N,GND*
X118910100Y-62382400D03*
D33*
G04 #@! TO.P,P2,1*
X116370100Y-62382400D03*
G04 #@! TD*
D32*
G04 #@! TO.P,P1,46*
G04 #@! TO.N,Net-(P1-Pad46)*
X167170100Y-118262400D03*
G04 #@! TO.P,P1,45*
G04 #@! TO.N,Net-(P1-Pad45)*
X164630100Y-118262400D03*
G04 #@! TO.P,P1,44*
G04 #@! TO.N,Net-(P1-Pad44)*
X167170100Y-115722400D03*
G04 #@! TO.P,P1,43*
G04 #@! TO.N,Net-(P1-Pad43)*
X164630100Y-115722400D03*
G04 #@! TO.P,P1,42*
G04 #@! TO.N,Net-(P1-Pad42)*
X167170100Y-113182400D03*
G04 #@! TO.P,P1,41*
G04 #@! TO.N,Net-(P1-Pad41)*
X164630100Y-113182400D03*
G04 #@! TO.P,P1,40*
G04 #@! TO.N,Net-(P1-Pad40)*
X167170100Y-110642400D03*
G04 #@! TO.P,P1,39*
G04 #@! TO.N,Net-(P1-Pad39)*
X164630100Y-110642400D03*
G04 #@! TO.P,P1,38*
G04 #@! TO.N,Net-(P1-Pad38)*
X167170100Y-108102400D03*
G04 #@! TO.P,P1,37*
G04 #@! TO.N,Net-(P1-Pad37)*
X164630100Y-108102400D03*
G04 #@! TO.P,P1,36*
G04 #@! TO.N,Net-(P1-Pad36)*
X167170100Y-105562400D03*
G04 #@! TO.P,P1,35*
G04 #@! TO.N,Net-(P1-Pad35)*
X164630100Y-105562400D03*
G04 #@! TO.P,P1,34*
G04 #@! TO.N,Net-(P1-Pad34)*
X167170100Y-103022400D03*
G04 #@! TO.P,P1,33*
G04 #@! TO.N,Net-(P1-Pad33)*
X164630100Y-103022400D03*
G04 #@! TO.P,P1,32*
G04 #@! TO.N,Net-(P1-Pad32)*
X167170100Y-100482400D03*
G04 #@! TO.P,P1,31*
G04 #@! TO.N,Net-(P1-Pad31)*
X164630100Y-100482400D03*
G04 #@! TO.P,P1,30*
G04 #@! TO.N,Net-(P1-Pad30)*
X167170100Y-97942400D03*
G04 #@! TO.P,P1,29*
G04 #@! TO.N,Net-(P1-Pad29)*
X164630100Y-97942400D03*
G04 #@! TO.P,P1,28*
G04 #@! TO.N,Net-(P1-Pad28)*
X167170100Y-95402400D03*
G04 #@! TO.P,P1,27*
G04 #@! TO.N,Net-(P1-Pad27)*
X164630100Y-95402400D03*
G04 #@! TO.P,P1,26*
G04 #@! TO.N,Net-(P1-Pad26)*
X167170100Y-92862400D03*
G04 #@! TO.P,P1,25*
G04 #@! TO.N,Net-(P1-Pad25)*
X164630100Y-92862400D03*
G04 #@! TO.P,P1,24*
G04 #@! TO.N,Net-(P1-Pad24)*
X167170100Y-90322400D03*
G04 #@! TO.P,P1,23*
G04 #@! TO.N,Net-(P1-Pad23)*
X164630100Y-90322400D03*
G04 #@! TO.P,P1,22*
G04 #@! TO.N,Net-(P1-Pad22)*
X167170100Y-87782400D03*
G04 #@! TO.P,P1,21*
G04 #@! TO.N,Net-(P1-Pad21)*
X164630100Y-87782400D03*
G04 #@! TO.P,P1,20*
G04 #@! TO.N,Net-(P1-Pad20)*
X167170100Y-85242400D03*
G04 #@! TO.P,P1,19*
G04 #@! TO.N,SPINDLE_PWM*
X164630100Y-85242400D03*
G04 #@! TO.P,P1,18*
G04 #@! TO.N,Z_ENABLE*
X167170100Y-82702400D03*
G04 #@! TO.P,P1,17*
G04 #@! TO.N,Z_DIR*
X164630100Y-82702400D03*
G04 #@! TO.P,P1,16*
G04 #@! TO.N,Z_STEP*
X167170100Y-80162400D03*
G04 #@! TO.P,P1,15*
G04 #@! TO.N,Y_DIR*
X164630100Y-80162400D03*
G04 #@! TO.P,P1,14*
G04 #@! TO.N,SPIO_CSZ*
X167170100Y-77622400D03*
G04 #@! TO.P,P1,13*
G04 #@! TO.N,FAN_PWM*
X164630100Y-77622400D03*
G04 #@! TO.P,P1,12*
G04 #@! TO.N,Y_STEP*
X167170100Y-75082400D03*
G04 #@! TO.P,P1,11*
G04 #@! TO.N,Y_ENABLE*
X164630100Y-75082400D03*
G04 #@! TO.P,P1,10*
G04 #@! TO.N,Net-(P1-Pad10)*
X167170100Y-72542400D03*
G04 #@! TO.P,P1,9*
G04 #@! TO.N,Net-(P1-Pad9)*
X164630100Y-72542400D03*
G04 #@! TO.P,P1,8*
G04 #@! TO.N,Net-(P1-Pad8)*
X167170100Y-70002400D03*
G04 #@! TO.P,P1,7*
G04 #@! TO.N,Net-(P1-Pad7)*
X164630100Y-70002400D03*
G04 #@! TO.P,P1,6*
G04 #@! TO.N,Net-(P1-Pad6)*
X167170100Y-67462400D03*
G04 #@! TO.P,P1,5*
G04 #@! TO.N,Net-(P1-Pad5)*
X164630100Y-67462400D03*
G04 #@! TO.P,P1,4*
G04 #@! TO.N,Net-(P1-Pad4)*
X167170100Y-64922400D03*
G04 #@! TO.P,P1,3*
G04 #@! TO.N,Net-(P1-Pad3)*
X164630100Y-64922400D03*
G04 #@! TO.P,P1,2*
G04 #@! TO.N,GND*
X167170100Y-62382400D03*
D33*
G04 #@! TO.P,P1,1*
X164630100Y-62382400D03*
G04 #@! TD*
D34*
G04 #@! TO.P,F1,2*
G04 #@! TO.N,Net-(F1-Pad2)*
X123736100Y-49264400D03*
G04 #@! TO.P,F1,1*
G04 #@! TO.N,+12V*
X123736100Y-54254400D03*
G04 #@! TD*
D35*
G04 #@! TO.P,F3,2*
G04 #@! TO.N,Net-(F3-Pad2)*
X125284400Y-45051980D03*
G04 #@! TO.P,F3,1*
G04 #@! TO.N,+5V*
X120294400Y-45051980D03*
G04 #@! TD*
D36*
G04 #@! TO.P,Q2,1*
G04 #@! TO.N,FAN_PWM*
X161345920Y-58436000D03*
G04 #@! TO.P,Q2,2*
G04 #@! TO.N,Net-(D5-Pad2)*
X159445920Y-58436000D03*
G04 #@! TO.P,Q2,3*
G04 #@! TO.N,GND*
X160395920Y-60436000D03*
G04 #@! TD*
D11*
G04 #@! TO.P,D4,1*
G04 #@! TO.N,+24V*
X160312100Y-114452400D03*
D10*
G04 #@! TO.P,D4,2*
G04 #@! TO.N,Net-(D4-Pad2)*
X155232100Y-114452400D03*
G04 #@! TD*
D11*
G04 #@! TO.P,Q1,1*
G04 #@! TO.N,SPINDLE_PWM*
X150250000Y-125825000D03*
D10*
G04 #@! TO.P,Q1,2*
G04 #@! TO.N,Net-(D4-Pad2)*
X150250000Y-123285000D03*
G04 #@! TO.P,Q1,3*
G04 #@! TO.N,GND*
X150250000Y-120745000D03*
G04 #@! TD*
D37*
G04 #@! TO.N,+3V3*
X125278878Y-71331896D02*
X124678878Y-71331896D01*
X125353879Y-71406897D02*
X125278878Y-71331896D01*
X125353879Y-74754621D02*
X125353879Y-71406897D01*
X124244100Y-75864400D02*
X125353879Y-74754621D01*
X124244100Y-77114400D02*
X124244100Y-75864400D01*
X128736100Y-77114400D02*
X129070100Y-76780400D01*
X124244100Y-77114400D02*
X128736100Y-77114400D01*
X134932100Y-81178400D02*
X134832100Y-81178400D01*
X136182100Y-79928400D02*
X134932100Y-81178400D01*
X136182100Y-78333600D02*
X136182100Y-79928400D01*
X133756680Y-103510080D02*
X133456680Y-103510080D01*
X137922000Y-99344760D02*
X133756680Y-103510080D01*
X137922000Y-94545140D02*
X137922000Y-99344760D01*
X137922000Y-94445140D02*
X137922000Y-94545140D01*
X138897001Y-93470139D02*
X137922000Y-94445140D01*
X138897001Y-92512632D02*
X138897001Y-93470139D01*
X142137923Y-89271710D02*
X138897001Y-92512632D01*
X144465910Y-89271710D02*
X142137923Y-89271710D01*
X148800820Y-93606620D02*
X144465910Y-89271710D01*
X131697239Y-108104219D02*
X131597458Y-108204000D01*
X131632239Y-110644219D02*
X132857240Y-111869220D01*
X132857240Y-111869220D02*
X131150000Y-110161980D01*
X131150000Y-108651458D02*
X131697239Y-108104219D01*
X131150000Y-110161980D02*
X131150000Y-108651458D01*
X150025821Y-94831621D02*
X148800820Y-93606620D01*
X150025821Y-104354621D02*
X150025821Y-94831621D01*
X149388821Y-104991621D02*
X150025821Y-104354621D01*
X140208000Y-108104219D02*
X141287219Y-107025000D01*
X141287219Y-107025000D02*
X141300000Y-107025000D01*
X146375000Y-104991621D02*
X149388821Y-104991621D01*
X141300000Y-107025000D02*
X141908379Y-106416621D01*
X141908379Y-106416621D02*
X144950000Y-106416621D01*
X131697239Y-108104219D02*
X140208000Y-108104219D01*
X144950000Y-106416621D02*
X146375000Y-104991621D01*
G04 #@! TO.N,+5V*
X126530100Y-68837400D02*
X126530100Y-68712400D01*
X125035600Y-70331900D02*
X126530100Y-68837400D01*
X124678878Y-70331900D02*
X125035600Y-70331900D01*
X126530100Y-68712400D02*
X129070100Y-68712400D01*
X132043340Y-67170300D02*
X133243340Y-67170300D01*
X131487200Y-67170300D02*
X132043340Y-67170300D01*
X129945100Y-68712400D02*
X131487200Y-67170300D01*
X129070100Y-68712400D02*
X129945100Y-68712400D01*
X122184378Y-67462400D02*
X120131414Y-67462400D01*
X124678878Y-69956900D02*
X122184378Y-67462400D01*
X124678878Y-70331900D02*
X124678878Y-69956900D01*
D38*
X117132100Y-48034400D02*
X117132100Y-50484400D01*
X117132100Y-46534280D02*
X117132100Y-48034400D01*
X118614400Y-45051980D02*
X117132100Y-46534280D01*
X120294400Y-45051980D02*
X118614400Y-45051980D01*
D39*
X115506501Y-66598801D02*
X116370100Y-67462400D01*
X114916380Y-66008680D02*
X115506501Y-66598801D01*
X114916380Y-53550120D02*
X114916380Y-66008680D01*
X117132100Y-51334400D02*
X114916380Y-53550120D01*
D38*
X117132100Y-51334400D02*
X117132100Y-50484400D01*
X118732100Y-52934400D02*
X117132100Y-51334400D01*
X120773710Y-61201226D02*
X118732100Y-59159616D01*
X120773710Y-66820104D02*
X120773710Y-61201226D01*
X120131414Y-67462400D02*
X120773710Y-66820104D01*
X118732100Y-59159616D02*
X118732100Y-52934400D01*
X118910100Y-67462400D02*
X120131414Y-67462400D01*
D37*
G04 #@! TO.N,GND*
X135308340Y-65900300D02*
X135943340Y-66535300D01*
X133243340Y-65900300D02*
X135308340Y-65900300D01*
X122828882Y-70331998D02*
X122828980Y-70331900D01*
X122828882Y-71331896D02*
X122828882Y-70331998D01*
X117721499Y-68032929D02*
X117721499Y-66873001D01*
X134932100Y-83464400D02*
X135057100Y-83464400D01*
D38*
X136578340Y-67170300D02*
X135943340Y-66535300D01*
X138643340Y-67170300D02*
X136578340Y-67170300D01*
D37*
X133243340Y-62757020D02*
X133780520Y-62219840D01*
X131102100Y-72687400D02*
X131102100Y-72562400D01*
X132052101Y-73637401D02*
X131102100Y-72687400D01*
X132052101Y-78483401D02*
X132052101Y-73637401D01*
X128341102Y-82194400D02*
X132052101Y-78483401D01*
X124244100Y-82194400D02*
X128341102Y-82194400D01*
X136482100Y-73253600D02*
X136182100Y-73253600D01*
X138607101Y-75378601D02*
X136482100Y-73253600D01*
X129404100Y-89560400D02*
X129578100Y-89386400D01*
X128678100Y-89386400D02*
X129578100Y-89386400D01*
X127766100Y-89386400D02*
X128678100Y-89386400D01*
X125052100Y-92100400D02*
X127766100Y-89386400D01*
X124752100Y-92100400D02*
X125052100Y-92100400D01*
D40*
X118910100Y-118262400D02*
X119227600Y-118262400D01*
X118910100Y-115722400D02*
X118910100Y-115862100D01*
X116370100Y-62382400D02*
X116370100Y-62191900D01*
D38*
X130804920Y-51054000D02*
X130804920Y-50032920D01*
X130810000Y-51054000D02*
X132080000Y-52324000D01*
X130804920Y-51054000D02*
X130810000Y-51054000D01*
X130804920Y-51054000D02*
X132080000Y-51054000D01*
D37*
X130048000Y-51810920D02*
X130804920Y-51054000D01*
X132334000Y-50750620D02*
X132334000Y-51308000D01*
X122228980Y-70331900D02*
X122828980Y-70331900D01*
X120710879Y-68813799D02*
X122228980Y-70331900D01*
X118502369Y-68813799D02*
X120710879Y-68813799D01*
X117721499Y-68032929D02*
X118502369Y-68813799D01*
X117721499Y-63571001D02*
X117721499Y-68032929D01*
X118910100Y-62382400D02*
X117721499Y-63571001D01*
X139293340Y-67170300D02*
X138643340Y-67170300D01*
X140368341Y-68245301D02*
X139293340Y-67170300D01*
X140368341Y-80941861D02*
X140368341Y-68245301D01*
X142976600Y-83550120D02*
X140368341Y-80941861D01*
X128199100Y-59588400D02*
X128074100Y-59588400D01*
X129524101Y-58263399D02*
X128199100Y-59588400D01*
X139774101Y-58263399D02*
X129524101Y-58263399D01*
X140818351Y-59307649D02*
X139774101Y-58263399D01*
X140818351Y-66195289D02*
X140818351Y-59307649D01*
X139843340Y-67170300D02*
X140818351Y-66195289D01*
X138643340Y-67170300D02*
X139843340Y-67170300D01*
X123078878Y-71081900D02*
X122828882Y-71331896D01*
X123753880Y-71081900D02*
X123078878Y-71081900D01*
X138607101Y-84127901D02*
X138607101Y-80250000D01*
X138310001Y-84425001D02*
X138607101Y-84127901D01*
X134875001Y-84425001D02*
X138310001Y-84425001D01*
X134800000Y-84350000D02*
X134875001Y-84425001D01*
X134800000Y-83475000D02*
X134800000Y-84350000D01*
X138607101Y-80250000D02*
X138607101Y-75378601D01*
X138607101Y-80550000D02*
X138607101Y-80250000D01*
D40*
G04 #@! TO.N,Net-(D4-Pad2)*
X149819360Y-123253500D02*
X151092152Y-123253500D01*
X155550001Y-123780001D02*
X157050000Y-125280000D01*
X154664999Y-122894999D02*
X155550001Y-123780001D01*
X155232100Y-115725192D02*
X154664999Y-116292293D01*
X155232100Y-114452400D02*
X155232100Y-115725192D01*
X157050000Y-125280000D02*
X155055000Y-123285000D01*
X152354998Y-122385001D02*
X154664999Y-120075000D01*
X154664999Y-116292293D02*
X154664999Y-120075000D01*
X154664999Y-120075000D02*
X154664999Y-122894999D01*
X152354998Y-123189998D02*
X152450000Y-123285000D01*
X152354998Y-122385001D02*
X152354998Y-123189998D01*
X155055000Y-123285000D02*
X152450000Y-123285000D01*
X152450000Y-123285000D02*
X150250000Y-123285000D01*
D37*
G04 #@! TO.N,SPINDLE_PWM*
X147232250Y-117092750D02*
X147232250Y-120850000D01*
X149025000Y-115300000D02*
X147232250Y-117092750D01*
X149025000Y-114300000D02*
X149025000Y-115300000D01*
X147232250Y-120600250D02*
X147232250Y-120850000D01*
X147232250Y-123957250D02*
X147232250Y-120850000D01*
X149100000Y-125825000D02*
X147232250Y-123957250D01*
X149100000Y-125825000D02*
X150250000Y-125825000D01*
D38*
G04 #@! TO.N,+24V*
X165291140Y-50586000D02*
X165333680Y-50543460D01*
X160020000Y-50586000D02*
X165291140Y-50586000D01*
X164889820Y-50099600D02*
X165333680Y-50543460D01*
X164889820Y-45996860D02*
X164889820Y-50099600D01*
D40*
X127638000Y-107238800D02*
X124968000Y-107238800D01*
X127782591Y-107094209D02*
X127638000Y-107238800D01*
X138893791Y-107094209D02*
X127782591Y-107094209D01*
X141340000Y-104648000D02*
X138893791Y-107094209D01*
X143510000Y-104648000D02*
X141340000Y-104648000D01*
X128322201Y-120711281D02*
X124306199Y-120711281D01*
X129193001Y-121582081D02*
X128322201Y-120711281D01*
X129193001Y-123282999D02*
X129193001Y-121582081D01*
X127508000Y-124968000D02*
X129193001Y-123282999D01*
X123698000Y-108208800D02*
X123698000Y-120103082D01*
X124668000Y-107238800D02*
X123698000Y-108208800D01*
X124968000Y-107238800D02*
X124668000Y-107238800D01*
X124306199Y-120711281D02*
X123698000Y-120103082D01*
X128445000Y-125775000D02*
X126275000Y-125775000D01*
X129193001Y-125026999D02*
X128445000Y-125775000D01*
X129193001Y-123282999D02*
X129193001Y-125026999D01*
X157750000Y-50586000D02*
X160020000Y-50586000D01*
X155682999Y-48518999D02*
X157750000Y-50586000D01*
X152448119Y-48518999D02*
X155682999Y-48518999D01*
X151025000Y-49942118D02*
X152448119Y-48518999D01*
X151025000Y-64109600D02*
X151025000Y-49942118D01*
X157050000Y-117714500D02*
X160312100Y-114452400D01*
X157050000Y-120200000D02*
X157050000Y-117714500D01*
D38*
G04 #@! TO.N,Net-(D5-Pad2)*
X162522540Y-53083460D02*
X160020000Y-55586000D01*
X165333680Y-53083460D02*
X162522540Y-53083460D01*
X160020000Y-57861920D02*
X159445920Y-58436000D01*
X160020000Y-55586000D02*
X160020000Y-57861920D01*
D37*
G04 #@! TO.N,FAN_PWM*
X161345920Y-58386000D02*
X161345920Y-58436000D01*
X162218700Y-57513220D02*
X161345920Y-58386000D01*
X164258000Y-57513220D02*
X162218700Y-57513220D01*
X164358000Y-57513220D02*
X164258000Y-57513220D01*
X167740629Y-76271001D02*
X168358701Y-75652929D01*
X165981499Y-76271001D02*
X167740629Y-76271001D01*
X164630100Y-77622400D02*
X165981499Y-76271001D01*
X168358701Y-61975000D02*
X168358701Y-61513921D01*
X168358701Y-62800000D02*
X168358701Y-61975000D01*
X168358701Y-75652929D02*
X168358701Y-62800000D01*
X168358701Y-56928919D02*
X168300000Y-56870218D01*
X168358701Y-59725000D02*
X168358701Y-59466299D01*
X168358701Y-62800000D02*
X168358701Y-59725000D01*
X167879782Y-56450000D02*
X165421220Y-56450000D01*
X168358701Y-56928919D02*
X167879782Y-56450000D01*
X168358701Y-57125000D02*
X168358701Y-56928919D01*
X168358701Y-59725000D02*
X168358701Y-57125000D01*
X164358000Y-57513220D02*
X165421220Y-56450000D01*
D40*
G04 #@! TO.N,Net-(F3-Pad2)*
X132422900Y-45051980D02*
X125284400Y-45051980D01*
X138424920Y-51054000D02*
X132422900Y-45051980D01*
D38*
G04 #@! TO.N,Net-(F1-Pad2)*
X124331100Y-49264400D02*
X123736100Y-49264400D01*
X126351500Y-47244000D02*
X124331100Y-49264400D01*
X131358918Y-47244000D02*
X126351500Y-47244000D01*
X137368919Y-53254001D02*
X131358918Y-47244000D01*
X143844919Y-53254001D02*
X137368919Y-53254001D01*
X146044920Y-51054000D02*
X143844919Y-53254001D01*
G04 #@! TO.N,+12V*
X138214100Y-59588400D02*
X130574100Y-59588400D01*
X130449100Y-59588400D02*
X130574100Y-59588400D01*
X129124100Y-60913400D02*
X130449100Y-59588400D01*
X129124100Y-61038400D02*
X129124100Y-60913400D01*
X127058100Y-63104400D02*
X129124100Y-61038400D01*
X123736100Y-63104400D02*
X127058100Y-63104400D01*
X123736100Y-62254400D02*
X123736100Y-63104400D01*
X122136100Y-60654400D02*
X123736100Y-62254400D01*
X122136100Y-55259400D02*
X122136100Y-60654400D01*
X123141100Y-54254400D02*
X122136100Y-55259400D01*
X123736100Y-54254400D02*
X123141100Y-54254400D01*
D37*
G04 #@! TO.N,SPIO_DI*
X160275819Y-107531621D02*
X161500820Y-106306620D01*
X160275819Y-109434621D02*
X160275819Y-107531621D01*
X162325000Y-111483802D02*
X160275819Y-109434621D01*
X162325000Y-123550020D02*
X162325000Y-111483802D01*
X148638030Y-127650010D02*
X158292789Y-127650010D01*
X145557240Y-124569220D02*
X148638030Y-127650010D01*
X158292789Y-127650010D02*
X161537101Y-124405698D01*
X161537101Y-124405698D02*
X161537101Y-124387899D01*
X161537101Y-124387899D02*
X162349990Y-123575010D01*
X162349990Y-123575010D02*
X162325000Y-123550020D01*
X161113759Y-85169169D02*
X161300160Y-85169169D01*
D38*
G04 #@! TO.N,Z_1B*
X148800820Y-96110780D02*
X148800820Y-96146620D01*
X143286760Y-90596720D02*
X148800820Y-96110780D01*
X142986760Y-90596720D02*
X143286760Y-90596720D01*
D37*
G04 #@! TO.N,SPIO_SCL*
X158975000Y-126325000D02*
X159087099Y-126212901D01*
X158975000Y-126331389D02*
X158975000Y-126325000D01*
X158952290Y-126354099D02*
X158731389Y-126575000D01*
X158952290Y-126336300D02*
X158952290Y-126354099D01*
X161537101Y-123751489D02*
X158952290Y-126336300D01*
X158975000Y-126331389D02*
X158731389Y-126575000D01*
X161500820Y-103766620D02*
X159825809Y-105441631D01*
X161537101Y-123751489D02*
X161537101Y-123737899D01*
X161537101Y-123737899D02*
X161850000Y-123425000D01*
X161850000Y-123425000D02*
X161850000Y-111649191D01*
X159825809Y-83653511D02*
X161300160Y-82179160D01*
X161850000Y-111649191D02*
X160000809Y-109800000D01*
X160000809Y-109800000D02*
X159825809Y-109625000D01*
X159825809Y-105441631D02*
X160050000Y-105217440D01*
X161500820Y-103766620D02*
X160050000Y-105217440D01*
X161300160Y-82179160D02*
X159625150Y-83854170D01*
X161500820Y-103766620D02*
X160600821Y-104666619D01*
X159825809Y-105441631D02*
X159942440Y-105325000D01*
X159850000Y-109649191D02*
X159825809Y-109625000D01*
X159850000Y-109649191D02*
X160000809Y-109800000D01*
X161500820Y-103766620D02*
X159942440Y-105325000D01*
X159825809Y-109625000D02*
X159825809Y-105441631D01*
X160600821Y-102866621D02*
X161500820Y-103766620D01*
X159625149Y-101890949D02*
X160600821Y-102866621D01*
X159625149Y-83854171D02*
X159625149Y-101890949D01*
X161300160Y-82179160D02*
X159625149Y-83854171D01*
X146457239Y-122929219D02*
X145557240Y-122029220D01*
X146782241Y-123254221D02*
X146457239Y-122929219D01*
X146782241Y-124742243D02*
X146782241Y-123254221D01*
X149239998Y-127200000D02*
X146782241Y-124742243D01*
X158106389Y-127200000D02*
X149239998Y-127200000D01*
X158731389Y-126575000D02*
X158106389Y-127200000D01*
D38*
G04 #@! TO.N,Z_1A*
X148800820Y-98650780D02*
X148800820Y-98686620D01*
X143286760Y-93136720D02*
X148800820Y-98650780D01*
X142986760Y-93136720D02*
X143286760Y-93136720D01*
G04 #@! TO.N,Z_2A*
X147900821Y-100326621D02*
X148800820Y-101226620D01*
X147900821Y-99840779D02*
X147900821Y-100326621D01*
X143736762Y-95676720D02*
X147900821Y-99840779D01*
X142986760Y-95676720D02*
X143736762Y-95676720D01*
D37*
G04 #@! TO.N,SPIO_DO*
X160600821Y-97786621D02*
X161500820Y-98686620D01*
X160075159Y-97260959D02*
X160600821Y-97786621D01*
X160075159Y-86649841D02*
X160075159Y-97260959D01*
X160690841Y-86034159D02*
X160075159Y-86649841D01*
X161798163Y-86034159D02*
X160690841Y-86034159D01*
X162525161Y-85307161D02*
X161798163Y-86034159D01*
X162525161Y-78324161D02*
X162525161Y-85307161D01*
X161300160Y-77099160D02*
X162525161Y-78324161D01*
X162589200Y-99775000D02*
X161500820Y-98686620D01*
X162814200Y-100000000D02*
X162589200Y-99775000D01*
X162800000Y-100014200D02*
X162814200Y-100000000D01*
X162800000Y-123775000D02*
X162800000Y-100014200D01*
X161987110Y-124587890D02*
X162800000Y-123775000D01*
X145557240Y-116949220D02*
X144332239Y-118174221D01*
X144332239Y-118174221D02*
X144332239Y-127697221D01*
X144332239Y-127697221D02*
X144969239Y-128334221D01*
X144969239Y-128334221D02*
X158244988Y-128334221D01*
X158244988Y-128334221D02*
X161987110Y-124592099D01*
X161987110Y-124592099D02*
X161987110Y-124587890D01*
D38*
G04 #@! TO.N,Z_2B*
X143250920Y-98216720D02*
X142986760Y-98216720D01*
X148800820Y-103766620D02*
X143250920Y-98216720D01*
D37*
G04 #@! TO.N,Z_STEP*
X162400819Y-92706621D02*
X161500820Y-93606620D01*
X163433641Y-91673799D02*
X162400819Y-92706621D01*
X167577831Y-91673799D02*
X163433641Y-91673799D01*
X168358701Y-90892929D02*
X167577831Y-91673799D01*
X168358701Y-81351001D02*
X168358701Y-90892929D01*
X167170100Y-80162400D02*
X168358701Y-81351001D01*
G04 #@! TO.N,Z_DIR*
X162400819Y-90166621D02*
X161500820Y-91066620D01*
X163433641Y-89133799D02*
X162400819Y-90166621D01*
X165037831Y-89133799D02*
X163433641Y-89133799D01*
X165818701Y-88352929D02*
X165037831Y-89133799D01*
X165818701Y-83891001D02*
X165818701Y-88352929D01*
X164630100Y-82702400D02*
X165818701Y-83891001D01*
G04 #@! TO.N,Y_STEP*
X162200159Y-72919159D02*
X161300160Y-72019160D01*
X163012001Y-73731001D02*
X162200159Y-72919159D01*
X165818701Y-73731001D02*
X163012001Y-73731001D01*
X167170100Y-75082400D02*
X165818701Y-73731001D01*
D38*
G04 #@! TO.N,Y_2B*
X145450560Y-79029560D02*
X148600160Y-82179160D01*
X142862300Y-79029560D02*
X145450560Y-79029560D01*
G04 #@! TO.N,Y_2A*
X145450560Y-76489560D02*
X148600160Y-79639160D01*
X142862300Y-76489560D02*
X145450560Y-76489560D01*
G04 #@! TO.N,Y_1A*
X148600160Y-77099160D02*
X145313400Y-73812400D01*
X145176240Y-73949560D02*
X142862300Y-73949560D01*
X145313400Y-73812400D02*
X145176240Y-73949560D01*
G04 #@! TO.N,Y_1B*
X145450560Y-71409560D02*
X148600160Y-74559160D01*
X142862300Y-71409560D02*
X145450560Y-71409560D01*
D37*
G04 #@! TO.N,Y_ENABLE*
X163359320Y-76353180D02*
X164630100Y-75082400D01*
X163359320Y-85200000D02*
X163359320Y-76353180D01*
X161300160Y-87259160D02*
X163359320Y-85200000D01*
D38*
G04 #@! TO.N,X_1B*
X129654300Y-111206280D02*
X132857240Y-114409220D01*
X126314200Y-111206280D02*
X129654300Y-111206280D01*
G04 #@! TO.N,X_1A*
X129654300Y-113746280D02*
X132857240Y-116949220D01*
X126314200Y-113746280D02*
X129654300Y-113746280D01*
G04 #@! TO.N,X_2A*
X129654300Y-116286280D02*
X132857240Y-119489220D01*
X126314200Y-116286280D02*
X129654300Y-116286280D01*
G04 #@! TO.N,X_2B*
X129654300Y-118826280D02*
X132857240Y-122029220D01*
X126314200Y-118826280D02*
X129654300Y-118826280D01*
D37*
G04 #@! TO.N,X_STEP*
X116556501Y-113632409D02*
X116688305Y-113500605D01*
X115181499Y-115007411D02*
X116556501Y-113632409D01*
X115181499Y-115500000D02*
X115181499Y-115007411D01*
X115181499Y-115151871D02*
X115181499Y-115500000D01*
X115181499Y-119056499D02*
X115181499Y-115500000D01*
X124459221Y-128334221D02*
X126293021Y-128334221D01*
X124459221Y-128334221D02*
X115181499Y-119056499D01*
X133750000Y-128334221D02*
X143190779Y-128334221D01*
X133750000Y-128334221D02*
X124459221Y-128334221D01*
X134081651Y-128334221D02*
X133750000Y-128334221D01*
X143190779Y-128334221D02*
X143875000Y-127650000D01*
X143875000Y-113551460D02*
X145557240Y-111869220D01*
X143875000Y-127650000D02*
X143875000Y-113551460D01*
G04 #@! TO.N,X_DIR*
X117558701Y-114533799D02*
X118910100Y-113182400D01*
X125314998Y-127000000D02*
X117558701Y-119243703D01*
X131153458Y-127000000D02*
X125314998Y-127000000D01*
X117558701Y-119243703D02*
X117558701Y-114533799D01*
X132269239Y-125884219D02*
X131153458Y-127000000D01*
X145557240Y-109329220D02*
X143424990Y-111461470D01*
X143424990Y-111461470D02*
X143424990Y-127300010D01*
X143424990Y-127300010D02*
X143000000Y-127725000D01*
X135440781Y-127725000D02*
X133600000Y-125884219D01*
X143000000Y-127725000D02*
X135440781Y-127725000D01*
X133600000Y-125884219D02*
X132269239Y-125884219D01*
G04 #@! TO.N,POT_SDA*
X117721499Y-86431001D02*
X118046501Y-86105999D01*
X115799571Y-86431001D02*
X117721499Y-86431001D01*
X122828882Y-71831898D02*
X122228882Y-71831898D01*
X122228882Y-71831898D02*
X120166981Y-73893799D01*
X118046501Y-86105999D02*
X118910100Y-85242400D01*
X120166981Y-73893799D02*
X115799571Y-73893799D01*
X115799571Y-73893799D02*
X115100100Y-74593270D01*
X115100100Y-74593270D02*
X115100100Y-85731530D01*
X115100100Y-85731530D02*
X115799571Y-86431001D01*
G04 #@! TO.N,POT_SCL*
X120239775Y-76271001D02*
X124678878Y-71831898D01*
X118483499Y-76271001D02*
X120239775Y-76271001D01*
X117558701Y-77195799D02*
X118483499Y-76271001D01*
X117558701Y-84053799D02*
X117558701Y-77195799D01*
X116370100Y-85242400D02*
X117558701Y-84053799D01*
G04 #@! TO.N,POT_W*
X133243340Y-69893160D02*
X133134100Y-70002400D01*
X133243340Y-68440300D02*
X133243340Y-69893160D01*
X125278878Y-70831899D02*
X124678878Y-70831899D01*
X126210599Y-70831899D02*
X125278878Y-70831899D01*
X126925100Y-71546400D02*
X126210599Y-70831899D01*
X127800100Y-71546400D02*
X126925100Y-71546400D01*
X133243340Y-68990300D02*
X133243340Y-68440300D01*
X131811669Y-70421971D02*
X133243340Y-68990300D01*
X128799529Y-70421971D02*
X131811669Y-70421971D01*
X127800100Y-71421400D02*
X128799529Y-70421971D01*
X127800100Y-71546400D02*
X127800100Y-71421400D01*
G04 #@! TO.N,Z_PO*
X135857300Y-76118400D02*
X136182100Y-75793600D01*
X136482100Y-75793600D02*
X136182100Y-75793600D01*
X137807101Y-80003399D02*
X137807101Y-77118601D01*
X137532100Y-80278400D02*
X137807101Y-80003399D01*
X137532100Y-81178400D02*
X137532100Y-80278400D01*
X137343100Y-81178400D02*
X137532100Y-81178400D01*
X137432100Y-81278400D02*
X137532100Y-81178400D01*
X137432100Y-83464400D02*
X137432100Y-81278400D01*
X119773699Y-81025999D02*
X118910100Y-80162400D01*
X122267110Y-83519410D02*
X119773699Y-81025999D01*
X128156290Y-83519410D02*
X122267110Y-83519410D01*
X136182100Y-75793600D02*
X135882100Y-75793600D01*
X136351500Y-76411500D02*
X135675000Y-75735000D01*
X137100000Y-76411500D02*
X136351500Y-76411500D01*
X137100000Y-76411500D02*
X136482100Y-75793600D01*
X137807101Y-77118601D02*
X137100000Y-76411500D01*
X135375000Y-75735000D02*
X135675000Y-75735000D01*
X132502111Y-78607889D02*
X135375000Y-75735000D01*
X132502111Y-79173589D02*
X132502111Y-78607889D01*
X132400700Y-79275000D02*
X132502111Y-79173589D01*
X132400700Y-79275000D02*
X128156290Y-83519410D01*
G04 #@! TO.N,IC_HB_PWM1*
X138150000Y-68933640D02*
X138643340Y-68440300D01*
X138150000Y-70100000D02*
X138150000Y-68933640D01*
X115943499Y-88971001D02*
X115181499Y-89733001D01*
X117721499Y-87211871D02*
X117721499Y-88209001D01*
X118502369Y-86431001D02*
X117721499Y-87211871D01*
X138150000Y-70100000D02*
X138150000Y-72365900D01*
X117721499Y-88209001D02*
X116959499Y-88971001D01*
X138150000Y-72365900D02*
X139484100Y-73700000D01*
X116959499Y-88971001D02*
X115943499Y-88971001D01*
X139484100Y-73700000D02*
X139484100Y-84740900D01*
X139484100Y-84740900D02*
X138982600Y-85242400D01*
X115181499Y-91673799D02*
X116370100Y-92862400D01*
X115181499Y-89733001D02*
X115181499Y-91673799D01*
X121547017Y-86431001D02*
X118502369Y-86431001D01*
X138982600Y-85242400D02*
X122735618Y-85242400D01*
X122735618Y-85242400D02*
X121547017Y-86431001D01*
G04 #@! TO.N,IC_HB_PWM2*
X131382880Y-62219840D02*
X131080520Y-62219840D01*
X133243340Y-64080300D02*
X131382880Y-62219840D01*
X133243340Y-64630300D02*
X133243340Y-64080300D01*
X126152198Y-64630300D02*
X133243340Y-64630300D01*
X125580099Y-65202399D02*
X126152198Y-64630300D01*
X122428000Y-61900908D02*
X122428000Y-65031302D01*
X122382598Y-52222400D02*
X121158000Y-53446998D01*
X121158000Y-53446998D02*
X121158000Y-60630908D01*
X130877600Y-57300000D02*
X125800000Y-52222400D01*
X133959600Y-87528400D02*
X143683322Y-87528400D01*
X127254000Y-94234000D02*
X133959600Y-87528400D01*
X124792347Y-94234000D02*
X127254000Y-94234000D01*
X122435346Y-96591001D02*
X124792347Y-94234000D01*
X117558701Y-96591001D02*
X122435346Y-96591001D01*
X141237299Y-80289561D02*
X141237299Y-66412751D01*
X139447112Y-57300000D02*
X130877600Y-57300000D01*
X116370100Y-95402400D02*
X117558701Y-96591001D01*
X141268361Y-66381689D02*
X141268360Y-59121248D01*
X143683322Y-87528400D02*
X144101601Y-87110121D01*
X122599097Y-65202399D02*
X125580099Y-65202399D01*
X144101601Y-87110121D02*
X144101601Y-83010119D01*
X121158000Y-60630908D02*
X122428000Y-61900908D01*
X144101601Y-83010119D02*
X142300000Y-81208518D01*
X122428000Y-65031302D02*
X122599097Y-65202399D01*
X142300000Y-81208518D02*
X142156256Y-81208518D01*
X141268360Y-59121248D02*
X139447112Y-57300000D01*
X142156256Y-81208518D02*
X141237299Y-80289561D01*
X125800000Y-52222400D02*
X122382598Y-52222400D01*
X141237299Y-66412751D02*
X141268361Y-66381689D01*
G04 #@! TO.N,POLY_PWM*
X124104400Y-97942400D02*
X124968000Y-97078800D01*
X118910100Y-97942400D02*
X124104400Y-97942400D01*
G04 #@! TO.N,POLY_EN*
X117558701Y-91511001D02*
X116370100Y-90322400D01*
X117558701Y-93432929D02*
X117558701Y-91511001D01*
X116940629Y-94051001D02*
X117558701Y-93432929D01*
X115181499Y-94669073D02*
X115799571Y-94051001D01*
X115799571Y-94051001D02*
X116940629Y-94051001D01*
X117558701Y-97371871D02*
X116777831Y-96591001D01*
X115181499Y-95972929D02*
X115181499Y-95600000D01*
X117558701Y-98350131D02*
X117558701Y-97371871D01*
X119322201Y-99131001D02*
X118339571Y-99131001D01*
X115799571Y-96591001D02*
X115181499Y-95972929D01*
X124968000Y-102158800D02*
X122350000Y-102158800D01*
X118339571Y-99131001D02*
X117558701Y-98350131D01*
X122350000Y-102158800D02*
X119322201Y-99131001D01*
X116777831Y-96591001D02*
X115799571Y-96591001D01*
X115181499Y-95600000D02*
X115181499Y-94669073D01*
G04 #@! TO.N,PH_DIODE*
X119672100Y-89560400D02*
X118910100Y-90322400D01*
X124752100Y-89560400D02*
X119672100Y-89560400D01*
X129578100Y-86786400D02*
X129578100Y-86686400D01*
X126804100Y-89560400D02*
X129578100Y-86786400D01*
X124752100Y-89560400D02*
X126804100Y-89560400D01*
G04 #@! TO.N,Y_PO*
X131102100Y-76062400D02*
X131102100Y-75062400D01*
X131102100Y-78348400D02*
X131102100Y-76062400D01*
X129970100Y-79480400D02*
X131102100Y-78348400D01*
X129070100Y-79480400D02*
X129970100Y-79480400D01*
X128896100Y-79654400D02*
X129070100Y-79480400D01*
X124244100Y-79654400D02*
X128896100Y-79654400D01*
X120942100Y-79654400D02*
X118910100Y-77622400D01*
X124244100Y-79654400D02*
X120942100Y-79654400D01*
G04 #@! TO.N,X_PO*
X137922000Y-91945140D02*
X137922000Y-91845140D01*
X136946999Y-92920141D02*
X137922000Y-91945140D01*
X136946999Y-99029761D02*
X136946999Y-92920141D01*
X135006680Y-100970080D02*
X136946999Y-99029761D01*
X133456680Y-100970080D02*
X135006680Y-100970080D01*
X133156680Y-100970080D02*
X133456680Y-100970080D01*
X131831670Y-99645070D02*
X133156680Y-100970080D01*
X131831670Y-96111330D02*
X131831670Y-99645070D01*
X132334000Y-95609000D02*
X131831670Y-96111330D01*
X132334000Y-95484000D02*
X132334000Y-95609000D01*
D41*
G04 #@! TO.N,Net-(F2-Pad1)*
X155376880Y-52765960D02*
X155376880Y-64109600D01*
X153664920Y-51054000D02*
X155376880Y-52765960D01*
D40*
X153664920Y-57749520D02*
X153664920Y-51054000D01*
X160025000Y-64109600D02*
X153664920Y-57749520D01*
D38*
G04 #@! TO.N,LDK*
X139613342Y-65900300D02*
X138643340Y-65900300D01*
X140143341Y-65370301D02*
X139613342Y-65900300D01*
X140143341Y-63757641D02*
X140143341Y-65370301D01*
X138514100Y-62128400D02*
X140143341Y-63757641D01*
X138214100Y-62128400D02*
X138514100Y-62128400D01*
D37*
G04 #@! TO.N,Net-(U3-Pad6)*
X145743641Y-114859229D02*
X145557240Y-114859229D01*
G04 #@! TD*
D42*
G04 #@! TO.N,GND*
G36*
X123656960Y-43476980D02*
X123656960Y-46626980D01*
X123706243Y-46874745D01*
X123846591Y-47084789D01*
X124056635Y-47225137D01*
X124304400Y-47274420D01*
X124928080Y-47274420D01*
X124565540Y-47636960D01*
X122161100Y-47636960D01*
X121913335Y-47686243D01*
X121703291Y-47826591D01*
X121562943Y-48036635D01*
X121513660Y-48284400D01*
X121513660Y-50244400D01*
X121562943Y-50492165D01*
X121703291Y-50702209D01*
X121913335Y-50842557D01*
X122161100Y-50891840D01*
X125311100Y-50891840D01*
X125558865Y-50842557D01*
X125768909Y-50702209D01*
X125909257Y-50492165D01*
X125958540Y-50244400D01*
X125958540Y-49029960D01*
X126759500Y-48229000D01*
X130950918Y-48229000D01*
X136603823Y-53881906D01*
X136658774Y-53964146D01*
X136741014Y-54019097D01*
X136741016Y-54019099D01*
X136956232Y-54162901D01*
X136984591Y-54181850D01*
X137271907Y-54239001D01*
X137271911Y-54239001D01*
X137368919Y-54258297D01*
X137465927Y-54239001D01*
X143747911Y-54239001D01*
X143844919Y-54258297D01*
X143941927Y-54239001D01*
X143941931Y-54239001D01*
X144229247Y-54181850D01*
X144555064Y-53964146D01*
X144610017Y-53881903D01*
X145281056Y-53210864D01*
X145590405Y-53339000D01*
X146499435Y-53339000D01*
X147339269Y-52991130D01*
X147982050Y-52348349D01*
X148329920Y-51508515D01*
X148329920Y-50599485D01*
X147982050Y-49759651D01*
X147339269Y-49116870D01*
X146499435Y-48769000D01*
X145590405Y-48769000D01*
X144750571Y-49116870D01*
X144107790Y-49759651D01*
X143759920Y-50599485D01*
X143759920Y-51508515D01*
X143888056Y-51817864D01*
X143436919Y-52269001D01*
X140394917Y-52269001D01*
X140709920Y-51508515D01*
X140709920Y-50599485D01*
X140362050Y-49759651D01*
X139719269Y-49116870D01*
X138879435Y-48769000D01*
X138006682Y-48769000D01*
X135520292Y-46282610D01*
X157504820Y-46282610D01*
X157504820Y-47023170D01*
X157601493Y-47256559D01*
X157780122Y-47435187D01*
X158013511Y-47531860D01*
X159604070Y-47531860D01*
X159762820Y-47373110D01*
X159762820Y-46123860D01*
X160016820Y-46123860D01*
X160016820Y-47373110D01*
X160175570Y-47531860D01*
X161766129Y-47531860D01*
X161999518Y-47435187D01*
X162178147Y-47256559D01*
X162274820Y-47023170D01*
X162274820Y-46282610D01*
X162116070Y-46123860D01*
X160016820Y-46123860D01*
X159762820Y-46123860D01*
X157663570Y-46123860D01*
X157504820Y-46282610D01*
X135520292Y-46282610D01*
X134208232Y-44970550D01*
X157504820Y-44970550D01*
X157504820Y-45711110D01*
X157663570Y-45869860D01*
X159762820Y-45869860D01*
X159762820Y-44620610D01*
X160016820Y-44620610D01*
X160016820Y-45869860D01*
X162116070Y-45869860D01*
X162274820Y-45711110D01*
X162274820Y-44970550D01*
X162178147Y-44737161D01*
X161999518Y-44558533D01*
X161766129Y-44461860D01*
X160175570Y-44461860D01*
X160016820Y-44620610D01*
X159762820Y-44620610D01*
X159604070Y-44461860D01*
X158013511Y-44461860D01*
X157780122Y-44558533D01*
X157601493Y-44737161D01*
X157504820Y-44970550D01*
X134208232Y-44970550D01*
X133448213Y-44210532D01*
X133374567Y-44100313D01*
X132937938Y-43808567D01*
X132552908Y-43731980D01*
X132552906Y-43731980D01*
X132422900Y-43706120D01*
X132292894Y-43731980D01*
X126911840Y-43731980D01*
X126911840Y-43476980D01*
X126883334Y-43333670D01*
X162700096Y-43333670D01*
X163618618Y-43405959D01*
X164490133Y-43615191D01*
X165318189Y-43958184D01*
X166082391Y-44426488D01*
X166109240Y-44449420D01*
X163139820Y-44449420D01*
X162892055Y-44498703D01*
X162682011Y-44639051D01*
X162541663Y-44849095D01*
X162492380Y-45096860D01*
X162492380Y-46896860D01*
X162541663Y-47144625D01*
X162682011Y-47354669D01*
X162892055Y-47495017D01*
X163139820Y-47544300D01*
X163904820Y-47544300D01*
X163904821Y-48976329D01*
X163902235Y-48976843D01*
X163692191Y-49117191D01*
X163551843Y-49327235D01*
X163502560Y-49575000D01*
X163502560Y-49601000D01*
X161567440Y-49601000D01*
X161567440Y-48836000D01*
X161518157Y-48588235D01*
X161377809Y-48378191D01*
X161167765Y-48237843D01*
X160920000Y-48188560D01*
X159120000Y-48188560D01*
X158872235Y-48237843D01*
X158662191Y-48378191D01*
X158521843Y-48588235D01*
X158472560Y-48836000D01*
X158472560Y-49266000D01*
X158296762Y-49266000D01*
X156708312Y-47677551D01*
X156634666Y-47567332D01*
X156198037Y-47275586D01*
X155813007Y-47198999D01*
X155813005Y-47198999D01*
X155682999Y-47173139D01*
X155552993Y-47198999D01*
X152578125Y-47198999D01*
X152448118Y-47173139D01*
X152318111Y-47198999D01*
X151933081Y-47275586D01*
X151933080Y-47275587D01*
X151933079Y-47275587D01*
X151853692Y-47328632D01*
X151496452Y-47567332D01*
X151422808Y-47677548D01*
X150183549Y-48916807D01*
X150073334Y-48990451D01*
X149999690Y-49100667D01*
X149781588Y-49427080D01*
X149679140Y-49942118D01*
X149705001Y-50072129D01*
X149705000Y-61966618D01*
X149617361Y-62002919D01*
X148918319Y-62701961D01*
X148540000Y-63615303D01*
X148540000Y-64603897D01*
X148918319Y-65517239D01*
X149617361Y-66216281D01*
X150530703Y-66594600D01*
X151519297Y-66594600D01*
X152432639Y-66216281D01*
X153025000Y-65623920D01*
X153617361Y-66216281D01*
X154530703Y-66594600D01*
X155519297Y-66594600D01*
X156432639Y-66216281D01*
X157131681Y-65517239D01*
X157339816Y-65014758D01*
X157388006Y-64942636D01*
X157404928Y-64857563D01*
X157510000Y-64603897D01*
X157510000Y-64329330D01*
X157511880Y-64319879D01*
X157511880Y-63463242D01*
X157576302Y-63527663D01*
X157540000Y-63615303D01*
X157540000Y-64603897D01*
X157918319Y-65517239D01*
X158617361Y-66216281D01*
X159530703Y-66594600D01*
X160519297Y-66594600D01*
X161432639Y-66216281D01*
X162131681Y-65517239D01*
X162510000Y-64603897D01*
X162510000Y-63615303D01*
X162131681Y-62701961D01*
X161432639Y-62002919D01*
X160519297Y-61624600D01*
X159530703Y-61624600D01*
X159443063Y-61660902D01*
X158503911Y-60721750D01*
X159360920Y-60721750D01*
X159360920Y-61012309D01*
X159457593Y-61245698D01*
X159636221Y-61424327D01*
X159869610Y-61521000D01*
X160110170Y-61521000D01*
X160268920Y-61362250D01*
X160268920Y-60563000D01*
X160522920Y-60563000D01*
X160522920Y-61362250D01*
X160681670Y-61521000D01*
X160922230Y-61521000D01*
X161155619Y-61424327D01*
X161334247Y-61245698D01*
X161430920Y-61012309D01*
X161430920Y-60721750D01*
X161272170Y-60563000D01*
X160522920Y-60563000D01*
X160268920Y-60563000D01*
X159519670Y-60563000D01*
X159360920Y-60721750D01*
X158503911Y-60721750D01*
X157511880Y-59729719D01*
X157511880Y-52976234D01*
X157553706Y-52765959D01*
X157511880Y-52555682D01*
X157511880Y-52555681D01*
X157388006Y-51932924D01*
X157331699Y-51848655D01*
X157619992Y-51906000D01*
X157619993Y-51906000D01*
X157750000Y-51931860D01*
X157880007Y-51906000D01*
X158472560Y-51906000D01*
X158472560Y-52336000D01*
X158521843Y-52583765D01*
X158662191Y-52793809D01*
X158872235Y-52934157D01*
X159120000Y-52983440D01*
X160920000Y-52983440D01*
X161167765Y-52934157D01*
X161377809Y-52793809D01*
X161518157Y-52583765D01*
X161567440Y-52336000D01*
X161567440Y-51571000D01*
X163502560Y-51571000D01*
X163502560Y-51575000D01*
X163551843Y-51822765D01*
X163692191Y-52032809D01*
X163790444Y-52098460D01*
X162619547Y-52098460D01*
X162522539Y-52079164D01*
X162425531Y-52098460D01*
X162425528Y-52098460D01*
X162138212Y-52155611D01*
X161894637Y-52318362D01*
X161894635Y-52318364D01*
X161812395Y-52373315D01*
X161757444Y-52455555D01*
X161007112Y-53205887D01*
X160920000Y-53188560D01*
X159120000Y-53188560D01*
X158872235Y-53237843D01*
X158662191Y-53378191D01*
X158521843Y-53588235D01*
X158472560Y-53836000D01*
X158472560Y-57336000D01*
X158521843Y-57583765D01*
X158536410Y-57605566D01*
X158447763Y-57738235D01*
X158398480Y-57986000D01*
X158398480Y-58886000D01*
X158447763Y-59133765D01*
X158588111Y-59343809D01*
X158798155Y-59484157D01*
X159045920Y-59533440D01*
X159550454Y-59533440D01*
X159457593Y-59626302D01*
X159360920Y-59859691D01*
X159360920Y-60150250D01*
X159519670Y-60309000D01*
X160268920Y-60309000D01*
X160268920Y-59509750D01*
X160183389Y-59424219D01*
X160303729Y-59343809D01*
X160395920Y-59205836D01*
X160488111Y-59343809D01*
X160608451Y-59424219D01*
X160522920Y-59509750D01*
X160522920Y-60309000D01*
X161272170Y-60309000D01*
X161430920Y-60150250D01*
X161430920Y-59859691D01*
X161334247Y-59626302D01*
X161241386Y-59533440D01*
X161745920Y-59533440D01*
X161993685Y-59484157D01*
X162203729Y-59343809D01*
X162344077Y-59133765D01*
X162393360Y-58886000D01*
X162393360Y-58413362D01*
X162533502Y-58273220D01*
X162882440Y-58273220D01*
X162909843Y-58410985D01*
X163050191Y-58621029D01*
X163260235Y-58761377D01*
X163508000Y-58810660D01*
X165008000Y-58810660D01*
X165255765Y-58761377D01*
X165465809Y-58621029D01*
X165606157Y-58410985D01*
X165611721Y-58383011D01*
X165669673Y-58522919D01*
X165848302Y-58701547D01*
X166081691Y-58798220D01*
X166672250Y-58798220D01*
X166831000Y-58639470D01*
X166831000Y-57640220D01*
X166811000Y-57640220D01*
X166811000Y-57386220D01*
X166831000Y-57386220D01*
X166831000Y-57366220D01*
X167085000Y-57366220D01*
X167085000Y-57386220D01*
X167105000Y-57386220D01*
X167105000Y-57640220D01*
X167085000Y-57640220D01*
X167085000Y-58639470D01*
X167243750Y-58798220D01*
X167598701Y-58798220D01*
X167598701Y-59799851D01*
X167598702Y-59799856D01*
X167598701Y-61900146D01*
X167598701Y-62874851D01*
X167598702Y-62874856D01*
X167598702Y-63479695D01*
X167317698Y-63423800D01*
X167022502Y-63423800D01*
X166585375Y-63510750D01*
X166089670Y-63841970D01*
X165900100Y-64125681D01*
X165710530Y-63841970D01*
X165214825Y-63510750D01*
X164777698Y-63423800D01*
X164482502Y-63423800D01*
X164045375Y-63510750D01*
X163549670Y-63841970D01*
X163218450Y-64337675D01*
X163102141Y-64922400D01*
X163218450Y-65507125D01*
X163549670Y-66002830D01*
X163833381Y-66192400D01*
X163549670Y-66381970D01*
X163218450Y-66877675D01*
X163102141Y-67462400D01*
X163218450Y-68047125D01*
X163549670Y-68542830D01*
X163833381Y-68732400D01*
X163549670Y-68921970D01*
X163218450Y-69417675D01*
X163102141Y-70002400D01*
X163218450Y-70587125D01*
X163549670Y-71082830D01*
X163833381Y-71272400D01*
X163549670Y-71461970D01*
X163218450Y-71957675D01*
X163102141Y-72542400D01*
X163152780Y-72796978D01*
X162790490Y-72434689D01*
X162790488Y-72434686D01*
X162783891Y-72428089D01*
X162865232Y-72019160D01*
X162746098Y-71420233D01*
X162406833Y-70912487D01*
X162162397Y-70749160D01*
X162406833Y-70585833D01*
X162746098Y-70078087D01*
X162865232Y-69479160D01*
X162746098Y-68880233D01*
X162406833Y-68372487D01*
X161899087Y-68033222D01*
X161451342Y-67944160D01*
X161148978Y-67944160D01*
X160701233Y-68033222D01*
X160193487Y-68372487D01*
X159854222Y-68880233D01*
X159735088Y-69479160D01*
X159854222Y-70078087D01*
X160193487Y-70585833D01*
X160437923Y-70749160D01*
X160193487Y-70912487D01*
X159854222Y-71420233D01*
X159735088Y-72019160D01*
X159854222Y-72618087D01*
X160193487Y-73125833D01*
X160437923Y-73289160D01*
X160193487Y-73452487D01*
X159854222Y-73960233D01*
X159735088Y-74559160D01*
X159854222Y-75158087D01*
X160193487Y-75665833D01*
X160437923Y-75829160D01*
X160193487Y-75992487D01*
X159854222Y-76500233D01*
X159735088Y-77099160D01*
X159854222Y-77698087D01*
X160193487Y-78205833D01*
X160437923Y-78369160D01*
X160193487Y-78532487D01*
X159854222Y-79040233D01*
X159735088Y-79639160D01*
X159854222Y-80238087D01*
X160193487Y-80745833D01*
X160437923Y-80909160D01*
X160193487Y-81072487D01*
X159854222Y-81580233D01*
X159735088Y-82179160D01*
X159816429Y-82588089D01*
X159140679Y-83263840D01*
X159077220Y-83306242D01*
X158909245Y-83557635D01*
X158865149Y-83779320D01*
X158865149Y-83779324D01*
X158850261Y-83854171D01*
X158865149Y-83929018D01*
X158865150Y-101816097D01*
X158850261Y-101890949D01*
X158865150Y-101965801D01*
X158909246Y-102187486D01*
X159077221Y-102438878D01*
X159140677Y-102481278D01*
X160017089Y-103357691D01*
X159935748Y-103766620D01*
X160017089Y-104175549D01*
X159838017Y-104354622D01*
X159341337Y-104851302D01*
X159277881Y-104893702D01*
X159235481Y-104957158D01*
X159235480Y-104957159D01*
X159109906Y-105145094D01*
X159050921Y-105441631D01*
X159065810Y-105516483D01*
X159065809Y-109550153D01*
X159050921Y-109625000D01*
X159065809Y-109699847D01*
X159065809Y-109699851D01*
X159109905Y-109921536D01*
X159277880Y-110172929D01*
X159341338Y-110215330D01*
X159516336Y-110390329D01*
X159516339Y-110390331D01*
X161090001Y-111963994D01*
X161090001Y-112904960D01*
X159412100Y-112904960D01*
X159164335Y-112954243D01*
X158954291Y-113094591D01*
X158813943Y-113304635D01*
X158764660Y-113552400D01*
X158764660Y-114133078D01*
X156208550Y-116689189D01*
X156098334Y-116762833D01*
X156024690Y-116873049D01*
X155984999Y-116932451D01*
X155984999Y-116839054D01*
X156073548Y-116750505D01*
X156183767Y-116676859D01*
X156475513Y-116240230D01*
X156552100Y-115855200D01*
X156552100Y-115855199D01*
X156577960Y-115725192D01*
X156552100Y-115595186D01*
X156552100Y-115239807D01*
X156678038Y-115051327D01*
X156797172Y-114452400D01*
X156678038Y-113853473D01*
X156338773Y-113345727D01*
X155831027Y-113006462D01*
X155383282Y-112917400D01*
X155080918Y-112917400D01*
X154633173Y-113006462D01*
X154125427Y-113345727D01*
X153786162Y-113853473D01*
X153667028Y-114452400D01*
X153786162Y-115051327D01*
X153887516Y-115203015D01*
X153823549Y-115266982D01*
X153713332Y-115340627D01*
X153421586Y-115777256D01*
X153348227Y-116146059D01*
X153319139Y-116292293D01*
X153344999Y-116422300D01*
X153345000Y-119528237D01*
X151513547Y-121359691D01*
X151403331Y-121433335D01*
X151111585Y-121869964D01*
X151098947Y-121933500D01*
X150990263Y-121933500D01*
X150848927Y-121839062D01*
X150401182Y-121750000D01*
X150098818Y-121750000D01*
X149651073Y-121839062D01*
X149433602Y-121984372D01*
X149304322Y-122010087D01*
X148867693Y-122301833D01*
X148575947Y-122738462D01*
X148473500Y-123253500D01*
X148575947Y-123768538D01*
X148867693Y-124205167D01*
X149076015Y-124344363D01*
X148892191Y-124467191D01*
X148862071Y-124512269D01*
X147992250Y-123642449D01*
X147992250Y-117407551D01*
X149509476Y-115890327D01*
X149572929Y-115847929D01*
X149615327Y-115784476D01*
X149615329Y-115784474D01*
X149673483Y-115697440D01*
X149675000Y-115697440D01*
X149922765Y-115648157D01*
X150132809Y-115507809D01*
X150273157Y-115297765D01*
X150322440Y-115050000D01*
X150322440Y-113550000D01*
X150273157Y-113302235D01*
X150132809Y-113092191D01*
X149922765Y-112951843D01*
X149894791Y-112946279D01*
X150034699Y-112888327D01*
X150213327Y-112709698D01*
X150310000Y-112476309D01*
X150310000Y-111885750D01*
X150151250Y-111727000D01*
X149152000Y-111727000D01*
X149152000Y-111747000D01*
X148898000Y-111747000D01*
X148898000Y-111727000D01*
X147898750Y-111727000D01*
X147740000Y-111885750D01*
X147740000Y-112476309D01*
X147836673Y-112709698D01*
X148015301Y-112888327D01*
X148155209Y-112946279D01*
X148127235Y-112951843D01*
X147917191Y-113092191D01*
X147776843Y-113302235D01*
X147727560Y-113550000D01*
X147727560Y-115050000D01*
X147776843Y-115297765D01*
X147847175Y-115403023D01*
X146961813Y-116288386D01*
X146663913Y-115842547D01*
X146419477Y-115679220D01*
X146663913Y-115515893D01*
X147003178Y-115008147D01*
X147122312Y-114409220D01*
X147003178Y-113810293D01*
X146663913Y-113302547D01*
X146419477Y-113139220D01*
X146663913Y-112975893D01*
X147003178Y-112468147D01*
X147122312Y-111869220D01*
X147003178Y-111270293D01*
X146663913Y-110762547D01*
X146419477Y-110599220D01*
X146663913Y-110435893D01*
X147003178Y-109928147D01*
X147122312Y-109329220D01*
X147026317Y-108846620D01*
X147235748Y-108846620D01*
X147354882Y-109445547D01*
X147694147Y-109953293D01*
X148148147Y-110256646D01*
X148015301Y-110311673D01*
X147836673Y-110490302D01*
X147740000Y-110723691D01*
X147740000Y-111314250D01*
X147898750Y-111473000D01*
X148898000Y-111473000D01*
X148898000Y-111453000D01*
X149152000Y-111453000D01*
X149152000Y-111473000D01*
X150151250Y-111473000D01*
X150310000Y-111314250D01*
X150310000Y-110723691D01*
X150213327Y-110490302D01*
X150034699Y-110311673D01*
X149801310Y-110215000D01*
X149515821Y-110215000D01*
X149907493Y-109953293D01*
X150246758Y-109445547D01*
X150365892Y-108846620D01*
X150246758Y-108247693D01*
X149907493Y-107739947D01*
X149399747Y-107400682D01*
X148952002Y-107311620D01*
X148649638Y-107311620D01*
X148201893Y-107400682D01*
X147694147Y-107739947D01*
X147354882Y-108247693D01*
X147235748Y-108846620D01*
X147026317Y-108846620D01*
X147003178Y-108730293D01*
X146663913Y-108222547D01*
X146156167Y-107883282D01*
X145708422Y-107794220D01*
X145406058Y-107794220D01*
X144958313Y-107883282D01*
X144450567Y-108222547D01*
X144111302Y-108730293D01*
X143992168Y-109329220D01*
X144073509Y-109738149D01*
X142940520Y-110871139D01*
X142877061Y-110913541D01*
X142709086Y-111164934D01*
X142664990Y-111386619D01*
X142664990Y-111386623D01*
X142650102Y-111461470D01*
X142664990Y-111536317D01*
X142664991Y-126965000D01*
X135755584Y-126965000D01*
X134190331Y-125399749D01*
X134147929Y-125336290D01*
X133896537Y-125168315D01*
X133674852Y-125124219D01*
X133674847Y-125124219D01*
X133600000Y-125109331D01*
X133525153Y-125124219D01*
X132344087Y-125124219D01*
X132269239Y-125109331D01*
X132194391Y-125124219D01*
X132194387Y-125124219D01*
X131972702Y-125168315D01*
X131721310Y-125336290D01*
X131678910Y-125399746D01*
X130838657Y-126240000D01*
X129846761Y-126240000D01*
X130034449Y-126052312D01*
X130144668Y-125978666D01*
X130423469Y-125561411D01*
X130436413Y-125542039D01*
X130436413Y-125542038D01*
X130436414Y-125542037D01*
X130513001Y-125157007D01*
X130538861Y-125027000D01*
X130513001Y-124896993D01*
X130513001Y-123413006D01*
X130538861Y-123283000D01*
X130513001Y-123152991D01*
X130513001Y-121712087D01*
X130538861Y-121582080D01*
X130509274Y-121433335D01*
X130436414Y-121067043D01*
X130428200Y-121054749D01*
X130304219Y-120869199D01*
X131320717Y-121885697D01*
X131292168Y-122029220D01*
X131411302Y-122628147D01*
X131750567Y-123135893D01*
X132258313Y-123475158D01*
X132706058Y-123564220D01*
X133008422Y-123564220D01*
X133456167Y-123475158D01*
X133963913Y-123135893D01*
X134303178Y-122628147D01*
X134422312Y-122029220D01*
X134303178Y-121430293D01*
X133963913Y-120922547D01*
X133719477Y-120759220D01*
X133963913Y-120595893D01*
X134303178Y-120088147D01*
X134422312Y-119489220D01*
X134303178Y-118890293D01*
X133963913Y-118382547D01*
X133719477Y-118219220D01*
X133963913Y-118055893D01*
X134303178Y-117548147D01*
X134422312Y-116949220D01*
X134303178Y-116350293D01*
X133963913Y-115842547D01*
X133719477Y-115679220D01*
X133963913Y-115515893D01*
X134303178Y-115008147D01*
X134422312Y-114409220D01*
X134303178Y-113810293D01*
X133963913Y-113302547D01*
X133719477Y-113139220D01*
X133963913Y-112975893D01*
X134303178Y-112468147D01*
X134422312Y-111869220D01*
X134303178Y-111270293D01*
X133963913Y-110762547D01*
X133456167Y-110423282D01*
X133008422Y-110334220D01*
X132706058Y-110334220D01*
X132448311Y-110385489D01*
X131910000Y-109847179D01*
X131910000Y-108966259D01*
X132012041Y-108864219D01*
X140133153Y-108864219D01*
X140208000Y-108879107D01*
X140282847Y-108864219D01*
X140282852Y-108864219D01*
X140504537Y-108820123D01*
X140755929Y-108652148D01*
X140798331Y-108588689D01*
X141745955Y-107641066D01*
X141847929Y-107572929D01*
X141890331Y-107509470D01*
X142223181Y-107176621D01*
X144875153Y-107176621D01*
X144950000Y-107191509D01*
X145024847Y-107176621D01*
X145024852Y-107176621D01*
X145246537Y-107132525D01*
X145497929Y-106964550D01*
X145540331Y-106901091D01*
X146689803Y-105751621D01*
X149313974Y-105751621D01*
X149388821Y-105766509D01*
X149463668Y-105751621D01*
X149463673Y-105751621D01*
X149685358Y-105707525D01*
X149936750Y-105539550D01*
X149979152Y-105476091D01*
X150510294Y-104944950D01*
X150573750Y-104902550D01*
X150741725Y-104651158D01*
X150785821Y-104429473D01*
X150785821Y-104429469D01*
X150800709Y-104354622D01*
X150785821Y-104279775D01*
X150785821Y-94906467D01*
X150800709Y-94831620D01*
X150785821Y-94756773D01*
X150785821Y-94756769D01*
X150741725Y-94535084D01*
X150573750Y-94283692D01*
X150510294Y-94241292D01*
X150284551Y-94015549D01*
X150365892Y-93606620D01*
X150246758Y-93007693D01*
X149907493Y-92499947D01*
X149399747Y-92160682D01*
X148952002Y-92071620D01*
X148649638Y-92071620D01*
X148391891Y-92122889D01*
X145056241Y-88787240D01*
X145013839Y-88723781D01*
X144762447Y-88555806D01*
X144540762Y-88511710D01*
X144540757Y-88511710D01*
X144465910Y-88496822D01*
X144391063Y-88511710D01*
X142212771Y-88511710D01*
X142137923Y-88496822D01*
X142063075Y-88511710D01*
X142063071Y-88511710D01*
X141903403Y-88543470D01*
X141841385Y-88555806D01*
X141663802Y-88674464D01*
X141589994Y-88723781D01*
X141547594Y-88787237D01*
X139219440Y-91115392D01*
X139219440Y-91095140D01*
X139170157Y-90847375D01*
X139029809Y-90637331D01*
X138819765Y-90496983D01*
X138572000Y-90447700D01*
X137272000Y-90447700D01*
X137024235Y-90496983D01*
X136814191Y-90637331D01*
X136673843Y-90847375D01*
X136624560Y-91095140D01*
X136624560Y-92167779D01*
X136462527Y-92329812D01*
X136399071Y-92372212D01*
X136356671Y-92435668D01*
X136356670Y-92435669D01*
X136231096Y-92623604D01*
X136172111Y-92920141D01*
X136187000Y-92994993D01*
X136186999Y-98714958D01*
X135005624Y-99896335D01*
X134935449Y-99791311D01*
X134769051Y-99680128D01*
X135002602Y-99496397D01*
X135315824Y-98938435D01*
X135346804Y-98810514D01*
X135227457Y-98557080D01*
X133583680Y-98557080D01*
X133583680Y-98577080D01*
X133329680Y-98577080D01*
X133329680Y-98557080D01*
X133309680Y-98557080D01*
X133309680Y-98303080D01*
X133329680Y-98303080D01*
X133329680Y-96795080D01*
X133583680Y-96795080D01*
X133583680Y-98303080D01*
X135227457Y-98303080D01*
X135346804Y-98049646D01*
X135315824Y-97921725D01*
X135002602Y-97363763D01*
X134499700Y-96968138D01*
X133883680Y-96795080D01*
X133583680Y-96795080D01*
X133329680Y-96795080D01*
X133029680Y-96795080D01*
X132591670Y-96918130D01*
X132591670Y-96747440D01*
X132959000Y-96747440D01*
X133206765Y-96698157D01*
X133416809Y-96557809D01*
X133557157Y-96347765D01*
X133606440Y-96100000D01*
X133606440Y-94600000D01*
X133557157Y-94352235D01*
X133416809Y-94142191D01*
X133355680Y-94101346D01*
X133497327Y-93959698D01*
X133594000Y-93726309D01*
X133594000Y-93135750D01*
X133435250Y-92977000D01*
X132461000Y-92977000D01*
X132461000Y-92997000D01*
X132207000Y-92997000D01*
X132207000Y-92977000D01*
X131232750Y-92977000D01*
X131074000Y-93135750D01*
X131074000Y-93726309D01*
X131170673Y-93959698D01*
X131312320Y-94101346D01*
X131251191Y-94142191D01*
X131110843Y-94352235D01*
X131061560Y-94600000D01*
X131061560Y-96087309D01*
X131056782Y-96111330D01*
X131071670Y-96186177D01*
X131071671Y-99570218D01*
X131056782Y-99645070D01*
X131071671Y-99719922D01*
X131090559Y-99814877D01*
X131115767Y-99941607D01*
X131202584Y-100071537D01*
X131283742Y-100192999D01*
X131347198Y-100235399D01*
X131587906Y-100476107D01*
X131489649Y-100970080D01*
X131616544Y-101608025D01*
X131847169Y-101953180D01*
X131698871Y-102052271D01*
X131558523Y-102262315D01*
X131509240Y-102510080D01*
X131509240Y-104510080D01*
X131558523Y-104757845D01*
X131698871Y-104967889D01*
X131908915Y-105108237D01*
X132156680Y-105157520D01*
X134756680Y-105157520D01*
X135004445Y-105108237D01*
X135214489Y-104967889D01*
X135354837Y-104757845D01*
X135404120Y-104510080D01*
X135404120Y-102937441D01*
X138406473Y-99935089D01*
X138469929Y-99892689D01*
X138637904Y-99641297D01*
X138682000Y-99419612D01*
X138682000Y-99419608D01*
X138696888Y-99344761D01*
X138682000Y-99269914D01*
X138682000Y-95920700D01*
X138819765Y-95893297D01*
X139029809Y-95752949D01*
X139170157Y-95542905D01*
X139219440Y-95295140D01*
X139219440Y-94222502D01*
X139381474Y-94060468D01*
X139444930Y-94018068D01*
X139612905Y-93766676D01*
X139657001Y-93544991D01*
X139657001Y-93544987D01*
X139671889Y-93470139D01*
X139657001Y-93395291D01*
X139657001Y-92827433D01*
X141187938Y-91296496D01*
X141507991Y-91775489D01*
X141644528Y-91866720D01*
X141507991Y-91957951D01*
X141146624Y-92498775D01*
X141019729Y-93136720D01*
X141146624Y-93774665D01*
X141507991Y-94315489D01*
X141644528Y-94406720D01*
X141507991Y-94497951D01*
X141146624Y-95038775D01*
X141019729Y-95676720D01*
X141146624Y-96314665D01*
X141377249Y-96659820D01*
X141228951Y-96758911D01*
X141088603Y-96968955D01*
X141039320Y-97216720D01*
X141039320Y-99216720D01*
X141088603Y-99464485D01*
X141228951Y-99674529D01*
X141438995Y-99814877D01*
X141686760Y-99864160D01*
X143505360Y-99864160D01*
X147264296Y-103623097D01*
X147235748Y-103766620D01*
X147328242Y-104231621D01*
X146449846Y-104231621D01*
X146374999Y-104216733D01*
X146300152Y-104231621D01*
X146300148Y-104231621D01*
X146078463Y-104275717D01*
X146078461Y-104275718D01*
X146078462Y-104275718D01*
X145890526Y-104401292D01*
X145890524Y-104401294D01*
X145827071Y-104443692D01*
X145784673Y-104507145D01*
X144635199Y-105656621D01*
X144397440Y-105656621D01*
X144397440Y-105642582D01*
X144461667Y-105599667D01*
X144753413Y-105163038D01*
X144855860Y-104648000D01*
X144753413Y-104132962D01*
X144461667Y-103696333D01*
X144025038Y-103404587D01*
X143640008Y-103328000D01*
X141470006Y-103328000D01*
X141340000Y-103302140D01*
X141209993Y-103328000D01*
X141209992Y-103328000D01*
X140824962Y-103404587D01*
X140388333Y-103696333D01*
X140314689Y-103806549D01*
X138347030Y-105774209D01*
X127912598Y-105774209D01*
X127782591Y-105748349D01*
X127652585Y-105774209D01*
X127652583Y-105774209D01*
X127267553Y-105850796D01*
X127165778Y-105918800D01*
X126817891Y-105918800D01*
X126725809Y-105780991D01*
X126515765Y-105640643D01*
X126268000Y-105591360D01*
X123668000Y-105591360D01*
X123420235Y-105640643D01*
X123210191Y-105780991D01*
X123069843Y-105991035D01*
X123020560Y-106238800D01*
X123020560Y-107019479D01*
X122856549Y-107183490D01*
X122746333Y-107257134D01*
X122454587Y-107693763D01*
X122412080Y-107907463D01*
X122352140Y-108208800D01*
X122378000Y-108338806D01*
X122378001Y-119973071D01*
X122352140Y-120103082D01*
X122436145Y-120525399D01*
X122454588Y-120618120D01*
X122746334Y-121054749D01*
X122856550Y-121128393D01*
X123280886Y-121552729D01*
X123354532Y-121662948D01*
X123663942Y-121869689D01*
X123791159Y-121954693D01*
X123791160Y-121954693D01*
X123791161Y-121954694D01*
X124176191Y-122031281D01*
X124306198Y-122057141D01*
X124436205Y-122031281D01*
X127775440Y-122031281D01*
X127873001Y-122128843D01*
X127873001Y-122736237D01*
X126482690Y-124126549D01*
X126348379Y-124327560D01*
X125475000Y-124327560D01*
X125227235Y-124376843D01*
X125017191Y-124517191D01*
X124876843Y-124727235D01*
X124827560Y-124975000D01*
X124827560Y-125437759D01*
X119037102Y-119647303D01*
X119037102Y-119596870D01*
X119269127Y-119717368D01*
X119798590Y-119469221D01*
X120192788Y-119037347D01*
X120365058Y-118621426D01*
X120243917Y-118389400D01*
X119037100Y-118389400D01*
X119037100Y-118409400D01*
X118783100Y-118409400D01*
X118783100Y-118389400D01*
X118763100Y-118389400D01*
X118763100Y-118135400D01*
X118783100Y-118135400D01*
X118783100Y-115849400D01*
X119037100Y-115849400D01*
X119037100Y-118135400D01*
X120243917Y-118135400D01*
X120365058Y-117903374D01*
X120192788Y-117487453D01*
X119798590Y-117055579D01*
X119663787Y-116992400D01*
X119798590Y-116929221D01*
X120192788Y-116497347D01*
X120365058Y-116081426D01*
X120243917Y-115849400D01*
X119037100Y-115849400D01*
X118783100Y-115849400D01*
X118763100Y-115849400D01*
X118763100Y-115595400D01*
X118783100Y-115595400D01*
X118783100Y-115575400D01*
X119037100Y-115575400D01*
X119037100Y-115595400D01*
X120243917Y-115595400D01*
X120365058Y-115363374D01*
X120192788Y-114947453D01*
X119798590Y-114515579D01*
X119689079Y-114464254D01*
X119990530Y-114262830D01*
X120321750Y-113767125D01*
X120438059Y-113182400D01*
X120321750Y-112597675D01*
X119990530Y-112101970D01*
X119706819Y-111912400D01*
X119990530Y-111722830D01*
X120321750Y-111227125D01*
X120438059Y-110642400D01*
X120321750Y-110057675D01*
X119990530Y-109561970D01*
X119706819Y-109372400D01*
X119990530Y-109182830D01*
X120321750Y-108687125D01*
X120438059Y-108102400D01*
X120321750Y-107517675D01*
X119990530Y-107021970D01*
X119706819Y-106832400D01*
X119990530Y-106642830D01*
X120321750Y-106147125D01*
X120438059Y-105562400D01*
X120321750Y-104977675D01*
X119990530Y-104481970D01*
X119706819Y-104292400D01*
X119990530Y-104102830D01*
X120321750Y-103607125D01*
X120438059Y-103022400D01*
X120321750Y-102437675D01*
X119990530Y-101941970D01*
X119706819Y-101752400D01*
X119990530Y-101562830D01*
X120266384Y-101149986D01*
X121759673Y-102643276D01*
X121802071Y-102706729D01*
X121865524Y-102749127D01*
X121865526Y-102749129D01*
X121936789Y-102796745D01*
X122053463Y-102874704D01*
X122275148Y-102918800D01*
X122275152Y-102918800D01*
X122349999Y-102933688D01*
X122424846Y-102918800D01*
X123209419Y-102918800D01*
X123489231Y-103337569D01*
X124030055Y-103698936D01*
X124506969Y-103793800D01*
X125429031Y-103793800D01*
X125905945Y-103698936D01*
X126446769Y-103337569D01*
X126808136Y-102796745D01*
X126935031Y-102158800D01*
X126808136Y-101520855D01*
X126446769Y-100980031D01*
X126310232Y-100888800D01*
X126446769Y-100797569D01*
X126808136Y-100256745D01*
X126935031Y-99618800D01*
X126808136Y-98980855D01*
X126446769Y-98440031D01*
X126310232Y-98348800D01*
X126446769Y-98257569D01*
X126808136Y-97716745D01*
X126935031Y-97078800D01*
X126808136Y-96440855D01*
X126446769Y-95900031D01*
X125905945Y-95538664D01*
X125429031Y-95443800D01*
X124657349Y-95443800D01*
X125107149Y-94994000D01*
X127179153Y-94994000D01*
X127254000Y-95008888D01*
X127328847Y-94994000D01*
X127328852Y-94994000D01*
X127550537Y-94949904D01*
X127801929Y-94781929D01*
X127844331Y-94718470D01*
X130589110Y-91973691D01*
X131074000Y-91973691D01*
X131074000Y-92564250D01*
X131232750Y-92723000D01*
X132207000Y-92723000D01*
X132207000Y-91623750D01*
X132461000Y-91623750D01*
X132461000Y-92723000D01*
X133435250Y-92723000D01*
X133594000Y-92564250D01*
X133594000Y-91973691D01*
X133497327Y-91740302D01*
X133318699Y-91561673D01*
X133085310Y-91465000D01*
X132619750Y-91465000D01*
X132461000Y-91623750D01*
X132207000Y-91623750D01*
X132048250Y-91465000D01*
X131582690Y-91465000D01*
X131349301Y-91561673D01*
X131170673Y-91740302D01*
X131074000Y-91973691D01*
X130589110Y-91973691D01*
X134274403Y-88288400D01*
X143608475Y-88288400D01*
X143683322Y-88303288D01*
X143758169Y-88288400D01*
X143758174Y-88288400D01*
X143979859Y-88244304D01*
X144231251Y-88076329D01*
X144273653Y-88012870D01*
X144586071Y-87700452D01*
X144649530Y-87658050D01*
X144797632Y-87436400D01*
X144817505Y-87406659D01*
X144846844Y-87259160D01*
X147035088Y-87259160D01*
X147154222Y-87858087D01*
X147493487Y-88365833D01*
X148001233Y-88705098D01*
X148448978Y-88794160D01*
X148751342Y-88794160D01*
X149199087Y-88705098D01*
X149706833Y-88365833D01*
X150046098Y-87858087D01*
X150165232Y-87259160D01*
X150046098Y-86660233D01*
X149706833Y-86152487D01*
X149199087Y-85813222D01*
X148751342Y-85724160D01*
X148448978Y-85724160D01*
X148001233Y-85813222D01*
X147493487Y-86152487D01*
X147154222Y-86660233D01*
X147035088Y-87259160D01*
X144846844Y-87259160D01*
X144861601Y-87184973D01*
X144861601Y-87184969D01*
X144876489Y-87110121D01*
X144861601Y-87035273D01*
X144861601Y-83084967D01*
X144876489Y-83010119D01*
X144861601Y-82935271D01*
X144861601Y-82935267D01*
X144817505Y-82713582D01*
X144649530Y-82462190D01*
X144586074Y-82419790D01*
X142890331Y-80724048D01*
X142858894Y-80677000D01*
X144162300Y-80677000D01*
X144410065Y-80627717D01*
X144620109Y-80487369D01*
X144760457Y-80277325D01*
X144809740Y-80029560D01*
X144809740Y-80014560D01*
X145042560Y-80014560D01*
X147063637Y-82035637D01*
X147035088Y-82179160D01*
X147154222Y-82778087D01*
X147493487Y-83285833D01*
X148001233Y-83625098D01*
X148448978Y-83714160D01*
X148751342Y-83714160D01*
X149199087Y-83625098D01*
X149706833Y-83285833D01*
X150046098Y-82778087D01*
X150165232Y-82179160D01*
X150046098Y-81580233D01*
X149706833Y-81072487D01*
X149462397Y-80909160D01*
X149706833Y-80745833D01*
X150046098Y-80238087D01*
X150165232Y-79639160D01*
X150046098Y-79040233D01*
X149706833Y-78532487D01*
X149462397Y-78369160D01*
X149706833Y-78205833D01*
X150046098Y-77698087D01*
X150165232Y-77099160D01*
X150046098Y-76500233D01*
X149706833Y-75992487D01*
X149462397Y-75829160D01*
X149706833Y-75665833D01*
X150046098Y-75158087D01*
X150165232Y-74559160D01*
X150046098Y-73960233D01*
X149706833Y-73452487D01*
X149462397Y-73289160D01*
X149706833Y-73125833D01*
X150046098Y-72618087D01*
X150165232Y-72019160D01*
X150046098Y-71420233D01*
X149706833Y-70912487D01*
X149199087Y-70573222D01*
X148751342Y-70484160D01*
X148448978Y-70484160D01*
X148001233Y-70573222D01*
X147493487Y-70912487D01*
X147154222Y-71420233D01*
X147104451Y-71670451D01*
X146215658Y-70781658D01*
X146160705Y-70699415D01*
X145834888Y-70481711D01*
X145547572Y-70424560D01*
X145547568Y-70424560D01*
X145450560Y-70405264D01*
X145353552Y-70424560D01*
X144470541Y-70424560D01*
X144341069Y-70230791D01*
X143800245Y-69869424D01*
X143323331Y-69774560D01*
X142401269Y-69774560D01*
X141997299Y-69854915D01*
X141997299Y-66612699D01*
X142028361Y-66456540D01*
X142028361Y-66456537D01*
X142043249Y-66381690D01*
X142028361Y-66306843D01*
X142028361Y-63615303D01*
X143540000Y-63615303D01*
X143540000Y-64603897D01*
X143918319Y-65517239D01*
X144617361Y-66216281D01*
X145530703Y-66594600D01*
X146519297Y-66594600D01*
X147432639Y-66216281D01*
X148131681Y-65517239D01*
X148510000Y-64603897D01*
X148510000Y-63615303D01*
X148131681Y-62701961D01*
X147432639Y-62002919D01*
X146519297Y-61624600D01*
X145530703Y-61624600D01*
X144617361Y-62002919D01*
X143918319Y-62701961D01*
X143540000Y-63615303D01*
X142028361Y-63615303D01*
X142028359Y-59196101D01*
X142043248Y-59121248D01*
X141984264Y-58824711D01*
X141858689Y-58636775D01*
X141858686Y-58636772D01*
X141816288Y-58573319D01*
X141752835Y-58530921D01*
X140037443Y-56815530D01*
X139995041Y-56752071D01*
X139743649Y-56584096D01*
X139521964Y-56540000D01*
X139521959Y-56540000D01*
X139447112Y-56525112D01*
X139372265Y-56540000D01*
X131192402Y-56540000D01*
X126390331Y-51737930D01*
X126347929Y-51674471D01*
X126096537Y-51506496D01*
X125874852Y-51462400D01*
X125874847Y-51462400D01*
X125800000Y-51447512D01*
X125725153Y-51462400D01*
X122457444Y-51462400D01*
X122382597Y-51447512D01*
X122307750Y-51462400D01*
X122307746Y-51462400D01*
X122086061Y-51506496D01*
X121834669Y-51674471D01*
X121792269Y-51737927D01*
X120673530Y-52856667D01*
X120610071Y-52899069D01*
X120442096Y-53150462D01*
X120398000Y-53372147D01*
X120398000Y-53372151D01*
X120383112Y-53446998D01*
X120398000Y-53521845D01*
X120398001Y-59432516D01*
X119717100Y-58751616D01*
X119717100Y-53031408D01*
X119736396Y-52934400D01*
X119717100Y-52837392D01*
X119717100Y-52837388D01*
X119659949Y-52550072D01*
X119611161Y-52477055D01*
X119497198Y-52306497D01*
X119497196Y-52306495D01*
X119442245Y-52224255D01*
X119360005Y-52169304D01*
X118679540Y-51488839D01*
X118679540Y-48734400D01*
X118630257Y-48486635D01*
X118489909Y-48276591D01*
X118279865Y-48136243D01*
X118117100Y-48103867D01*
X118117100Y-46942280D01*
X118666960Y-46392421D01*
X118666960Y-46626980D01*
X118716243Y-46874745D01*
X118856591Y-47084789D01*
X119066635Y-47225137D01*
X119314400Y-47274420D01*
X121274400Y-47274420D01*
X121522165Y-47225137D01*
X121732209Y-47084789D01*
X121872557Y-46874745D01*
X121921840Y-46626980D01*
X121921840Y-43476980D01*
X121893334Y-43333670D01*
X123685466Y-43333670D01*
X123656960Y-43476980D01*
X123656960Y-43476980D01*
G37*
X123656960Y-43476980D02*
X123656960Y-46626980D01*
X123706243Y-46874745D01*
X123846591Y-47084789D01*
X124056635Y-47225137D01*
X124304400Y-47274420D01*
X124928080Y-47274420D01*
X124565540Y-47636960D01*
X122161100Y-47636960D01*
X121913335Y-47686243D01*
X121703291Y-47826591D01*
X121562943Y-48036635D01*
X121513660Y-48284400D01*
X121513660Y-50244400D01*
X121562943Y-50492165D01*
X121703291Y-50702209D01*
X121913335Y-50842557D01*
X122161100Y-50891840D01*
X125311100Y-50891840D01*
X125558865Y-50842557D01*
X125768909Y-50702209D01*
X125909257Y-50492165D01*
X125958540Y-50244400D01*
X125958540Y-49029960D01*
X126759500Y-48229000D01*
X130950918Y-48229000D01*
X136603823Y-53881906D01*
X136658774Y-53964146D01*
X136741014Y-54019097D01*
X136741016Y-54019099D01*
X136956232Y-54162901D01*
X136984591Y-54181850D01*
X137271907Y-54239001D01*
X137271911Y-54239001D01*
X137368919Y-54258297D01*
X137465927Y-54239001D01*
X143747911Y-54239001D01*
X143844919Y-54258297D01*
X143941927Y-54239001D01*
X143941931Y-54239001D01*
X144229247Y-54181850D01*
X144555064Y-53964146D01*
X144610017Y-53881903D01*
X145281056Y-53210864D01*
X145590405Y-53339000D01*
X146499435Y-53339000D01*
X147339269Y-52991130D01*
X147982050Y-52348349D01*
X148329920Y-51508515D01*
X148329920Y-50599485D01*
X147982050Y-49759651D01*
X147339269Y-49116870D01*
X146499435Y-48769000D01*
X145590405Y-48769000D01*
X144750571Y-49116870D01*
X144107790Y-49759651D01*
X143759920Y-50599485D01*
X143759920Y-51508515D01*
X143888056Y-51817864D01*
X143436919Y-52269001D01*
X140394917Y-52269001D01*
X140709920Y-51508515D01*
X140709920Y-50599485D01*
X140362050Y-49759651D01*
X139719269Y-49116870D01*
X138879435Y-48769000D01*
X138006682Y-48769000D01*
X135520292Y-46282610D01*
X157504820Y-46282610D01*
X157504820Y-47023170D01*
X157601493Y-47256559D01*
X157780122Y-47435187D01*
X158013511Y-47531860D01*
X159604070Y-47531860D01*
X159762820Y-47373110D01*
X159762820Y-46123860D01*
X160016820Y-46123860D01*
X160016820Y-47373110D01*
X160175570Y-47531860D01*
X161766129Y-47531860D01*
X161999518Y-47435187D01*
X162178147Y-47256559D01*
X162274820Y-47023170D01*
X162274820Y-46282610D01*
X162116070Y-46123860D01*
X160016820Y-46123860D01*
X159762820Y-46123860D01*
X157663570Y-46123860D01*
X157504820Y-46282610D01*
X135520292Y-46282610D01*
X134208232Y-44970550D01*
X157504820Y-44970550D01*
X157504820Y-45711110D01*
X157663570Y-45869860D01*
X159762820Y-45869860D01*
X159762820Y-44620610D01*
X160016820Y-44620610D01*
X160016820Y-45869860D01*
X162116070Y-45869860D01*
X162274820Y-45711110D01*
X162274820Y-44970550D01*
X162178147Y-44737161D01*
X161999518Y-44558533D01*
X161766129Y-44461860D01*
X160175570Y-44461860D01*
X160016820Y-44620610D01*
X159762820Y-44620610D01*
X159604070Y-44461860D01*
X158013511Y-44461860D01*
X157780122Y-44558533D01*
X157601493Y-44737161D01*
X157504820Y-44970550D01*
X134208232Y-44970550D01*
X133448213Y-44210532D01*
X133374567Y-44100313D01*
X132937938Y-43808567D01*
X132552908Y-43731980D01*
X132552906Y-43731980D01*
X132422900Y-43706120D01*
X132292894Y-43731980D01*
X126911840Y-43731980D01*
X126911840Y-43476980D01*
X126883334Y-43333670D01*
X162700096Y-43333670D01*
X163618618Y-43405959D01*
X164490133Y-43615191D01*
X165318189Y-43958184D01*
X166082391Y-44426488D01*
X166109240Y-44449420D01*
X163139820Y-44449420D01*
X162892055Y-44498703D01*
X162682011Y-44639051D01*
X162541663Y-44849095D01*
X162492380Y-45096860D01*
X162492380Y-46896860D01*
X162541663Y-47144625D01*
X162682011Y-47354669D01*
X162892055Y-47495017D01*
X163139820Y-47544300D01*
X163904820Y-47544300D01*
X163904821Y-48976329D01*
X163902235Y-48976843D01*
X163692191Y-49117191D01*
X163551843Y-49327235D01*
X163502560Y-49575000D01*
X163502560Y-49601000D01*
X161567440Y-49601000D01*
X161567440Y-48836000D01*
X161518157Y-48588235D01*
X161377809Y-48378191D01*
X161167765Y-48237843D01*
X160920000Y-48188560D01*
X159120000Y-48188560D01*
X158872235Y-48237843D01*
X158662191Y-48378191D01*
X158521843Y-48588235D01*
X158472560Y-48836000D01*
X158472560Y-49266000D01*
X158296762Y-49266000D01*
X156708312Y-47677551D01*
X156634666Y-47567332D01*
X156198037Y-47275586D01*
X155813007Y-47198999D01*
X155813005Y-47198999D01*
X155682999Y-47173139D01*
X155552993Y-47198999D01*
X152578125Y-47198999D01*
X152448118Y-47173139D01*
X152318111Y-47198999D01*
X151933081Y-47275586D01*
X151933080Y-47275587D01*
X151933079Y-47275587D01*
X151853692Y-47328632D01*
X151496452Y-47567332D01*
X151422808Y-47677548D01*
X150183549Y-48916807D01*
X150073334Y-48990451D01*
X149999690Y-49100667D01*
X149781588Y-49427080D01*
X149679140Y-49942118D01*
X149705001Y-50072129D01*
X149705000Y-61966618D01*
X149617361Y-62002919D01*
X148918319Y-62701961D01*
X148540000Y-63615303D01*
X148540000Y-64603897D01*
X148918319Y-65517239D01*
X149617361Y-66216281D01*
X150530703Y-66594600D01*
X151519297Y-66594600D01*
X152432639Y-66216281D01*
X153025000Y-65623920D01*
X153617361Y-66216281D01*
X154530703Y-66594600D01*
X155519297Y-66594600D01*
X156432639Y-66216281D01*
X157131681Y-65517239D01*
X157339816Y-65014758D01*
X157388006Y-64942636D01*
X157404928Y-64857563D01*
X157510000Y-64603897D01*
X157510000Y-64329330D01*
X157511880Y-64319879D01*
X157511880Y-63463242D01*
X157576302Y-63527663D01*
X157540000Y-63615303D01*
X157540000Y-64603897D01*
X157918319Y-65517239D01*
X158617361Y-66216281D01*
X159530703Y-66594600D01*
X160519297Y-66594600D01*
X161432639Y-66216281D01*
X162131681Y-65517239D01*
X162510000Y-64603897D01*
X162510000Y-63615303D01*
X162131681Y-62701961D01*
X161432639Y-62002919D01*
X160519297Y-61624600D01*
X159530703Y-61624600D01*
X159443063Y-61660902D01*
X158503911Y-60721750D01*
X159360920Y-60721750D01*
X159360920Y-61012309D01*
X159457593Y-61245698D01*
X159636221Y-61424327D01*
X159869610Y-61521000D01*
X160110170Y-61521000D01*
X160268920Y-61362250D01*
X160268920Y-60563000D01*
X160522920Y-60563000D01*
X160522920Y-61362250D01*
X160681670Y-61521000D01*
X160922230Y-61521000D01*
X161155619Y-61424327D01*
X161334247Y-61245698D01*
X161430920Y-61012309D01*
X161430920Y-60721750D01*
X161272170Y-60563000D01*
X160522920Y-60563000D01*
X160268920Y-60563000D01*
X159519670Y-60563000D01*
X159360920Y-60721750D01*
X158503911Y-60721750D01*
X157511880Y-59729719D01*
X157511880Y-52976234D01*
X157553706Y-52765959D01*
X157511880Y-52555682D01*
X157511880Y-52555681D01*
X157388006Y-51932924D01*
X157331699Y-51848655D01*
X157619992Y-51906000D01*
X157619993Y-51906000D01*
X157750000Y-51931860D01*
X157880007Y-51906000D01*
X158472560Y-51906000D01*
X158472560Y-52336000D01*
X158521843Y-52583765D01*
X158662191Y-52793809D01*
X158872235Y-52934157D01*
X159120000Y-52983440D01*
X160920000Y-52983440D01*
X161167765Y-52934157D01*
X161377809Y-52793809D01*
X161518157Y-52583765D01*
X161567440Y-52336000D01*
X161567440Y-51571000D01*
X163502560Y-51571000D01*
X163502560Y-51575000D01*
X163551843Y-51822765D01*
X163692191Y-52032809D01*
X163790444Y-52098460D01*
X162619547Y-52098460D01*
X162522539Y-52079164D01*
X162425531Y-52098460D01*
X162425528Y-52098460D01*
X162138212Y-52155611D01*
X161894637Y-52318362D01*
X161894635Y-52318364D01*
X161812395Y-52373315D01*
X161757444Y-52455555D01*
X161007112Y-53205887D01*
X160920000Y-53188560D01*
X159120000Y-53188560D01*
X158872235Y-53237843D01*
X158662191Y-53378191D01*
X158521843Y-53588235D01*
X158472560Y-53836000D01*
X158472560Y-57336000D01*
X158521843Y-57583765D01*
X158536410Y-57605566D01*
X158447763Y-57738235D01*
X158398480Y-57986000D01*
X158398480Y-58886000D01*
X158447763Y-59133765D01*
X158588111Y-59343809D01*
X158798155Y-59484157D01*
X159045920Y-59533440D01*
X159550454Y-59533440D01*
X159457593Y-59626302D01*
X159360920Y-59859691D01*
X159360920Y-60150250D01*
X159519670Y-60309000D01*
X160268920Y-60309000D01*
X160268920Y-59509750D01*
X160183389Y-59424219D01*
X160303729Y-59343809D01*
X160395920Y-59205836D01*
X160488111Y-59343809D01*
X160608451Y-59424219D01*
X160522920Y-59509750D01*
X160522920Y-60309000D01*
X161272170Y-60309000D01*
X161430920Y-60150250D01*
X161430920Y-59859691D01*
X161334247Y-59626302D01*
X161241386Y-59533440D01*
X161745920Y-59533440D01*
X161993685Y-59484157D01*
X162203729Y-59343809D01*
X162344077Y-59133765D01*
X162393360Y-58886000D01*
X162393360Y-58413362D01*
X162533502Y-58273220D01*
X162882440Y-58273220D01*
X162909843Y-58410985D01*
X163050191Y-58621029D01*
X163260235Y-58761377D01*
X163508000Y-58810660D01*
X165008000Y-58810660D01*
X165255765Y-58761377D01*
X165465809Y-58621029D01*
X165606157Y-58410985D01*
X165611721Y-58383011D01*
X165669673Y-58522919D01*
X165848302Y-58701547D01*
X166081691Y-58798220D01*
X166672250Y-58798220D01*
X166831000Y-58639470D01*
X166831000Y-57640220D01*
X166811000Y-57640220D01*
X166811000Y-57386220D01*
X166831000Y-57386220D01*
X166831000Y-57366220D01*
X167085000Y-57366220D01*
X167085000Y-57386220D01*
X167105000Y-57386220D01*
X167105000Y-57640220D01*
X167085000Y-57640220D01*
X167085000Y-58639470D01*
X167243750Y-58798220D01*
X167598701Y-58798220D01*
X167598701Y-59799851D01*
X167598702Y-59799856D01*
X167598701Y-61900146D01*
X167598701Y-62874851D01*
X167598702Y-62874856D01*
X167598702Y-63479695D01*
X167317698Y-63423800D01*
X167022502Y-63423800D01*
X166585375Y-63510750D01*
X166089670Y-63841970D01*
X165900100Y-64125681D01*
X165710530Y-63841970D01*
X165214825Y-63510750D01*
X164777698Y-63423800D01*
X164482502Y-63423800D01*
X164045375Y-63510750D01*
X163549670Y-63841970D01*
X163218450Y-64337675D01*
X163102141Y-64922400D01*
X163218450Y-65507125D01*
X163549670Y-66002830D01*
X163833381Y-66192400D01*
X163549670Y-66381970D01*
X163218450Y-66877675D01*
X163102141Y-67462400D01*
X163218450Y-68047125D01*
X163549670Y-68542830D01*
X163833381Y-68732400D01*
X163549670Y-68921970D01*
X163218450Y-69417675D01*
X163102141Y-70002400D01*
X163218450Y-70587125D01*
X163549670Y-71082830D01*
X163833381Y-71272400D01*
X163549670Y-71461970D01*
X163218450Y-71957675D01*
X163102141Y-72542400D01*
X163152780Y-72796978D01*
X162790490Y-72434689D01*
X162790488Y-72434686D01*
X162783891Y-72428089D01*
X162865232Y-72019160D01*
X162746098Y-71420233D01*
X162406833Y-70912487D01*
X162162397Y-70749160D01*
X162406833Y-70585833D01*
X162746098Y-70078087D01*
X162865232Y-69479160D01*
X162746098Y-68880233D01*
X162406833Y-68372487D01*
X161899087Y-68033222D01*
X161451342Y-67944160D01*
X161148978Y-67944160D01*
X160701233Y-68033222D01*
X160193487Y-68372487D01*
X159854222Y-68880233D01*
X159735088Y-69479160D01*
X159854222Y-70078087D01*
X160193487Y-70585833D01*
X160437923Y-70749160D01*
X160193487Y-70912487D01*
X159854222Y-71420233D01*
X159735088Y-72019160D01*
X159854222Y-72618087D01*
X160193487Y-73125833D01*
X160437923Y-73289160D01*
X160193487Y-73452487D01*
X159854222Y-73960233D01*
X159735088Y-74559160D01*
X159854222Y-75158087D01*
X160193487Y-75665833D01*
X160437923Y-75829160D01*
X160193487Y-75992487D01*
X159854222Y-76500233D01*
X159735088Y-77099160D01*
X159854222Y-77698087D01*
X160193487Y-78205833D01*
X160437923Y-78369160D01*
X160193487Y-78532487D01*
X159854222Y-79040233D01*
X159735088Y-79639160D01*
X159854222Y-80238087D01*
X160193487Y-80745833D01*
X160437923Y-80909160D01*
X160193487Y-81072487D01*
X159854222Y-81580233D01*
X159735088Y-82179160D01*
X159816429Y-82588089D01*
X159140679Y-83263840D01*
X159077220Y-83306242D01*
X158909245Y-83557635D01*
X158865149Y-83779320D01*
X158865149Y-83779324D01*
X158850261Y-83854171D01*
X158865149Y-83929018D01*
X158865150Y-101816097D01*
X158850261Y-101890949D01*
X158865150Y-101965801D01*
X158909246Y-102187486D01*
X159077221Y-102438878D01*
X159140677Y-102481278D01*
X160017089Y-103357691D01*
X159935748Y-103766620D01*
X160017089Y-104175549D01*
X159838017Y-104354622D01*
X159341337Y-104851302D01*
X159277881Y-104893702D01*
X159235481Y-104957158D01*
X159235480Y-104957159D01*
X159109906Y-105145094D01*
X159050921Y-105441631D01*
X159065810Y-105516483D01*
X159065809Y-109550153D01*
X159050921Y-109625000D01*
X159065809Y-109699847D01*
X159065809Y-109699851D01*
X159109905Y-109921536D01*
X159277880Y-110172929D01*
X159341338Y-110215330D01*
X159516336Y-110390329D01*
X159516339Y-110390331D01*
X161090001Y-111963994D01*
X161090001Y-112904960D01*
X159412100Y-112904960D01*
X159164335Y-112954243D01*
X158954291Y-113094591D01*
X158813943Y-113304635D01*
X158764660Y-113552400D01*
X158764660Y-114133078D01*
X156208550Y-116689189D01*
X156098334Y-116762833D01*
X156024690Y-116873049D01*
X155984999Y-116932451D01*
X155984999Y-116839054D01*
X156073548Y-116750505D01*
X156183767Y-116676859D01*
X156475513Y-116240230D01*
X156552100Y-115855200D01*
X156552100Y-115855199D01*
X156577960Y-115725192D01*
X156552100Y-115595186D01*
X156552100Y-115239807D01*
X156678038Y-115051327D01*
X156797172Y-114452400D01*
X156678038Y-113853473D01*
X156338773Y-113345727D01*
X155831027Y-113006462D01*
X155383282Y-112917400D01*
X155080918Y-112917400D01*
X154633173Y-113006462D01*
X154125427Y-113345727D01*
X153786162Y-113853473D01*
X153667028Y-114452400D01*
X153786162Y-115051327D01*
X153887516Y-115203015D01*
X153823549Y-115266982D01*
X153713332Y-115340627D01*
X153421586Y-115777256D01*
X153348227Y-116146059D01*
X153319139Y-116292293D01*
X153344999Y-116422300D01*
X153345000Y-119528237D01*
X151513547Y-121359691D01*
X151403331Y-121433335D01*
X151111585Y-121869964D01*
X151098947Y-121933500D01*
X150990263Y-121933500D01*
X150848927Y-121839062D01*
X150401182Y-121750000D01*
X150098818Y-121750000D01*
X149651073Y-121839062D01*
X149433602Y-121984372D01*
X149304322Y-122010087D01*
X148867693Y-122301833D01*
X148575947Y-122738462D01*
X148473500Y-123253500D01*
X148575947Y-123768538D01*
X148867693Y-124205167D01*
X149076015Y-124344363D01*
X148892191Y-124467191D01*
X148862071Y-124512269D01*
X147992250Y-123642449D01*
X147992250Y-117407551D01*
X149509476Y-115890327D01*
X149572929Y-115847929D01*
X149615327Y-115784476D01*
X149615329Y-115784474D01*
X149673483Y-115697440D01*
X149675000Y-115697440D01*
X149922765Y-115648157D01*
X150132809Y-115507809D01*
X150273157Y-115297765D01*
X150322440Y-115050000D01*
X150322440Y-113550000D01*
X150273157Y-113302235D01*
X150132809Y-113092191D01*
X149922765Y-112951843D01*
X149894791Y-112946279D01*
X150034699Y-112888327D01*
X150213327Y-112709698D01*
X150310000Y-112476309D01*
X150310000Y-111885750D01*
X150151250Y-111727000D01*
X149152000Y-111727000D01*
X149152000Y-111747000D01*
X148898000Y-111747000D01*
X148898000Y-111727000D01*
X147898750Y-111727000D01*
X147740000Y-111885750D01*
X147740000Y-112476309D01*
X147836673Y-112709698D01*
X148015301Y-112888327D01*
X148155209Y-112946279D01*
X148127235Y-112951843D01*
X147917191Y-113092191D01*
X147776843Y-113302235D01*
X147727560Y-113550000D01*
X147727560Y-115050000D01*
X147776843Y-115297765D01*
X147847175Y-115403023D01*
X146961813Y-116288386D01*
X146663913Y-115842547D01*
X146419477Y-115679220D01*
X146663913Y-115515893D01*
X147003178Y-115008147D01*
X147122312Y-114409220D01*
X147003178Y-113810293D01*
X146663913Y-113302547D01*
X146419477Y-113139220D01*
X146663913Y-112975893D01*
X147003178Y-112468147D01*
X147122312Y-111869220D01*
X147003178Y-111270293D01*
X146663913Y-110762547D01*
X146419477Y-110599220D01*
X146663913Y-110435893D01*
X147003178Y-109928147D01*
X147122312Y-109329220D01*
X147026317Y-108846620D01*
X147235748Y-108846620D01*
X147354882Y-109445547D01*
X147694147Y-109953293D01*
X148148147Y-110256646D01*
X148015301Y-110311673D01*
X147836673Y-110490302D01*
X147740000Y-110723691D01*
X147740000Y-111314250D01*
X147898750Y-111473000D01*
X148898000Y-111473000D01*
X148898000Y-111453000D01*
X149152000Y-111453000D01*
X149152000Y-111473000D01*
X150151250Y-111473000D01*
X150310000Y-111314250D01*
X150310000Y-110723691D01*
X150213327Y-110490302D01*
X150034699Y-110311673D01*
X149801310Y-110215000D01*
X149515821Y-110215000D01*
X149907493Y-109953293D01*
X150246758Y-109445547D01*
X150365892Y-108846620D01*
X150246758Y-108247693D01*
X149907493Y-107739947D01*
X149399747Y-107400682D01*
X148952002Y-107311620D01*
X148649638Y-107311620D01*
X148201893Y-107400682D01*
X147694147Y-107739947D01*
X147354882Y-108247693D01*
X147235748Y-108846620D01*
X147026317Y-108846620D01*
X147003178Y-108730293D01*
X146663913Y-108222547D01*
X146156167Y-107883282D01*
X145708422Y-107794220D01*
X145406058Y-107794220D01*
X144958313Y-107883282D01*
X144450567Y-108222547D01*
X144111302Y-108730293D01*
X143992168Y-109329220D01*
X144073509Y-109738149D01*
X142940520Y-110871139D01*
X142877061Y-110913541D01*
X142709086Y-111164934D01*
X142664990Y-111386619D01*
X142664990Y-111386623D01*
X142650102Y-111461470D01*
X142664990Y-111536317D01*
X142664991Y-126965000D01*
X135755584Y-126965000D01*
X134190331Y-125399749D01*
X134147929Y-125336290D01*
X133896537Y-125168315D01*
X133674852Y-125124219D01*
X133674847Y-125124219D01*
X133600000Y-125109331D01*
X133525153Y-125124219D01*
X132344087Y-125124219D01*
X132269239Y-125109331D01*
X132194391Y-125124219D01*
X132194387Y-125124219D01*
X131972702Y-125168315D01*
X131721310Y-125336290D01*
X131678910Y-125399746D01*
X130838657Y-126240000D01*
X129846761Y-126240000D01*
X130034449Y-126052312D01*
X130144668Y-125978666D01*
X130423469Y-125561411D01*
X130436413Y-125542039D01*
X130436413Y-125542038D01*
X130436414Y-125542037D01*
X130513001Y-125157007D01*
X130538861Y-125027000D01*
X130513001Y-124896993D01*
X130513001Y-123413006D01*
X130538861Y-123283000D01*
X130513001Y-123152991D01*
X130513001Y-121712087D01*
X130538861Y-121582080D01*
X130509274Y-121433335D01*
X130436414Y-121067043D01*
X130428200Y-121054749D01*
X130304219Y-120869199D01*
X131320717Y-121885697D01*
X131292168Y-122029220D01*
X131411302Y-122628147D01*
X131750567Y-123135893D01*
X132258313Y-123475158D01*
X132706058Y-123564220D01*
X133008422Y-123564220D01*
X133456167Y-123475158D01*
X133963913Y-123135893D01*
X134303178Y-122628147D01*
X134422312Y-122029220D01*
X134303178Y-121430293D01*
X133963913Y-120922547D01*
X133719477Y-120759220D01*
X133963913Y-120595893D01*
X134303178Y-120088147D01*
X134422312Y-119489220D01*
X134303178Y-118890293D01*
X133963913Y-118382547D01*
X133719477Y-118219220D01*
X133963913Y-118055893D01*
X134303178Y-117548147D01*
X134422312Y-116949220D01*
X134303178Y-116350293D01*
X133963913Y-115842547D01*
X133719477Y-115679220D01*
X133963913Y-115515893D01*
X134303178Y-115008147D01*
X134422312Y-114409220D01*
X134303178Y-113810293D01*
X133963913Y-113302547D01*
X133719477Y-113139220D01*
X133963913Y-112975893D01*
X134303178Y-112468147D01*
X134422312Y-111869220D01*
X134303178Y-111270293D01*
X133963913Y-110762547D01*
X133456167Y-110423282D01*
X133008422Y-110334220D01*
X132706058Y-110334220D01*
X132448311Y-110385489D01*
X131910000Y-109847179D01*
X131910000Y-108966259D01*
X132012041Y-108864219D01*
X140133153Y-108864219D01*
X140208000Y-108879107D01*
X140282847Y-108864219D01*
X140282852Y-108864219D01*
X140504537Y-108820123D01*
X140755929Y-108652148D01*
X140798331Y-108588689D01*
X141745955Y-107641066D01*
X141847929Y-107572929D01*
X141890331Y-107509470D01*
X142223181Y-107176621D01*
X144875153Y-107176621D01*
X144950000Y-107191509D01*
X145024847Y-107176621D01*
X145024852Y-107176621D01*
X145246537Y-107132525D01*
X145497929Y-106964550D01*
X145540331Y-106901091D01*
X146689803Y-105751621D01*
X149313974Y-105751621D01*
X149388821Y-105766509D01*
X149463668Y-105751621D01*
X149463673Y-105751621D01*
X149685358Y-105707525D01*
X149936750Y-105539550D01*
X149979152Y-105476091D01*
X150510294Y-104944950D01*
X150573750Y-104902550D01*
X150741725Y-104651158D01*
X150785821Y-104429473D01*
X150785821Y-104429469D01*
X150800709Y-104354622D01*
X150785821Y-104279775D01*
X150785821Y-94906467D01*
X150800709Y-94831620D01*
X150785821Y-94756773D01*
X150785821Y-94756769D01*
X150741725Y-94535084D01*
X150573750Y-94283692D01*
X150510294Y-94241292D01*
X150284551Y-94015549D01*
X150365892Y-93606620D01*
X150246758Y-93007693D01*
X149907493Y-92499947D01*
X149399747Y-92160682D01*
X148952002Y-92071620D01*
X148649638Y-92071620D01*
X148391891Y-92122889D01*
X145056241Y-88787240D01*
X145013839Y-88723781D01*
X144762447Y-88555806D01*
X144540762Y-88511710D01*
X144540757Y-88511710D01*
X144465910Y-88496822D01*
X144391063Y-88511710D01*
X142212771Y-88511710D01*
X142137923Y-88496822D01*
X142063075Y-88511710D01*
X142063071Y-88511710D01*
X141903403Y-88543470D01*
X141841385Y-88555806D01*
X141663802Y-88674464D01*
X141589994Y-88723781D01*
X141547594Y-88787237D01*
X139219440Y-91115392D01*
X139219440Y-91095140D01*
X139170157Y-90847375D01*
X139029809Y-90637331D01*
X138819765Y-90496983D01*
X138572000Y-90447700D01*
X137272000Y-90447700D01*
X137024235Y-90496983D01*
X136814191Y-90637331D01*
X136673843Y-90847375D01*
X136624560Y-91095140D01*
X136624560Y-92167779D01*
X136462527Y-92329812D01*
X136399071Y-92372212D01*
X136356671Y-92435668D01*
X136356670Y-92435669D01*
X136231096Y-92623604D01*
X136172111Y-92920141D01*
X136187000Y-92994993D01*
X136186999Y-98714958D01*
X135005624Y-99896335D01*
X134935449Y-99791311D01*
X134769051Y-99680128D01*
X135002602Y-99496397D01*
X135315824Y-98938435D01*
X135346804Y-98810514D01*
X135227457Y-98557080D01*
X133583680Y-98557080D01*
X133583680Y-98577080D01*
X133329680Y-98577080D01*
X133329680Y-98557080D01*
X133309680Y-98557080D01*
X133309680Y-98303080D01*
X133329680Y-98303080D01*
X133329680Y-96795080D01*
X133583680Y-96795080D01*
X133583680Y-98303080D01*
X135227457Y-98303080D01*
X135346804Y-98049646D01*
X135315824Y-97921725D01*
X135002602Y-97363763D01*
X134499700Y-96968138D01*
X133883680Y-96795080D01*
X133583680Y-96795080D01*
X133329680Y-96795080D01*
X133029680Y-96795080D01*
X132591670Y-96918130D01*
X132591670Y-96747440D01*
X132959000Y-96747440D01*
X133206765Y-96698157D01*
X133416809Y-96557809D01*
X133557157Y-96347765D01*
X133606440Y-96100000D01*
X133606440Y-94600000D01*
X133557157Y-94352235D01*
X133416809Y-94142191D01*
X133355680Y-94101346D01*
X133497327Y-93959698D01*
X133594000Y-93726309D01*
X133594000Y-93135750D01*
X133435250Y-92977000D01*
X132461000Y-92977000D01*
X132461000Y-92997000D01*
X132207000Y-92997000D01*
X132207000Y-92977000D01*
X131232750Y-92977000D01*
X131074000Y-93135750D01*
X131074000Y-93726309D01*
X131170673Y-93959698D01*
X131312320Y-94101346D01*
X131251191Y-94142191D01*
X131110843Y-94352235D01*
X131061560Y-94600000D01*
X131061560Y-96087309D01*
X131056782Y-96111330D01*
X131071670Y-96186177D01*
X131071671Y-99570218D01*
X131056782Y-99645070D01*
X131071671Y-99719922D01*
X131090559Y-99814877D01*
X131115767Y-99941607D01*
X131202584Y-100071537D01*
X131283742Y-100192999D01*
X131347198Y-100235399D01*
X131587906Y-100476107D01*
X131489649Y-100970080D01*
X131616544Y-101608025D01*
X131847169Y-101953180D01*
X131698871Y-102052271D01*
X131558523Y-102262315D01*
X131509240Y-102510080D01*
X131509240Y-104510080D01*
X131558523Y-104757845D01*
X131698871Y-104967889D01*
X131908915Y-105108237D01*
X132156680Y-105157520D01*
X134756680Y-105157520D01*
X135004445Y-105108237D01*
X135214489Y-104967889D01*
X135354837Y-104757845D01*
X135404120Y-104510080D01*
X135404120Y-102937441D01*
X138406473Y-99935089D01*
X138469929Y-99892689D01*
X138637904Y-99641297D01*
X138682000Y-99419612D01*
X138682000Y-99419608D01*
X138696888Y-99344761D01*
X138682000Y-99269914D01*
X138682000Y-95920700D01*
X138819765Y-95893297D01*
X139029809Y-95752949D01*
X139170157Y-95542905D01*
X139219440Y-95295140D01*
X139219440Y-94222502D01*
X139381474Y-94060468D01*
X139444930Y-94018068D01*
X139612905Y-93766676D01*
X139657001Y-93544991D01*
X139657001Y-93544987D01*
X139671889Y-93470139D01*
X139657001Y-93395291D01*
X139657001Y-92827433D01*
X141187938Y-91296496D01*
X141507991Y-91775489D01*
X141644528Y-91866720D01*
X141507991Y-91957951D01*
X141146624Y-92498775D01*
X141019729Y-93136720D01*
X141146624Y-93774665D01*
X141507991Y-94315489D01*
X141644528Y-94406720D01*
X141507991Y-94497951D01*
X141146624Y-95038775D01*
X141019729Y-95676720D01*
X141146624Y-96314665D01*
X141377249Y-96659820D01*
X141228951Y-96758911D01*
X141088603Y-96968955D01*
X141039320Y-97216720D01*
X141039320Y-99216720D01*
X141088603Y-99464485D01*
X141228951Y-99674529D01*
X141438995Y-99814877D01*
X141686760Y-99864160D01*
X143505360Y-99864160D01*
X147264296Y-103623097D01*
X147235748Y-103766620D01*
X147328242Y-104231621D01*
X146449846Y-104231621D01*
X146374999Y-104216733D01*
X146300152Y-104231621D01*
X146300148Y-104231621D01*
X146078463Y-104275717D01*
X146078461Y-104275718D01*
X146078462Y-104275718D01*
X145890526Y-104401292D01*
X145890524Y-104401294D01*
X145827071Y-104443692D01*
X145784673Y-104507145D01*
X144635199Y-105656621D01*
X144397440Y-105656621D01*
X144397440Y-105642582D01*
X144461667Y-105599667D01*
X144753413Y-105163038D01*
X144855860Y-104648000D01*
X144753413Y-104132962D01*
X144461667Y-103696333D01*
X144025038Y-103404587D01*
X143640008Y-103328000D01*
X141470006Y-103328000D01*
X141340000Y-103302140D01*
X141209993Y-103328000D01*
X141209992Y-103328000D01*
X140824962Y-103404587D01*
X140388333Y-103696333D01*
X140314689Y-103806549D01*
X138347030Y-105774209D01*
X127912598Y-105774209D01*
X127782591Y-105748349D01*
X127652585Y-105774209D01*
X127652583Y-105774209D01*
X127267553Y-105850796D01*
X127165778Y-105918800D01*
X126817891Y-105918800D01*
X126725809Y-105780991D01*
X126515765Y-105640643D01*
X126268000Y-105591360D01*
X123668000Y-105591360D01*
X123420235Y-105640643D01*
X123210191Y-105780991D01*
X123069843Y-105991035D01*
X123020560Y-106238800D01*
X123020560Y-107019479D01*
X122856549Y-107183490D01*
X122746333Y-107257134D01*
X122454587Y-107693763D01*
X122412080Y-107907463D01*
X122352140Y-108208800D01*
X122378000Y-108338806D01*
X122378001Y-119973071D01*
X122352140Y-120103082D01*
X122436145Y-120525399D01*
X122454588Y-120618120D01*
X122746334Y-121054749D01*
X122856550Y-121128393D01*
X123280886Y-121552729D01*
X123354532Y-121662948D01*
X123663942Y-121869689D01*
X123791159Y-121954693D01*
X123791160Y-121954693D01*
X123791161Y-121954694D01*
X124176191Y-122031281D01*
X124306198Y-122057141D01*
X124436205Y-122031281D01*
X127775440Y-122031281D01*
X127873001Y-122128843D01*
X127873001Y-122736237D01*
X126482690Y-124126549D01*
X126348379Y-124327560D01*
X125475000Y-124327560D01*
X125227235Y-124376843D01*
X125017191Y-124517191D01*
X124876843Y-124727235D01*
X124827560Y-124975000D01*
X124827560Y-125437759D01*
X119037102Y-119647303D01*
X119037102Y-119596870D01*
X119269127Y-119717368D01*
X119798590Y-119469221D01*
X120192788Y-119037347D01*
X120365058Y-118621426D01*
X120243917Y-118389400D01*
X119037100Y-118389400D01*
X119037100Y-118409400D01*
X118783100Y-118409400D01*
X118783100Y-118389400D01*
X118763100Y-118389400D01*
X118763100Y-118135400D01*
X118783100Y-118135400D01*
X118783100Y-115849400D01*
X119037100Y-115849400D01*
X119037100Y-118135400D01*
X120243917Y-118135400D01*
X120365058Y-117903374D01*
X120192788Y-117487453D01*
X119798590Y-117055579D01*
X119663787Y-116992400D01*
X119798590Y-116929221D01*
X120192788Y-116497347D01*
X120365058Y-116081426D01*
X120243917Y-115849400D01*
X119037100Y-115849400D01*
X118783100Y-115849400D01*
X118763100Y-115849400D01*
X118763100Y-115595400D01*
X118783100Y-115595400D01*
X118783100Y-115575400D01*
X119037100Y-115575400D01*
X119037100Y-115595400D01*
X120243917Y-115595400D01*
X120365058Y-115363374D01*
X120192788Y-114947453D01*
X119798590Y-114515579D01*
X119689079Y-114464254D01*
X119990530Y-114262830D01*
X120321750Y-113767125D01*
X120438059Y-113182400D01*
X120321750Y-112597675D01*
X119990530Y-112101970D01*
X119706819Y-111912400D01*
X119990530Y-111722830D01*
X120321750Y-111227125D01*
X120438059Y-110642400D01*
X120321750Y-110057675D01*
X119990530Y-109561970D01*
X119706819Y-109372400D01*
X119990530Y-109182830D01*
X120321750Y-108687125D01*
X120438059Y-108102400D01*
X120321750Y-107517675D01*
X119990530Y-107021970D01*
X119706819Y-106832400D01*
X119990530Y-106642830D01*
X120321750Y-106147125D01*
X120438059Y-105562400D01*
X120321750Y-104977675D01*
X119990530Y-104481970D01*
X119706819Y-104292400D01*
X119990530Y-104102830D01*
X120321750Y-103607125D01*
X120438059Y-103022400D01*
X120321750Y-102437675D01*
X119990530Y-101941970D01*
X119706819Y-101752400D01*
X119990530Y-101562830D01*
X120266384Y-101149986D01*
X121759673Y-102643276D01*
X121802071Y-102706729D01*
X121865524Y-102749127D01*
X121865526Y-102749129D01*
X121936789Y-102796745D01*
X122053463Y-102874704D01*
X122275148Y-102918800D01*
X122275152Y-102918800D01*
X122349999Y-102933688D01*
X122424846Y-102918800D01*
X123209419Y-102918800D01*
X123489231Y-103337569D01*
X124030055Y-103698936D01*
X124506969Y-103793800D01*
X125429031Y-103793800D01*
X125905945Y-103698936D01*
X126446769Y-103337569D01*
X126808136Y-102796745D01*
X126935031Y-102158800D01*
X126808136Y-101520855D01*
X126446769Y-100980031D01*
X126310232Y-100888800D01*
X126446769Y-100797569D01*
X126808136Y-100256745D01*
X126935031Y-99618800D01*
X126808136Y-98980855D01*
X126446769Y-98440031D01*
X126310232Y-98348800D01*
X126446769Y-98257569D01*
X126808136Y-97716745D01*
X126935031Y-97078800D01*
X126808136Y-96440855D01*
X126446769Y-95900031D01*
X125905945Y-95538664D01*
X125429031Y-95443800D01*
X124657349Y-95443800D01*
X125107149Y-94994000D01*
X127179153Y-94994000D01*
X127254000Y-95008888D01*
X127328847Y-94994000D01*
X127328852Y-94994000D01*
X127550537Y-94949904D01*
X127801929Y-94781929D01*
X127844331Y-94718470D01*
X130589110Y-91973691D01*
X131074000Y-91973691D01*
X131074000Y-92564250D01*
X131232750Y-92723000D01*
X132207000Y-92723000D01*
X132207000Y-91623750D01*
X132461000Y-91623750D01*
X132461000Y-92723000D01*
X133435250Y-92723000D01*
X133594000Y-92564250D01*
X133594000Y-91973691D01*
X133497327Y-91740302D01*
X133318699Y-91561673D01*
X133085310Y-91465000D01*
X132619750Y-91465000D01*
X132461000Y-91623750D01*
X132207000Y-91623750D01*
X132048250Y-91465000D01*
X131582690Y-91465000D01*
X131349301Y-91561673D01*
X131170673Y-91740302D01*
X131074000Y-91973691D01*
X130589110Y-91973691D01*
X134274403Y-88288400D01*
X143608475Y-88288400D01*
X143683322Y-88303288D01*
X143758169Y-88288400D01*
X143758174Y-88288400D01*
X143979859Y-88244304D01*
X144231251Y-88076329D01*
X144273653Y-88012870D01*
X144586071Y-87700452D01*
X144649530Y-87658050D01*
X144797632Y-87436400D01*
X144817505Y-87406659D01*
X144846844Y-87259160D01*
X147035088Y-87259160D01*
X147154222Y-87858087D01*
X147493487Y-88365833D01*
X148001233Y-88705098D01*
X148448978Y-88794160D01*
X148751342Y-88794160D01*
X149199087Y-88705098D01*
X149706833Y-88365833D01*
X150046098Y-87858087D01*
X150165232Y-87259160D01*
X150046098Y-86660233D01*
X149706833Y-86152487D01*
X149199087Y-85813222D01*
X148751342Y-85724160D01*
X148448978Y-85724160D01*
X148001233Y-85813222D01*
X147493487Y-86152487D01*
X147154222Y-86660233D01*
X147035088Y-87259160D01*
X144846844Y-87259160D01*
X144861601Y-87184973D01*
X144861601Y-87184969D01*
X144876489Y-87110121D01*
X144861601Y-87035273D01*
X144861601Y-83084967D01*
X144876489Y-83010119D01*
X144861601Y-82935271D01*
X144861601Y-82935267D01*
X144817505Y-82713582D01*
X144649530Y-82462190D01*
X144586074Y-82419790D01*
X142890331Y-80724048D01*
X142858894Y-80677000D01*
X144162300Y-80677000D01*
X144410065Y-80627717D01*
X144620109Y-80487369D01*
X144760457Y-80277325D01*
X144809740Y-80029560D01*
X144809740Y-80014560D01*
X145042560Y-80014560D01*
X147063637Y-82035637D01*
X147035088Y-82179160D01*
X147154222Y-82778087D01*
X147493487Y-83285833D01*
X148001233Y-83625098D01*
X148448978Y-83714160D01*
X148751342Y-83714160D01*
X149199087Y-83625098D01*
X149706833Y-83285833D01*
X150046098Y-82778087D01*
X150165232Y-82179160D01*
X150046098Y-81580233D01*
X149706833Y-81072487D01*
X149462397Y-80909160D01*
X149706833Y-80745833D01*
X150046098Y-80238087D01*
X150165232Y-79639160D01*
X150046098Y-79040233D01*
X149706833Y-78532487D01*
X149462397Y-78369160D01*
X149706833Y-78205833D01*
X150046098Y-77698087D01*
X150165232Y-77099160D01*
X150046098Y-76500233D01*
X149706833Y-75992487D01*
X149462397Y-75829160D01*
X149706833Y-75665833D01*
X150046098Y-75158087D01*
X150165232Y-74559160D01*
X150046098Y-73960233D01*
X149706833Y-73452487D01*
X149462397Y-73289160D01*
X149706833Y-73125833D01*
X150046098Y-72618087D01*
X150165232Y-72019160D01*
X150046098Y-71420233D01*
X149706833Y-70912487D01*
X149199087Y-70573222D01*
X148751342Y-70484160D01*
X148448978Y-70484160D01*
X148001233Y-70573222D01*
X147493487Y-70912487D01*
X147154222Y-71420233D01*
X147104451Y-71670451D01*
X146215658Y-70781658D01*
X146160705Y-70699415D01*
X145834888Y-70481711D01*
X145547572Y-70424560D01*
X145547568Y-70424560D01*
X145450560Y-70405264D01*
X145353552Y-70424560D01*
X144470541Y-70424560D01*
X144341069Y-70230791D01*
X143800245Y-69869424D01*
X143323331Y-69774560D01*
X142401269Y-69774560D01*
X141997299Y-69854915D01*
X141997299Y-66612699D01*
X142028361Y-66456540D01*
X142028361Y-66456537D01*
X142043249Y-66381690D01*
X142028361Y-66306843D01*
X142028361Y-63615303D01*
X143540000Y-63615303D01*
X143540000Y-64603897D01*
X143918319Y-65517239D01*
X144617361Y-66216281D01*
X145530703Y-66594600D01*
X146519297Y-66594600D01*
X147432639Y-66216281D01*
X148131681Y-65517239D01*
X148510000Y-64603897D01*
X148510000Y-63615303D01*
X148131681Y-62701961D01*
X147432639Y-62002919D01*
X146519297Y-61624600D01*
X145530703Y-61624600D01*
X144617361Y-62002919D01*
X143918319Y-62701961D01*
X143540000Y-63615303D01*
X142028361Y-63615303D01*
X142028359Y-59196101D01*
X142043248Y-59121248D01*
X141984264Y-58824711D01*
X141858689Y-58636775D01*
X141858686Y-58636772D01*
X141816288Y-58573319D01*
X141752835Y-58530921D01*
X140037443Y-56815530D01*
X139995041Y-56752071D01*
X139743649Y-56584096D01*
X139521964Y-56540000D01*
X139521959Y-56540000D01*
X139447112Y-56525112D01*
X139372265Y-56540000D01*
X131192402Y-56540000D01*
X126390331Y-51737930D01*
X126347929Y-51674471D01*
X126096537Y-51506496D01*
X125874852Y-51462400D01*
X125874847Y-51462400D01*
X125800000Y-51447512D01*
X125725153Y-51462400D01*
X122457444Y-51462400D01*
X122382597Y-51447512D01*
X122307750Y-51462400D01*
X122307746Y-51462400D01*
X122086061Y-51506496D01*
X121834669Y-51674471D01*
X121792269Y-51737927D01*
X120673530Y-52856667D01*
X120610071Y-52899069D01*
X120442096Y-53150462D01*
X120398000Y-53372147D01*
X120398000Y-53372151D01*
X120383112Y-53446998D01*
X120398000Y-53521845D01*
X120398001Y-59432516D01*
X119717100Y-58751616D01*
X119717100Y-53031408D01*
X119736396Y-52934400D01*
X119717100Y-52837392D01*
X119717100Y-52837388D01*
X119659949Y-52550072D01*
X119611161Y-52477055D01*
X119497198Y-52306497D01*
X119497196Y-52306495D01*
X119442245Y-52224255D01*
X119360005Y-52169304D01*
X118679540Y-51488839D01*
X118679540Y-48734400D01*
X118630257Y-48486635D01*
X118489909Y-48276591D01*
X118279865Y-48136243D01*
X118117100Y-48103867D01*
X118117100Y-46942280D01*
X118666960Y-46392421D01*
X118666960Y-46626980D01*
X118716243Y-46874745D01*
X118856591Y-47084789D01*
X119066635Y-47225137D01*
X119314400Y-47274420D01*
X121274400Y-47274420D01*
X121522165Y-47225137D01*
X121732209Y-47084789D01*
X121872557Y-46874745D01*
X121921840Y-46626980D01*
X121921840Y-43476980D01*
X121893334Y-43333670D01*
X123685466Y-43333670D01*
X123656960Y-43476980D01*
G36*
X116497100Y-115595400D02*
X116517100Y-115595400D01*
X116517100Y-115849400D01*
X116497100Y-115849400D01*
X116497100Y-118135400D01*
X116517100Y-118135400D01*
X116517100Y-118389400D01*
X116497100Y-118389400D01*
X116497100Y-118409400D01*
X116243100Y-118409400D01*
X116243100Y-118389400D01*
X116223100Y-118389400D01*
X116223100Y-118135400D01*
X116243100Y-118135400D01*
X116243100Y-115849400D01*
X116223100Y-115849400D01*
X116223100Y-115595400D01*
X116243100Y-115595400D01*
X116243100Y-115575400D01*
X116497100Y-115575400D01*
X116497100Y-115595400D01*
X116497100Y-115595400D01*
G37*
X116497100Y-115595400D02*
X116517100Y-115595400D01*
X116517100Y-115849400D01*
X116497100Y-115849400D01*
X116497100Y-118135400D01*
X116517100Y-118135400D01*
X116517100Y-118389400D01*
X116497100Y-118389400D01*
X116497100Y-118409400D01*
X116243100Y-118409400D01*
X116243100Y-118389400D01*
X116223100Y-118389400D01*
X116223100Y-118135400D01*
X116243100Y-118135400D01*
X116243100Y-115849400D01*
X116223100Y-115849400D01*
X116223100Y-115595400D01*
X116243100Y-115595400D01*
X116243100Y-115575400D01*
X116497100Y-115575400D01*
X116497100Y-115595400D01*
G36*
X140477300Y-66487603D02*
X140477299Y-80214714D01*
X140462411Y-80289561D01*
X140477299Y-80364408D01*
X140477299Y-80364412D01*
X140521395Y-80586097D01*
X140689370Y-80837490D01*
X140752828Y-80879892D01*
X141565929Y-81692993D01*
X141608327Y-81756447D01*
X141671780Y-81798845D01*
X141671782Y-81798847D01*
X141797158Y-81882620D01*
X141859719Y-81924422D01*
X141961311Y-81944630D01*
X142286476Y-82269795D01*
X142222595Y-82296256D01*
X142148461Y-82542375D01*
X142976600Y-83370515D01*
X142990742Y-83356372D01*
X143170348Y-83535978D01*
X143156205Y-83550120D01*
X143170348Y-83564263D01*
X142990743Y-83743868D01*
X142976600Y-83729725D01*
X142148461Y-84557865D01*
X142162787Y-84605427D01*
X141928835Y-84651963D01*
X141718791Y-84792311D01*
X141578443Y-85002355D01*
X141529160Y-85250120D01*
X141529160Y-86768400D01*
X134034446Y-86768400D01*
X133959599Y-86753512D01*
X133884752Y-86768400D01*
X133884748Y-86768400D01*
X133663063Y-86812496D01*
X133663061Y-86812497D01*
X133663062Y-86812497D01*
X133475126Y-86938071D01*
X133475124Y-86938073D01*
X133411671Y-86980471D01*
X133369273Y-87043924D01*
X130802074Y-89611124D01*
X130704350Y-89513400D01*
X129705100Y-89513400D01*
X129705100Y-90612650D01*
X129752824Y-90660374D01*
X126939199Y-93474000D01*
X125907417Y-93474000D01*
X126298022Y-93166717D01*
X126611244Y-92608755D01*
X126642224Y-92480834D01*
X126522877Y-92227400D01*
X124879100Y-92227400D01*
X124879100Y-92247400D01*
X124625100Y-92247400D01*
X124625100Y-92227400D01*
X122981323Y-92227400D01*
X122861976Y-92480834D01*
X122892956Y-92608755D01*
X123206178Y-93166717D01*
X123709080Y-93562342D01*
X124229418Y-93708520D01*
X124202018Y-93749527D01*
X122120545Y-95831001D01*
X120352805Y-95831001D01*
X120438059Y-95402400D01*
X120321750Y-94817675D01*
X119990530Y-94321970D01*
X119706819Y-94132400D01*
X119990530Y-93942830D01*
X120321750Y-93447125D01*
X120438059Y-92862400D01*
X120321750Y-92277675D01*
X119990530Y-91781970D01*
X119706819Y-91592400D01*
X119990530Y-91402830D01*
X120321750Y-90907125D01*
X120438059Y-90322400D01*
X120437661Y-90320400D01*
X122993519Y-90320400D01*
X123273331Y-90739169D01*
X123439729Y-90850352D01*
X123206178Y-91034083D01*
X122892956Y-91592045D01*
X122861976Y-91719966D01*
X122981323Y-91973400D01*
X124625100Y-91973400D01*
X124625100Y-91953400D01*
X124879100Y-91953400D01*
X124879100Y-91973400D01*
X126522877Y-91973400D01*
X126642224Y-91719966D01*
X126611244Y-91592045D01*
X126298022Y-91034083D01*
X126064471Y-90850352D01*
X126230869Y-90739169D01*
X126510681Y-90320400D01*
X126729253Y-90320400D01*
X126804100Y-90335288D01*
X126878947Y-90320400D01*
X126878952Y-90320400D01*
X127100637Y-90276304D01*
X127352029Y-90108329D01*
X127394431Y-90044870D01*
X127767151Y-89672150D01*
X128293100Y-89672150D01*
X128293100Y-90262709D01*
X128389773Y-90496098D01*
X128568401Y-90674727D01*
X128801790Y-90771400D01*
X129292350Y-90771400D01*
X129451100Y-90612650D01*
X129451100Y-89513400D01*
X128451850Y-89513400D01*
X128293100Y-89672150D01*
X127767151Y-89672150D01*
X128315876Y-89123426D01*
X128451850Y-89259400D01*
X129451100Y-89259400D01*
X129451100Y-89239400D01*
X129705100Y-89239400D01*
X129705100Y-89259400D01*
X130704350Y-89259400D01*
X130863100Y-89100650D01*
X130863100Y-88510091D01*
X130766427Y-88276702D01*
X130587799Y-88098073D01*
X130447891Y-88040121D01*
X130475865Y-88034557D01*
X130685909Y-87894209D01*
X130826257Y-87684165D01*
X130875540Y-87436400D01*
X130875540Y-86002400D01*
X138907753Y-86002400D01*
X138982600Y-86017288D01*
X139057447Y-86002400D01*
X139057452Y-86002400D01*
X139279137Y-85958304D01*
X139530529Y-85790329D01*
X139572931Y-85726871D01*
X139968572Y-85331229D01*
X140032029Y-85288829D01*
X140200004Y-85037437D01*
X140244100Y-84815752D01*
X140244100Y-84815748D01*
X140258988Y-84740901D01*
X140244100Y-84666054D01*
X140244100Y-83333343D01*
X141529635Y-83333343D01*
X141556822Y-83903574D01*
X141722736Y-84304125D01*
X141968855Y-84378259D01*
X142796995Y-83550120D01*
X141968855Y-82721981D01*
X141722736Y-82796115D01*
X141529635Y-83333343D01*
X140244100Y-83333343D01*
X140244100Y-73774846D01*
X140258988Y-73699999D01*
X140244100Y-73625152D01*
X140244100Y-73625148D01*
X140200004Y-73403463D01*
X140133191Y-73303470D01*
X140074429Y-73215526D01*
X140074427Y-73215524D01*
X140032029Y-73152071D01*
X139968576Y-73109673D01*
X138910000Y-72051099D01*
X138910000Y-71395451D01*
X139147765Y-71348157D01*
X139357809Y-71207809D01*
X139498157Y-70997765D01*
X139547440Y-70750000D01*
X139547440Y-69450000D01*
X139535056Y-69387740D01*
X139593340Y-69387740D01*
X139841105Y-69338457D01*
X140051149Y-69198109D01*
X140191497Y-68988065D01*
X140240780Y-68740300D01*
X140240780Y-68140300D01*
X140191497Y-67892535D01*
X140138572Y-67813328D01*
X140228340Y-67596609D01*
X140228340Y-67456050D01*
X140069590Y-67297300D01*
X138770340Y-67297300D01*
X138770340Y-67317300D01*
X138516340Y-67317300D01*
X138516340Y-67297300D01*
X138496340Y-67297300D01*
X138496340Y-67043300D01*
X138516340Y-67043300D01*
X138516340Y-67023300D01*
X138770340Y-67023300D01*
X138770340Y-67043300D01*
X140069590Y-67043300D01*
X140228340Y-66884550D01*
X140228340Y-66743991D01*
X140205640Y-66689188D01*
X140323487Y-66610445D01*
X140378440Y-66528202D01*
X140467634Y-66439008D01*
X140477300Y-66487603D01*
X140477300Y-66487603D01*
G37*
X140477300Y-66487603D02*
X140477299Y-80214714D01*
X140462411Y-80289561D01*
X140477299Y-80364408D01*
X140477299Y-80364412D01*
X140521395Y-80586097D01*
X140689370Y-80837490D01*
X140752828Y-80879892D01*
X141565929Y-81692993D01*
X141608327Y-81756447D01*
X141671780Y-81798845D01*
X141671782Y-81798847D01*
X141797158Y-81882620D01*
X141859719Y-81924422D01*
X141961311Y-81944630D01*
X142286476Y-82269795D01*
X142222595Y-82296256D01*
X142148461Y-82542375D01*
X142976600Y-83370515D01*
X142990742Y-83356372D01*
X143170348Y-83535978D01*
X143156205Y-83550120D01*
X143170348Y-83564263D01*
X142990743Y-83743868D01*
X142976600Y-83729725D01*
X142148461Y-84557865D01*
X142162787Y-84605427D01*
X141928835Y-84651963D01*
X141718791Y-84792311D01*
X141578443Y-85002355D01*
X141529160Y-85250120D01*
X141529160Y-86768400D01*
X134034446Y-86768400D01*
X133959599Y-86753512D01*
X133884752Y-86768400D01*
X133884748Y-86768400D01*
X133663063Y-86812496D01*
X133663061Y-86812497D01*
X133663062Y-86812497D01*
X133475126Y-86938071D01*
X133475124Y-86938073D01*
X133411671Y-86980471D01*
X133369273Y-87043924D01*
X130802074Y-89611124D01*
X130704350Y-89513400D01*
X129705100Y-89513400D01*
X129705100Y-90612650D01*
X129752824Y-90660374D01*
X126939199Y-93474000D01*
X125907417Y-93474000D01*
X126298022Y-93166717D01*
X126611244Y-92608755D01*
X126642224Y-92480834D01*
X126522877Y-92227400D01*
X124879100Y-92227400D01*
X124879100Y-92247400D01*
X124625100Y-92247400D01*
X124625100Y-92227400D01*
X122981323Y-92227400D01*
X122861976Y-92480834D01*
X122892956Y-92608755D01*
X123206178Y-93166717D01*
X123709080Y-93562342D01*
X124229418Y-93708520D01*
X124202018Y-93749527D01*
X122120545Y-95831001D01*
X120352805Y-95831001D01*
X120438059Y-95402400D01*
X120321750Y-94817675D01*
X119990530Y-94321970D01*
X119706819Y-94132400D01*
X119990530Y-93942830D01*
X120321750Y-93447125D01*
X120438059Y-92862400D01*
X120321750Y-92277675D01*
X119990530Y-91781970D01*
X119706819Y-91592400D01*
X119990530Y-91402830D01*
X120321750Y-90907125D01*
X120438059Y-90322400D01*
X120437661Y-90320400D01*
X122993519Y-90320400D01*
X123273331Y-90739169D01*
X123439729Y-90850352D01*
X123206178Y-91034083D01*
X122892956Y-91592045D01*
X122861976Y-91719966D01*
X122981323Y-91973400D01*
X124625100Y-91973400D01*
X124625100Y-91953400D01*
X124879100Y-91953400D01*
X124879100Y-91973400D01*
X126522877Y-91973400D01*
X126642224Y-91719966D01*
X126611244Y-91592045D01*
X126298022Y-91034083D01*
X126064471Y-90850352D01*
X126230869Y-90739169D01*
X126510681Y-90320400D01*
X126729253Y-90320400D01*
X126804100Y-90335288D01*
X126878947Y-90320400D01*
X126878952Y-90320400D01*
X127100637Y-90276304D01*
X127352029Y-90108329D01*
X127394431Y-90044870D01*
X127767151Y-89672150D01*
X128293100Y-89672150D01*
X128293100Y-90262709D01*
X128389773Y-90496098D01*
X128568401Y-90674727D01*
X128801790Y-90771400D01*
X129292350Y-90771400D01*
X129451100Y-90612650D01*
X129451100Y-89513400D01*
X128451850Y-89513400D01*
X128293100Y-89672150D01*
X127767151Y-89672150D01*
X128315876Y-89123426D01*
X128451850Y-89259400D01*
X129451100Y-89259400D01*
X129451100Y-89239400D01*
X129705100Y-89239400D01*
X129705100Y-89259400D01*
X130704350Y-89259400D01*
X130863100Y-89100650D01*
X130863100Y-88510091D01*
X130766427Y-88276702D01*
X130587799Y-88098073D01*
X130447891Y-88040121D01*
X130475865Y-88034557D01*
X130685909Y-87894209D01*
X130826257Y-87684165D01*
X130875540Y-87436400D01*
X130875540Y-86002400D01*
X138907753Y-86002400D01*
X138982600Y-86017288D01*
X139057447Y-86002400D01*
X139057452Y-86002400D01*
X139279137Y-85958304D01*
X139530529Y-85790329D01*
X139572931Y-85726871D01*
X139968572Y-85331229D01*
X140032029Y-85288829D01*
X140200004Y-85037437D01*
X140244100Y-84815752D01*
X140244100Y-84815748D01*
X140258988Y-84740901D01*
X140244100Y-84666054D01*
X140244100Y-83333343D01*
X141529635Y-83333343D01*
X141556822Y-83903574D01*
X141722736Y-84304125D01*
X141968855Y-84378259D01*
X142796995Y-83550120D01*
X141968855Y-82721981D01*
X141722736Y-82796115D01*
X141529635Y-83333343D01*
X140244100Y-83333343D01*
X140244100Y-73774846D01*
X140258988Y-73699999D01*
X140244100Y-73625152D01*
X140244100Y-73625148D01*
X140200004Y-73403463D01*
X140133191Y-73303470D01*
X140074429Y-73215526D01*
X140074427Y-73215524D01*
X140032029Y-73152071D01*
X139968576Y-73109673D01*
X138910000Y-72051099D01*
X138910000Y-71395451D01*
X139147765Y-71348157D01*
X139357809Y-71207809D01*
X139498157Y-70997765D01*
X139547440Y-70750000D01*
X139547440Y-69450000D01*
X139535056Y-69387740D01*
X139593340Y-69387740D01*
X139841105Y-69338457D01*
X140051149Y-69198109D01*
X140191497Y-68988065D01*
X140240780Y-68740300D01*
X140240780Y-68140300D01*
X140191497Y-67892535D01*
X140138572Y-67813328D01*
X140228340Y-67596609D01*
X140228340Y-67456050D01*
X140069590Y-67297300D01*
X138770340Y-67297300D01*
X138770340Y-67317300D01*
X138516340Y-67317300D01*
X138516340Y-67297300D01*
X138496340Y-67297300D01*
X138496340Y-67043300D01*
X138516340Y-67043300D01*
X138516340Y-67023300D01*
X138770340Y-67023300D01*
X138770340Y-67043300D01*
X140069590Y-67043300D01*
X140228340Y-66884550D01*
X140228340Y-66743991D01*
X140205640Y-66689188D01*
X140323487Y-66610445D01*
X140378440Y-66528202D01*
X140467634Y-66439008D01*
X140477300Y-66487603D01*
G36*
X133727560Y-79275000D02*
X133776843Y-79522765D01*
X133917191Y-79732809D01*
X134127235Y-79873157D01*
X134375000Y-79922440D01*
X135113258Y-79922440D01*
X135033138Y-80002560D01*
X134075000Y-80002560D01*
X133827235Y-80051843D01*
X133617191Y-80192191D01*
X133476843Y-80402235D01*
X133427560Y-80650000D01*
X133427560Y-81950000D01*
X133476843Y-82197765D01*
X133607968Y-82394006D01*
X133511673Y-82490301D01*
X133415000Y-82723690D01*
X133415000Y-83189250D01*
X133573750Y-83348000D01*
X134673000Y-83348000D01*
X134673000Y-83328000D01*
X134927000Y-83328000D01*
X134927000Y-83348000D01*
X134947000Y-83348000D01*
X134947000Y-83602000D01*
X134927000Y-83602000D01*
X134927000Y-83622000D01*
X134673000Y-83622000D01*
X134673000Y-83602000D01*
X133573750Y-83602000D01*
X133415000Y-83760750D01*
X133415000Y-84226310D01*
X133511673Y-84459699D01*
X133534374Y-84482400D01*
X122810466Y-84482400D01*
X122735618Y-84467512D01*
X122660770Y-84482400D01*
X122660766Y-84482400D01*
X122487223Y-84516920D01*
X122439080Y-84526496D01*
X122314601Y-84609671D01*
X122187689Y-84694471D01*
X122145289Y-84757927D01*
X121232216Y-85671001D01*
X120352805Y-85671001D01*
X120438059Y-85242400D01*
X120321750Y-84657675D01*
X119990530Y-84161970D01*
X119706819Y-83972400D01*
X119990530Y-83782830D01*
X120321750Y-83287125D01*
X120427646Y-82754748D01*
X121676781Y-84003883D01*
X121719181Y-84067339D01*
X121782637Y-84109739D01*
X121970572Y-84235314D01*
X122013436Y-84243840D01*
X122192258Y-84279410D01*
X122192262Y-84279410D01*
X122267110Y-84294298D01*
X122341958Y-84279410D01*
X128081443Y-84279410D01*
X128156290Y-84294298D01*
X128231137Y-84279410D01*
X128231142Y-84279410D01*
X128452827Y-84235314D01*
X128704219Y-84067339D01*
X128746621Y-84003880D01*
X132986584Y-79763918D01*
X133050040Y-79721518D01*
X133218015Y-79470126D01*
X133262111Y-79248441D01*
X133262111Y-79248437D01*
X133276999Y-79173589D01*
X133262111Y-79098741D01*
X133262111Y-78922690D01*
X133727560Y-78457241D01*
X133727560Y-79275000D01*
X133727560Y-79275000D01*
G37*
X133727560Y-79275000D02*
X133776843Y-79522765D01*
X133917191Y-79732809D01*
X134127235Y-79873157D01*
X134375000Y-79922440D01*
X135113258Y-79922440D01*
X135033138Y-80002560D01*
X134075000Y-80002560D01*
X133827235Y-80051843D01*
X133617191Y-80192191D01*
X133476843Y-80402235D01*
X133427560Y-80650000D01*
X133427560Y-81950000D01*
X133476843Y-82197765D01*
X133607968Y-82394006D01*
X133511673Y-82490301D01*
X133415000Y-82723690D01*
X133415000Y-83189250D01*
X133573750Y-83348000D01*
X134673000Y-83348000D01*
X134673000Y-83328000D01*
X134927000Y-83328000D01*
X134927000Y-83348000D01*
X134947000Y-83348000D01*
X134947000Y-83602000D01*
X134927000Y-83602000D01*
X134927000Y-83622000D01*
X134673000Y-83622000D01*
X134673000Y-83602000D01*
X133573750Y-83602000D01*
X133415000Y-83760750D01*
X133415000Y-84226310D01*
X133511673Y-84459699D01*
X133534374Y-84482400D01*
X122810466Y-84482400D01*
X122735618Y-84467512D01*
X122660770Y-84482400D01*
X122660766Y-84482400D01*
X122487223Y-84516920D01*
X122439080Y-84526496D01*
X122314601Y-84609671D01*
X122187689Y-84694471D01*
X122145289Y-84757927D01*
X121232216Y-85671001D01*
X120352805Y-85671001D01*
X120438059Y-85242400D01*
X120321750Y-84657675D01*
X119990530Y-84161970D01*
X119706819Y-83972400D01*
X119990530Y-83782830D01*
X120321750Y-83287125D01*
X120427646Y-82754748D01*
X121676781Y-84003883D01*
X121719181Y-84067339D01*
X121782637Y-84109739D01*
X121970572Y-84235314D01*
X122013436Y-84243840D01*
X122192258Y-84279410D01*
X122192262Y-84279410D01*
X122267110Y-84294298D01*
X122341958Y-84279410D01*
X128081443Y-84279410D01*
X128156290Y-84294298D01*
X128231137Y-84279410D01*
X128231142Y-84279410D01*
X128452827Y-84235314D01*
X128704219Y-84067339D01*
X128746621Y-84003880D01*
X132986584Y-79763918D01*
X133050040Y-79721518D01*
X133218015Y-79470126D01*
X133262111Y-79248441D01*
X133262111Y-79248437D01*
X133276999Y-79173589D01*
X133262111Y-79098741D01*
X133262111Y-78922690D01*
X133727560Y-78457241D01*
X133727560Y-79275000D01*
G36*
X138724101Y-84426097D02*
X138667799Y-84482400D01*
X138558196Y-84482400D01*
X138648157Y-84347765D01*
X138697440Y-84100000D01*
X138697440Y-82850000D01*
X138648157Y-82602235D01*
X138584472Y-82506925D01*
X138724101Y-82413628D01*
X138724101Y-84426097D01*
X138724101Y-84426097D01*
G37*
X138724101Y-84426097D02*
X138667799Y-84482400D01*
X138558196Y-84482400D01*
X138648157Y-84347765D01*
X138697440Y-84100000D01*
X138697440Y-82850000D01*
X138648157Y-82602235D01*
X138584472Y-82506925D01*
X138724101Y-82413628D01*
X138724101Y-84426097D01*
G36*
X120645563Y-80370304D02*
X120867248Y-80414400D01*
X120867253Y-80414400D01*
X120942100Y-80429288D01*
X121016947Y-80414400D01*
X122485519Y-80414400D01*
X122765331Y-80833169D01*
X122931729Y-80944352D01*
X122698178Y-81128083D01*
X122384956Y-81686045D01*
X122353976Y-81813966D01*
X122473323Y-82067400D01*
X124117100Y-82067400D01*
X124117100Y-82047400D01*
X124371100Y-82047400D01*
X124371100Y-82067400D01*
X126014877Y-82067400D01*
X126134224Y-81813966D01*
X126103244Y-81686045D01*
X125790022Y-81128083D01*
X125556471Y-80944352D01*
X125722869Y-80833169D01*
X126002681Y-80414400D01*
X127809259Y-80414400D01*
X127821943Y-80478165D01*
X127962291Y-80688209D01*
X128172335Y-80828557D01*
X128420100Y-80877840D01*
X129720100Y-80877840D01*
X129723793Y-80877105D01*
X127841489Y-82759410D01*
X126071440Y-82759410D01*
X126103244Y-82702755D01*
X126134224Y-82574834D01*
X126014877Y-82321400D01*
X124371100Y-82321400D01*
X124371100Y-82341400D01*
X124117100Y-82341400D01*
X124117100Y-82321400D01*
X122473323Y-82321400D01*
X122367858Y-82545356D01*
X120364032Y-80541531D01*
X120364028Y-80541525D01*
X120362876Y-80540373D01*
X120425900Y-80223529D01*
X120645563Y-80370304D01*
X120645563Y-80370304D01*
G37*
X120645563Y-80370304D02*
X120867248Y-80414400D01*
X120867253Y-80414400D01*
X120942100Y-80429288D01*
X121016947Y-80414400D01*
X122485519Y-80414400D01*
X122765331Y-80833169D01*
X122931729Y-80944352D01*
X122698178Y-81128083D01*
X122384956Y-81686045D01*
X122353976Y-81813966D01*
X122473323Y-82067400D01*
X124117100Y-82067400D01*
X124117100Y-82047400D01*
X124371100Y-82047400D01*
X124371100Y-82067400D01*
X126014877Y-82067400D01*
X126134224Y-81813966D01*
X126103244Y-81686045D01*
X125790022Y-81128083D01*
X125556471Y-80944352D01*
X125722869Y-80833169D01*
X126002681Y-80414400D01*
X127809259Y-80414400D01*
X127821943Y-80478165D01*
X127962291Y-80688209D01*
X128172335Y-80828557D01*
X128420100Y-80877840D01*
X129720100Y-80877840D01*
X129723793Y-80877105D01*
X127841489Y-82759410D01*
X126071440Y-82759410D01*
X126103244Y-82702755D01*
X126134224Y-82574834D01*
X126014877Y-82321400D01*
X124371100Y-82321400D01*
X124371100Y-82341400D01*
X124117100Y-82341400D01*
X124117100Y-82321400D01*
X122473323Y-82321400D01*
X122367858Y-82545356D01*
X120364032Y-80541531D01*
X120364028Y-80541525D01*
X120362876Y-80540373D01*
X120425900Y-80223529D01*
X120645563Y-80370304D01*
G36*
X136266660Y-60588400D02*
X136315943Y-60836165D01*
X136456291Y-61046209D01*
X136604589Y-61145300D01*
X136373964Y-61490455D01*
X136247069Y-62128400D01*
X136373964Y-62766345D01*
X136735331Y-63307169D01*
X137276155Y-63668536D01*
X137516315Y-63716307D01*
X137333641Y-63791973D01*
X137155013Y-63970602D01*
X137058340Y-64203991D01*
X137058340Y-64344550D01*
X137217090Y-64503300D01*
X138516340Y-64503300D01*
X138516340Y-64483300D01*
X138770340Y-64483300D01*
X138770340Y-64503300D01*
X138790340Y-64503300D01*
X138790340Y-64757300D01*
X138770340Y-64757300D01*
X138770340Y-64777300D01*
X138516340Y-64777300D01*
X138516340Y-64757300D01*
X137407260Y-64757300D01*
X137269650Y-64700300D01*
X136229090Y-64700300D01*
X136070340Y-64859050D01*
X136070340Y-66408300D01*
X136090340Y-66408300D01*
X136090340Y-66662300D01*
X136070340Y-66662300D01*
X136070340Y-68211550D01*
X136229090Y-68370300D01*
X137045900Y-68370300D01*
X137045900Y-68740300D01*
X137077959Y-68901473D01*
X136942191Y-68992191D01*
X136801843Y-69202235D01*
X136796279Y-69230209D01*
X136738327Y-69090301D01*
X136559698Y-68911673D01*
X136326309Y-68815000D01*
X135735750Y-68815000D01*
X135577000Y-68973750D01*
X135577000Y-69973000D01*
X135597000Y-69973000D01*
X135597000Y-70227000D01*
X135577000Y-70227000D01*
X135577000Y-71226250D01*
X135735750Y-71385000D01*
X136326309Y-71385000D01*
X136559698Y-71288327D01*
X136738327Y-71109699D01*
X136796279Y-70969791D01*
X136801843Y-70997765D01*
X136942191Y-71207809D01*
X137152235Y-71348157D01*
X137390001Y-71395451D01*
X137390001Y-72291048D01*
X137375112Y-72365900D01*
X137386650Y-72423904D01*
X137220922Y-72128683D01*
X136718020Y-71733058D01*
X136102000Y-71560000D01*
X135802000Y-71560000D01*
X135802000Y-73068000D01*
X137445777Y-73068000D01*
X137552979Y-72840356D01*
X137558187Y-72848150D01*
X137602072Y-72913829D01*
X137665528Y-72956229D01*
X138724100Y-74014803D01*
X138724101Y-80186372D01*
X138566536Y-80081090D01*
X138567101Y-80078251D01*
X138567101Y-80078247D01*
X138581989Y-80003400D01*
X138567101Y-79928553D01*
X138567101Y-77193449D01*
X138581989Y-77118601D01*
X138567101Y-77043753D01*
X138567101Y-77043749D01*
X138528067Y-76847512D01*
X138523005Y-76822063D01*
X138397430Y-76634128D01*
X138355030Y-76570672D01*
X138291574Y-76528272D01*
X137690331Y-75927030D01*
X137647929Y-75863571D01*
X137620149Y-75845009D01*
X137642031Y-75735000D01*
X137515136Y-75097055D01*
X137153769Y-74556231D01*
X136987371Y-74445048D01*
X137220922Y-74261317D01*
X137534144Y-73703355D01*
X137565124Y-73575434D01*
X137445777Y-73322000D01*
X135802000Y-73322000D01*
X135802000Y-73342000D01*
X135548000Y-73342000D01*
X135548000Y-73322000D01*
X133904223Y-73322000D01*
X133784876Y-73575434D01*
X133815856Y-73703355D01*
X134129078Y-74261317D01*
X134362629Y-74445048D01*
X134196231Y-74556231D01*
X133834864Y-75097055D01*
X133707969Y-75735000D01*
X133806226Y-76228972D01*
X132017639Y-78017560D01*
X131954183Y-78059960D01*
X131862100Y-78197771D01*
X131862100Y-76432987D01*
X131974865Y-76410557D01*
X132184909Y-76270209D01*
X132325257Y-76060165D01*
X132374540Y-75812400D01*
X132374540Y-74312400D01*
X132325257Y-74064635D01*
X132184909Y-73854591D01*
X132123780Y-73813746D01*
X132265427Y-73672098D01*
X132362100Y-73438709D01*
X132362100Y-72848150D01*
X132328516Y-72814566D01*
X133784876Y-72814566D01*
X133904223Y-73068000D01*
X135548000Y-73068000D01*
X135548000Y-71560000D01*
X135248000Y-71560000D01*
X134631980Y-71733058D01*
X134129078Y-72128683D01*
X133815856Y-72686645D01*
X133784876Y-72814566D01*
X132328516Y-72814566D01*
X132203350Y-72689400D01*
X131229100Y-72689400D01*
X131229100Y-72709400D01*
X130975100Y-72709400D01*
X130975100Y-72689400D01*
X130000850Y-72689400D01*
X129842100Y-72848150D01*
X129842100Y-73438709D01*
X129938773Y-73672098D01*
X130080420Y-73813746D01*
X130019291Y-73854591D01*
X129878943Y-74064635D01*
X129829660Y-74312400D01*
X129829660Y-75404753D01*
X129720100Y-75382960D01*
X128668354Y-75382960D01*
X128784799Y-75334727D01*
X128963427Y-75156098D01*
X129060100Y-74922709D01*
X129060100Y-74332150D01*
X128901350Y-74173400D01*
X127927100Y-74173400D01*
X127927100Y-75272650D01*
X128085850Y-75431400D01*
X128176573Y-75431400D01*
X128172335Y-75432243D01*
X127962291Y-75572591D01*
X127821943Y-75782635D01*
X127772660Y-76030400D01*
X127772660Y-76354400D01*
X126191540Y-76354400D01*
X126191540Y-76114400D01*
X126142257Y-75866635D01*
X126001909Y-75656591D01*
X125791865Y-75516243D01*
X125687765Y-75495536D01*
X125838352Y-75344950D01*
X125901808Y-75302550D01*
X126069783Y-75051158D01*
X126113879Y-74829473D01*
X126113879Y-74829469D01*
X126128767Y-74754621D01*
X126113879Y-74679773D01*
X126113879Y-74332150D01*
X126540100Y-74332150D01*
X126540100Y-74922709D01*
X126636773Y-75156098D01*
X126815401Y-75334727D01*
X127048790Y-75431400D01*
X127514350Y-75431400D01*
X127673100Y-75272650D01*
X127673100Y-74173400D01*
X126698850Y-74173400D01*
X126540100Y-74332150D01*
X126113879Y-74332150D01*
X126113879Y-71809981D01*
X126334771Y-72030873D01*
X126377171Y-72094329D01*
X126527660Y-72194883D01*
X126527660Y-72296400D01*
X126576943Y-72544165D01*
X126717291Y-72754209D01*
X126778420Y-72795054D01*
X126636773Y-72936702D01*
X126540100Y-73170091D01*
X126540100Y-73760650D01*
X126698850Y-73919400D01*
X127673100Y-73919400D01*
X127673100Y-73899400D01*
X127927100Y-73899400D01*
X127927100Y-73919400D01*
X128901350Y-73919400D01*
X129060100Y-73760650D01*
X129060100Y-73170091D01*
X128963427Y-72936702D01*
X128821780Y-72795054D01*
X128882909Y-72754209D01*
X129023257Y-72544165D01*
X129072540Y-72296400D01*
X129072540Y-71223762D01*
X129114331Y-71181971D01*
X130339755Y-71181971D01*
X130117401Y-71274073D01*
X129938773Y-71452702D01*
X129842100Y-71686091D01*
X129842100Y-72276650D01*
X130000850Y-72435400D01*
X130975100Y-72435400D01*
X130975100Y-72415400D01*
X131229100Y-72415400D01*
X131229100Y-72435400D01*
X132203350Y-72435400D01*
X132362100Y-72276650D01*
X132362100Y-71686091D01*
X132265427Y-71452702D01*
X132086799Y-71274073D01*
X131871606Y-71184937D01*
X131886516Y-71181971D01*
X131886521Y-71181971D01*
X132108206Y-71137875D01*
X132229705Y-71056692D01*
X132349560Y-71176547D01*
X132858606Y-71387400D01*
X133409594Y-71387400D01*
X133918640Y-71176547D01*
X134110070Y-70985117D01*
X134161673Y-71109699D01*
X134340302Y-71288327D01*
X134573691Y-71385000D01*
X135164250Y-71385000D01*
X135323000Y-71226250D01*
X135323000Y-70227000D01*
X135303000Y-70227000D01*
X135303000Y-69973000D01*
X135323000Y-69973000D01*
X135323000Y-68973750D01*
X135164250Y-68815000D01*
X134825921Y-68815000D01*
X134840780Y-68740300D01*
X134840780Y-68370300D01*
X135657590Y-68370300D01*
X135816340Y-68211550D01*
X135816340Y-66662300D01*
X135796340Y-66662300D01*
X135796340Y-66408300D01*
X135816340Y-66408300D01*
X135816340Y-64859050D01*
X135657590Y-64700300D01*
X134840780Y-64700300D01*
X134840780Y-64330300D01*
X134791497Y-64082535D01*
X134651149Y-63872491D01*
X134441105Y-63732143D01*
X134193340Y-63682860D01*
X133891823Y-63682860D01*
X133833669Y-63595827D01*
X133791269Y-63532371D01*
X133727813Y-63489971D01*
X133727002Y-63489160D01*
X133727002Y-63346092D01*
X133885750Y-63504840D01*
X134476309Y-63504840D01*
X134709698Y-63408167D01*
X134888327Y-63229539D01*
X134985000Y-62996150D01*
X134985000Y-62505590D01*
X134826250Y-62346840D01*
X133727000Y-62346840D01*
X133727000Y-62366840D01*
X133473000Y-62366840D01*
X133473000Y-62346840D01*
X133453000Y-62346840D01*
X133453000Y-62092840D01*
X133473000Y-62092840D01*
X133473000Y-61093590D01*
X133727000Y-61093590D01*
X133727000Y-62092840D01*
X134826250Y-62092840D01*
X134985000Y-61934090D01*
X134985000Y-61443530D01*
X134888327Y-61210141D01*
X134709698Y-61031513D01*
X134476309Y-60934840D01*
X133885750Y-60934840D01*
X133727000Y-61093590D01*
X133473000Y-61093590D01*
X133314250Y-60934840D01*
X132723691Y-60934840D01*
X132490302Y-61031513D01*
X132311673Y-61210141D01*
X132253721Y-61350049D01*
X132248157Y-61322075D01*
X132107809Y-61112031D01*
X131897765Y-60971683D01*
X131650000Y-60922400D01*
X130508101Y-60922400D01*
X130569661Y-60860840D01*
X131324100Y-60860840D01*
X131571865Y-60811557D01*
X131781909Y-60671209D01*
X131847263Y-60573400D01*
X136266660Y-60573400D01*
X136266660Y-60588400D01*
X136266660Y-60588400D01*
G37*
X136266660Y-60588400D02*
X136315943Y-60836165D01*
X136456291Y-61046209D01*
X136604589Y-61145300D01*
X136373964Y-61490455D01*
X136247069Y-62128400D01*
X136373964Y-62766345D01*
X136735331Y-63307169D01*
X137276155Y-63668536D01*
X137516315Y-63716307D01*
X137333641Y-63791973D01*
X137155013Y-63970602D01*
X137058340Y-64203991D01*
X137058340Y-64344550D01*
X137217090Y-64503300D01*
X138516340Y-64503300D01*
X138516340Y-64483300D01*
X138770340Y-64483300D01*
X138770340Y-64503300D01*
X138790340Y-64503300D01*
X138790340Y-64757300D01*
X138770340Y-64757300D01*
X138770340Y-64777300D01*
X138516340Y-64777300D01*
X138516340Y-64757300D01*
X137407260Y-64757300D01*
X137269650Y-64700300D01*
X136229090Y-64700300D01*
X136070340Y-64859050D01*
X136070340Y-66408300D01*
X136090340Y-66408300D01*
X136090340Y-66662300D01*
X136070340Y-66662300D01*
X136070340Y-68211550D01*
X136229090Y-68370300D01*
X137045900Y-68370300D01*
X137045900Y-68740300D01*
X137077959Y-68901473D01*
X136942191Y-68992191D01*
X136801843Y-69202235D01*
X136796279Y-69230209D01*
X136738327Y-69090301D01*
X136559698Y-68911673D01*
X136326309Y-68815000D01*
X135735750Y-68815000D01*
X135577000Y-68973750D01*
X135577000Y-69973000D01*
X135597000Y-69973000D01*
X135597000Y-70227000D01*
X135577000Y-70227000D01*
X135577000Y-71226250D01*
X135735750Y-71385000D01*
X136326309Y-71385000D01*
X136559698Y-71288327D01*
X136738327Y-71109699D01*
X136796279Y-70969791D01*
X136801843Y-70997765D01*
X136942191Y-71207809D01*
X137152235Y-71348157D01*
X137390001Y-71395451D01*
X137390001Y-72291048D01*
X137375112Y-72365900D01*
X137386650Y-72423904D01*
X137220922Y-72128683D01*
X136718020Y-71733058D01*
X136102000Y-71560000D01*
X135802000Y-71560000D01*
X135802000Y-73068000D01*
X137445777Y-73068000D01*
X137552979Y-72840356D01*
X137558187Y-72848150D01*
X137602072Y-72913829D01*
X137665528Y-72956229D01*
X138724100Y-74014803D01*
X138724101Y-80186372D01*
X138566536Y-80081090D01*
X138567101Y-80078251D01*
X138567101Y-80078247D01*
X138581989Y-80003400D01*
X138567101Y-79928553D01*
X138567101Y-77193449D01*
X138581989Y-77118601D01*
X138567101Y-77043753D01*
X138567101Y-77043749D01*
X138528067Y-76847512D01*
X138523005Y-76822063D01*
X138397430Y-76634128D01*
X138355030Y-76570672D01*
X138291574Y-76528272D01*
X137690331Y-75927030D01*
X137647929Y-75863571D01*
X137620149Y-75845009D01*
X137642031Y-75735000D01*
X137515136Y-75097055D01*
X137153769Y-74556231D01*
X136987371Y-74445048D01*
X137220922Y-74261317D01*
X137534144Y-73703355D01*
X137565124Y-73575434D01*
X137445777Y-73322000D01*
X135802000Y-73322000D01*
X135802000Y-73342000D01*
X135548000Y-73342000D01*
X135548000Y-73322000D01*
X133904223Y-73322000D01*
X133784876Y-73575434D01*
X133815856Y-73703355D01*
X134129078Y-74261317D01*
X134362629Y-74445048D01*
X134196231Y-74556231D01*
X133834864Y-75097055D01*
X133707969Y-75735000D01*
X133806226Y-76228972D01*
X132017639Y-78017560D01*
X131954183Y-78059960D01*
X131862100Y-78197771D01*
X131862100Y-76432987D01*
X131974865Y-76410557D01*
X132184909Y-76270209D01*
X132325257Y-76060165D01*
X132374540Y-75812400D01*
X132374540Y-74312400D01*
X132325257Y-74064635D01*
X132184909Y-73854591D01*
X132123780Y-73813746D01*
X132265427Y-73672098D01*
X132362100Y-73438709D01*
X132362100Y-72848150D01*
X132328516Y-72814566D01*
X133784876Y-72814566D01*
X133904223Y-73068000D01*
X135548000Y-73068000D01*
X135548000Y-71560000D01*
X135248000Y-71560000D01*
X134631980Y-71733058D01*
X134129078Y-72128683D01*
X133815856Y-72686645D01*
X133784876Y-72814566D01*
X132328516Y-72814566D01*
X132203350Y-72689400D01*
X131229100Y-72689400D01*
X131229100Y-72709400D01*
X130975100Y-72709400D01*
X130975100Y-72689400D01*
X130000850Y-72689400D01*
X129842100Y-72848150D01*
X129842100Y-73438709D01*
X129938773Y-73672098D01*
X130080420Y-73813746D01*
X130019291Y-73854591D01*
X129878943Y-74064635D01*
X129829660Y-74312400D01*
X129829660Y-75404753D01*
X129720100Y-75382960D01*
X128668354Y-75382960D01*
X128784799Y-75334727D01*
X128963427Y-75156098D01*
X129060100Y-74922709D01*
X129060100Y-74332150D01*
X128901350Y-74173400D01*
X127927100Y-74173400D01*
X127927100Y-75272650D01*
X128085850Y-75431400D01*
X128176573Y-75431400D01*
X128172335Y-75432243D01*
X127962291Y-75572591D01*
X127821943Y-75782635D01*
X127772660Y-76030400D01*
X127772660Y-76354400D01*
X126191540Y-76354400D01*
X126191540Y-76114400D01*
X126142257Y-75866635D01*
X126001909Y-75656591D01*
X125791865Y-75516243D01*
X125687765Y-75495536D01*
X125838352Y-75344950D01*
X125901808Y-75302550D01*
X126069783Y-75051158D01*
X126113879Y-74829473D01*
X126113879Y-74829469D01*
X126128767Y-74754621D01*
X126113879Y-74679773D01*
X126113879Y-74332150D01*
X126540100Y-74332150D01*
X126540100Y-74922709D01*
X126636773Y-75156098D01*
X126815401Y-75334727D01*
X127048790Y-75431400D01*
X127514350Y-75431400D01*
X127673100Y-75272650D01*
X127673100Y-74173400D01*
X126698850Y-74173400D01*
X126540100Y-74332150D01*
X126113879Y-74332150D01*
X126113879Y-71809981D01*
X126334771Y-72030873D01*
X126377171Y-72094329D01*
X126527660Y-72194883D01*
X126527660Y-72296400D01*
X126576943Y-72544165D01*
X126717291Y-72754209D01*
X126778420Y-72795054D01*
X126636773Y-72936702D01*
X126540100Y-73170091D01*
X126540100Y-73760650D01*
X126698850Y-73919400D01*
X127673100Y-73919400D01*
X127673100Y-73899400D01*
X127927100Y-73899400D01*
X127927100Y-73919400D01*
X128901350Y-73919400D01*
X129060100Y-73760650D01*
X129060100Y-73170091D01*
X128963427Y-72936702D01*
X128821780Y-72795054D01*
X128882909Y-72754209D01*
X129023257Y-72544165D01*
X129072540Y-72296400D01*
X129072540Y-71223762D01*
X129114331Y-71181971D01*
X130339755Y-71181971D01*
X130117401Y-71274073D01*
X129938773Y-71452702D01*
X129842100Y-71686091D01*
X129842100Y-72276650D01*
X130000850Y-72435400D01*
X130975100Y-72435400D01*
X130975100Y-72415400D01*
X131229100Y-72415400D01*
X131229100Y-72435400D01*
X132203350Y-72435400D01*
X132362100Y-72276650D01*
X132362100Y-71686091D01*
X132265427Y-71452702D01*
X132086799Y-71274073D01*
X131871606Y-71184937D01*
X131886516Y-71181971D01*
X131886521Y-71181971D01*
X132108206Y-71137875D01*
X132229705Y-71056692D01*
X132349560Y-71176547D01*
X132858606Y-71387400D01*
X133409594Y-71387400D01*
X133918640Y-71176547D01*
X134110070Y-70985117D01*
X134161673Y-71109699D01*
X134340302Y-71288327D01*
X134573691Y-71385000D01*
X135164250Y-71385000D01*
X135323000Y-71226250D01*
X135323000Y-70227000D01*
X135303000Y-70227000D01*
X135303000Y-69973000D01*
X135323000Y-69973000D01*
X135323000Y-68973750D01*
X135164250Y-68815000D01*
X134825921Y-68815000D01*
X134840780Y-68740300D01*
X134840780Y-68370300D01*
X135657590Y-68370300D01*
X135816340Y-68211550D01*
X135816340Y-66662300D01*
X135796340Y-66662300D01*
X135796340Y-66408300D01*
X135816340Y-66408300D01*
X135816340Y-64859050D01*
X135657590Y-64700300D01*
X134840780Y-64700300D01*
X134840780Y-64330300D01*
X134791497Y-64082535D01*
X134651149Y-63872491D01*
X134441105Y-63732143D01*
X134193340Y-63682860D01*
X133891823Y-63682860D01*
X133833669Y-63595827D01*
X133791269Y-63532371D01*
X133727813Y-63489971D01*
X133727002Y-63489160D01*
X133727002Y-63346092D01*
X133885750Y-63504840D01*
X134476309Y-63504840D01*
X134709698Y-63408167D01*
X134888327Y-63229539D01*
X134985000Y-62996150D01*
X134985000Y-62505590D01*
X134826250Y-62346840D01*
X133727000Y-62346840D01*
X133727000Y-62366840D01*
X133473000Y-62366840D01*
X133473000Y-62346840D01*
X133453000Y-62346840D01*
X133453000Y-62092840D01*
X133473000Y-62092840D01*
X133473000Y-61093590D01*
X133727000Y-61093590D01*
X133727000Y-62092840D01*
X134826250Y-62092840D01*
X134985000Y-61934090D01*
X134985000Y-61443530D01*
X134888327Y-61210141D01*
X134709698Y-61031513D01*
X134476309Y-60934840D01*
X133885750Y-60934840D01*
X133727000Y-61093590D01*
X133473000Y-61093590D01*
X133314250Y-60934840D01*
X132723691Y-60934840D01*
X132490302Y-61031513D01*
X132311673Y-61210141D01*
X132253721Y-61350049D01*
X132248157Y-61322075D01*
X132107809Y-61112031D01*
X131897765Y-60971683D01*
X131650000Y-60922400D01*
X130508101Y-60922400D01*
X130569661Y-60860840D01*
X131324100Y-60860840D01*
X131571865Y-60811557D01*
X131781909Y-60671209D01*
X131847263Y-60573400D01*
X136266660Y-60573400D01*
X136266660Y-60588400D01*
G36*
X123219076Y-69571900D02*
X123114730Y-69571900D01*
X122955980Y-69730650D01*
X122955980Y-69981775D01*
X122865553Y-70072201D01*
X122768880Y-70305590D01*
X122768880Y-70456900D01*
X122701980Y-70456900D01*
X122701980Y-70394400D01*
X122701882Y-70394400D01*
X122701882Y-70269400D01*
X122701980Y-70269400D01*
X122701980Y-69730650D01*
X122543230Y-69571900D01*
X122352671Y-69571900D01*
X122119282Y-69668573D01*
X121940653Y-69847201D01*
X121843980Y-70080590D01*
X121843980Y-70110650D01*
X122002730Y-70269400D01*
X122018355Y-70269400D01*
X121940555Y-70347200D01*
X121863215Y-70533915D01*
X121843980Y-70553150D01*
X121843980Y-70580352D01*
X121843882Y-70580589D01*
X121843882Y-70610649D01*
X121863452Y-70630219D01*
X121940653Y-70816599D01*
X121955903Y-70831849D01*
X121940555Y-70847197D01*
X121863283Y-71033748D01*
X121843882Y-71053149D01*
X121843882Y-71110646D01*
X121863283Y-71130047D01*
X121873695Y-71155183D01*
X121744408Y-71241569D01*
X121744406Y-71241571D01*
X121680953Y-71283969D01*
X121638555Y-71347422D01*
X120436689Y-72549290D01*
X120438059Y-72542400D01*
X120321750Y-71957675D01*
X119990530Y-71461970D01*
X119706819Y-71272400D01*
X119990530Y-71082830D01*
X120321750Y-70587125D01*
X120438059Y-70002400D01*
X120321750Y-69417675D01*
X119990530Y-68921970D01*
X119706819Y-68732400D01*
X119990530Y-68542830D01*
X120051961Y-68450892D01*
X120131414Y-68466696D01*
X120228422Y-68447400D01*
X120228426Y-68447400D01*
X120515742Y-68390249D01*
X120766946Y-68222400D01*
X121869577Y-68222400D01*
X123219076Y-69571900D01*
X123219076Y-69571900D01*
G37*
X123219076Y-69571900D02*
X123114730Y-69571900D01*
X122955980Y-69730650D01*
X122955980Y-69981775D01*
X122865553Y-70072201D01*
X122768880Y-70305590D01*
X122768880Y-70456900D01*
X122701980Y-70456900D01*
X122701980Y-70394400D01*
X122701882Y-70394400D01*
X122701882Y-70269400D01*
X122701980Y-70269400D01*
X122701980Y-69730650D01*
X122543230Y-69571900D01*
X122352671Y-69571900D01*
X122119282Y-69668573D01*
X121940653Y-69847201D01*
X121843980Y-70080590D01*
X121843980Y-70110650D01*
X122002730Y-70269400D01*
X122018355Y-70269400D01*
X121940555Y-70347200D01*
X121863215Y-70533915D01*
X121843980Y-70553150D01*
X121843980Y-70580352D01*
X121843882Y-70580589D01*
X121843882Y-70610649D01*
X121863452Y-70630219D01*
X121940653Y-70816599D01*
X121955903Y-70831849D01*
X121940555Y-70847197D01*
X121863283Y-71033748D01*
X121843882Y-71053149D01*
X121843882Y-71110646D01*
X121863283Y-71130047D01*
X121873695Y-71155183D01*
X121744408Y-71241569D01*
X121744406Y-71241571D01*
X121680953Y-71283969D01*
X121638555Y-71347422D01*
X120436689Y-72549290D01*
X120438059Y-72542400D01*
X120321750Y-71957675D01*
X119990530Y-71461970D01*
X119706819Y-71272400D01*
X119990530Y-71082830D01*
X120321750Y-70587125D01*
X120438059Y-70002400D01*
X120321750Y-69417675D01*
X119990530Y-68921970D01*
X119706819Y-68732400D01*
X119990530Y-68542830D01*
X120051961Y-68450892D01*
X120131414Y-68466696D01*
X120228422Y-68447400D01*
X120228426Y-68447400D01*
X120515742Y-68390249D01*
X120766946Y-68222400D01*
X121869577Y-68222400D01*
X123219076Y-69571900D01*
G36*
X127810100Y-65926650D02*
X127968850Y-66085400D01*
X128943100Y-66085400D01*
X128943100Y-66065400D01*
X129197100Y-66065400D01*
X129197100Y-66085400D01*
X130171350Y-66085400D01*
X130330100Y-65926650D01*
X130330100Y-65390300D01*
X131693006Y-65390300D01*
X131658340Y-65473991D01*
X131658340Y-65614550D01*
X131817090Y-65773300D01*
X133116340Y-65773300D01*
X133116340Y-65753300D01*
X133370340Y-65753300D01*
X133370340Y-65773300D01*
X133390340Y-65773300D01*
X133390340Y-66027300D01*
X133370340Y-66027300D01*
X133370340Y-66047300D01*
X133116340Y-66047300D01*
X133116340Y-66027300D01*
X131817090Y-66027300D01*
X131658340Y-66186050D01*
X131658340Y-66326609D01*
X131693006Y-66410300D01*
X131562048Y-66410300D01*
X131487200Y-66395412D01*
X131412352Y-66410300D01*
X131412348Y-66410300D01*
X131238805Y-66444820D01*
X131190662Y-66454396D01*
X131032619Y-66559998D01*
X130939271Y-66622371D01*
X130896871Y-66685827D01*
X130108069Y-67474630D01*
X130091780Y-67463746D01*
X130233427Y-67322098D01*
X130330100Y-67088709D01*
X130330100Y-66498150D01*
X130171350Y-66339400D01*
X129197100Y-66339400D01*
X129197100Y-66359400D01*
X128943100Y-66359400D01*
X128943100Y-66339400D01*
X127968850Y-66339400D01*
X127810100Y-66498150D01*
X127810100Y-67088709D01*
X127906773Y-67322098D01*
X128048420Y-67463746D01*
X127987291Y-67504591D01*
X127846943Y-67714635D01*
X127800100Y-67950133D01*
X127753257Y-67714635D01*
X127612909Y-67504591D01*
X127551780Y-67463746D01*
X127693427Y-67322098D01*
X127790100Y-67088709D01*
X127790100Y-66498150D01*
X127631350Y-66339400D01*
X126657100Y-66339400D01*
X126657100Y-66359400D01*
X126403100Y-66359400D01*
X126403100Y-66339400D01*
X125428850Y-66339400D01*
X125270100Y-66498150D01*
X125270100Y-67088709D01*
X125366773Y-67322098D01*
X125508420Y-67463746D01*
X125447291Y-67504591D01*
X125306943Y-67714635D01*
X125257660Y-67962400D01*
X125257660Y-69035038D01*
X125044739Y-69247959D01*
X122774709Y-66977930D01*
X122732307Y-66914471D01*
X122480915Y-66746496D01*
X122259230Y-66702400D01*
X122259225Y-66702400D01*
X122184378Y-66687512D01*
X122109531Y-66702400D01*
X121758710Y-66702400D01*
X121758710Y-65397600D01*
X121826421Y-65498936D01*
X121880072Y-65579231D01*
X121943528Y-65621631D01*
X122008766Y-65686869D01*
X122051168Y-65750328D01*
X122302560Y-65918303D01*
X122524245Y-65962399D01*
X122524249Y-65962399D01*
X122599097Y-65977287D01*
X122673945Y-65962399D01*
X125305849Y-65962399D01*
X125428850Y-66085400D01*
X126403100Y-66085400D01*
X126403100Y-66065400D01*
X126657100Y-66065400D01*
X126657100Y-66085400D01*
X127631350Y-66085400D01*
X127790100Y-65926650D01*
X127790100Y-65390300D01*
X127810100Y-65390300D01*
X127810100Y-65926650D01*
X127810100Y-65926650D01*
G37*
X127810100Y-65926650D02*
X127968850Y-66085400D01*
X128943100Y-66085400D01*
X128943100Y-66065400D01*
X129197100Y-66065400D01*
X129197100Y-66085400D01*
X130171350Y-66085400D01*
X130330100Y-65926650D01*
X130330100Y-65390300D01*
X131693006Y-65390300D01*
X131658340Y-65473991D01*
X131658340Y-65614550D01*
X131817090Y-65773300D01*
X133116340Y-65773300D01*
X133116340Y-65753300D01*
X133370340Y-65753300D01*
X133370340Y-65773300D01*
X133390340Y-65773300D01*
X133390340Y-66027300D01*
X133370340Y-66027300D01*
X133370340Y-66047300D01*
X133116340Y-66047300D01*
X133116340Y-66027300D01*
X131817090Y-66027300D01*
X131658340Y-66186050D01*
X131658340Y-66326609D01*
X131693006Y-66410300D01*
X131562048Y-66410300D01*
X131487200Y-66395412D01*
X131412352Y-66410300D01*
X131412348Y-66410300D01*
X131238805Y-66444820D01*
X131190662Y-66454396D01*
X131032619Y-66559998D01*
X130939271Y-66622371D01*
X130896871Y-66685827D01*
X130108069Y-67474630D01*
X130091780Y-67463746D01*
X130233427Y-67322098D01*
X130330100Y-67088709D01*
X130330100Y-66498150D01*
X130171350Y-66339400D01*
X129197100Y-66339400D01*
X129197100Y-66359400D01*
X128943100Y-66359400D01*
X128943100Y-66339400D01*
X127968850Y-66339400D01*
X127810100Y-66498150D01*
X127810100Y-67088709D01*
X127906773Y-67322098D01*
X128048420Y-67463746D01*
X127987291Y-67504591D01*
X127846943Y-67714635D01*
X127800100Y-67950133D01*
X127753257Y-67714635D01*
X127612909Y-67504591D01*
X127551780Y-67463746D01*
X127693427Y-67322098D01*
X127790100Y-67088709D01*
X127790100Y-66498150D01*
X127631350Y-66339400D01*
X126657100Y-66339400D01*
X126657100Y-66359400D01*
X126403100Y-66359400D01*
X126403100Y-66339400D01*
X125428850Y-66339400D01*
X125270100Y-66498150D01*
X125270100Y-67088709D01*
X125366773Y-67322098D01*
X125508420Y-67463746D01*
X125447291Y-67504591D01*
X125306943Y-67714635D01*
X125257660Y-67962400D01*
X125257660Y-69035038D01*
X125044739Y-69247959D01*
X122774709Y-66977930D01*
X122732307Y-66914471D01*
X122480915Y-66746496D01*
X122259230Y-66702400D01*
X122259225Y-66702400D01*
X122184378Y-66687512D01*
X122109531Y-66702400D01*
X121758710Y-66702400D01*
X121758710Y-65397600D01*
X121826421Y-65498936D01*
X121880072Y-65579231D01*
X121943528Y-65621631D01*
X122008766Y-65686869D01*
X122051168Y-65750328D01*
X122302560Y-65918303D01*
X122524245Y-65962399D01*
X122524249Y-65962399D01*
X122599097Y-65977287D01*
X122673945Y-65962399D01*
X125305849Y-65962399D01*
X125428850Y-66085400D01*
X126403100Y-66085400D01*
X126403100Y-66065400D01*
X126657100Y-66065400D01*
X126657100Y-66085400D01*
X127631350Y-66085400D01*
X127790100Y-65926650D01*
X127790100Y-65390300D01*
X127810100Y-65390300D01*
X127810100Y-65926650D01*
G36*
X117829670Y-68542830D02*
X118113381Y-68732400D01*
X117829670Y-68921970D01*
X117640100Y-69205681D01*
X117450530Y-68921970D01*
X117166819Y-68732400D01*
X117450530Y-68542830D01*
X117640100Y-68259119D01*
X117829670Y-68542830D01*
X117829670Y-68542830D01*
G37*
X117829670Y-68542830D02*
X118113381Y-68732400D01*
X117829670Y-68921970D01*
X117640100Y-69205681D01*
X117450530Y-68921970D01*
X117166819Y-68732400D01*
X117450530Y-68542830D01*
X117640100Y-68259119D01*
X117829670Y-68542830D01*
G36*
X117829670Y-66002830D02*
X118113381Y-66192400D01*
X117829670Y-66381970D01*
X117640100Y-66665681D01*
X117450530Y-66381970D01*
X117166819Y-66192400D01*
X117450530Y-66002830D01*
X117640100Y-65719119D01*
X117829670Y-66002830D01*
X117829670Y-66002830D01*
G37*
X117829670Y-66002830D02*
X118113381Y-66192400D01*
X117829670Y-66381970D01*
X117640100Y-66665681D01*
X117450530Y-66381970D01*
X117166819Y-66192400D01*
X117450530Y-66002830D01*
X117640100Y-65719119D01*
X117829670Y-66002830D01*
G36*
X117504099Y-53099400D02*
X117417850Y-53099400D01*
X117259100Y-53258150D01*
X117259100Y-55357400D01*
X117279100Y-55357400D01*
X117279100Y-55611400D01*
X117259100Y-55611400D01*
X117259100Y-57710650D01*
X117417850Y-57869400D01*
X117747100Y-57869400D01*
X117747100Y-59062608D01*
X117727804Y-59159616D01*
X117747100Y-59256624D01*
X117747100Y-59256627D01*
X117783634Y-59440296D01*
X117804251Y-59543943D01*
X117918815Y-59715400D01*
X118021955Y-59869761D01*
X118104198Y-59924714D01*
X119788711Y-61609228D01*
X119788711Y-63707118D01*
X119494825Y-63510750D01*
X119057698Y-63423800D01*
X118762502Y-63423800D01*
X118325375Y-63510750D01*
X117829670Y-63841970D01*
X117640100Y-64125681D01*
X117450530Y-63841970D01*
X116954825Y-63510750D01*
X116517698Y-63423800D01*
X116222502Y-63423800D01*
X115801380Y-63507566D01*
X115801380Y-57701706D01*
X115872401Y-57772727D01*
X116105790Y-57869400D01*
X116846350Y-57869400D01*
X117005100Y-57710650D01*
X117005100Y-55611400D01*
X116985100Y-55611400D01*
X116985100Y-55357400D01*
X117005100Y-55357400D01*
X117005100Y-53258150D01*
X116846350Y-53099400D01*
X116618678Y-53099400D01*
X116836239Y-52881840D01*
X117286539Y-52881840D01*
X117504099Y-53099400D01*
X117504099Y-53099400D01*
G37*
X117504099Y-53099400D02*
X117417850Y-53099400D01*
X117259100Y-53258150D01*
X117259100Y-55357400D01*
X117279100Y-55357400D01*
X117279100Y-55611400D01*
X117259100Y-55611400D01*
X117259100Y-57710650D01*
X117417850Y-57869400D01*
X117747100Y-57869400D01*
X117747100Y-59062608D01*
X117727804Y-59159616D01*
X117747100Y-59256624D01*
X117747100Y-59256627D01*
X117783634Y-59440296D01*
X117804251Y-59543943D01*
X117918815Y-59715400D01*
X118021955Y-59869761D01*
X118104198Y-59924714D01*
X119788711Y-61609228D01*
X119788711Y-63707118D01*
X119494825Y-63510750D01*
X119057698Y-63423800D01*
X118762502Y-63423800D01*
X118325375Y-63510750D01*
X117829670Y-63841970D01*
X117640100Y-64125681D01*
X117450530Y-63841970D01*
X116954825Y-63510750D01*
X116517698Y-63423800D01*
X116222502Y-63423800D01*
X115801380Y-63507566D01*
X115801380Y-57701706D01*
X115872401Y-57772727D01*
X116105790Y-57869400D01*
X116846350Y-57869400D01*
X117005100Y-57710650D01*
X117005100Y-55611400D01*
X116985100Y-55611400D01*
X116985100Y-55357400D01*
X117005100Y-55357400D01*
X117005100Y-53258150D01*
X116846350Y-53099400D01*
X116618678Y-53099400D01*
X116836239Y-52881840D01*
X117286539Y-52881840D01*
X117504099Y-53099400D01*
G36*
X130287270Y-57784472D02*
X130329671Y-57847929D01*
X130393127Y-57890329D01*
X130581062Y-58015904D01*
X130629205Y-58025480D01*
X130802748Y-58060000D01*
X130802752Y-58060000D01*
X130877600Y-58074888D01*
X130952448Y-58060000D01*
X136561937Y-58060000D01*
X136456291Y-58130591D01*
X136315943Y-58340635D01*
X136266660Y-58588400D01*
X136266660Y-58603400D01*
X131847263Y-58603400D01*
X131781909Y-58505591D01*
X131571865Y-58365243D01*
X131324100Y-58315960D01*
X129824100Y-58315960D01*
X129576335Y-58365243D01*
X129366291Y-58505591D01*
X129325446Y-58566720D01*
X129183798Y-58425073D01*
X128950409Y-58328400D01*
X128359850Y-58328400D01*
X128201100Y-58487150D01*
X128201100Y-59461400D01*
X128221100Y-59461400D01*
X128221100Y-59715400D01*
X128201100Y-59715400D01*
X128201100Y-59735400D01*
X127947100Y-59735400D01*
X127947100Y-59715400D01*
X126847850Y-59715400D01*
X126689100Y-59874150D01*
X126689100Y-60339710D01*
X126785773Y-60573099D01*
X126964402Y-60751727D01*
X127197791Y-60848400D01*
X127788350Y-60848400D01*
X127947098Y-60689652D01*
X127947098Y-60822402D01*
X126650100Y-62119400D01*
X125283540Y-62119400D01*
X125283540Y-61354400D01*
X125234257Y-61106635D01*
X125093909Y-60896591D01*
X124883865Y-60756243D01*
X124636100Y-60706960D01*
X123581660Y-60706960D01*
X123364100Y-60489400D01*
X123450350Y-60489400D01*
X123609100Y-60330650D01*
X123609100Y-58231400D01*
X123863100Y-58231400D01*
X123863100Y-60330650D01*
X124021850Y-60489400D01*
X124762410Y-60489400D01*
X124995799Y-60392727D01*
X125174427Y-60214098D01*
X125271100Y-59980709D01*
X125271100Y-58837090D01*
X126689100Y-58837090D01*
X126689100Y-59302650D01*
X126847850Y-59461400D01*
X127947100Y-59461400D01*
X127947100Y-58487150D01*
X127788350Y-58328400D01*
X127197791Y-58328400D01*
X126964402Y-58425073D01*
X126785773Y-58603701D01*
X126689100Y-58837090D01*
X125271100Y-58837090D01*
X125271100Y-58390150D01*
X125112350Y-58231400D01*
X123863100Y-58231400D01*
X123609100Y-58231400D01*
X123589100Y-58231400D01*
X123589100Y-57977400D01*
X123609100Y-57977400D01*
X123609100Y-57957400D01*
X123863100Y-57957400D01*
X123863100Y-57977400D01*
X125112350Y-57977400D01*
X125271100Y-57818650D01*
X125271100Y-56228091D01*
X125174427Y-55994702D01*
X125061566Y-55881840D01*
X125311100Y-55881840D01*
X125558865Y-55832557D01*
X125768909Y-55692209D01*
X125909257Y-55482165D01*
X125958540Y-55234400D01*
X125958540Y-53455741D01*
X130287270Y-57784472D01*
X130287270Y-57784472D01*
G37*
X130287270Y-57784472D02*
X130329671Y-57847929D01*
X130393127Y-57890329D01*
X130581062Y-58015904D01*
X130629205Y-58025480D01*
X130802748Y-58060000D01*
X130802752Y-58060000D01*
X130877600Y-58074888D01*
X130952448Y-58060000D01*
X136561937Y-58060000D01*
X136456291Y-58130591D01*
X136315943Y-58340635D01*
X136266660Y-58588400D01*
X136266660Y-58603400D01*
X131847263Y-58603400D01*
X131781909Y-58505591D01*
X131571865Y-58365243D01*
X131324100Y-58315960D01*
X129824100Y-58315960D01*
X129576335Y-58365243D01*
X129366291Y-58505591D01*
X129325446Y-58566720D01*
X129183798Y-58425073D01*
X128950409Y-58328400D01*
X128359850Y-58328400D01*
X128201100Y-58487150D01*
X128201100Y-59461400D01*
X128221100Y-59461400D01*
X128221100Y-59715400D01*
X128201100Y-59715400D01*
X128201100Y-59735400D01*
X127947100Y-59735400D01*
X127947100Y-59715400D01*
X126847850Y-59715400D01*
X126689100Y-59874150D01*
X126689100Y-60339710D01*
X126785773Y-60573099D01*
X126964402Y-60751727D01*
X127197791Y-60848400D01*
X127788350Y-60848400D01*
X127947098Y-60689652D01*
X127947098Y-60822402D01*
X126650100Y-62119400D01*
X125283540Y-62119400D01*
X125283540Y-61354400D01*
X125234257Y-61106635D01*
X125093909Y-60896591D01*
X124883865Y-60756243D01*
X124636100Y-60706960D01*
X123581660Y-60706960D01*
X123364100Y-60489400D01*
X123450350Y-60489400D01*
X123609100Y-60330650D01*
X123609100Y-58231400D01*
X123863100Y-58231400D01*
X123863100Y-60330650D01*
X124021850Y-60489400D01*
X124762410Y-60489400D01*
X124995799Y-60392727D01*
X125174427Y-60214098D01*
X125271100Y-59980709D01*
X125271100Y-58837090D01*
X126689100Y-58837090D01*
X126689100Y-59302650D01*
X126847850Y-59461400D01*
X127947100Y-59461400D01*
X127947100Y-58487150D01*
X127788350Y-58328400D01*
X127197791Y-58328400D01*
X126964402Y-58425073D01*
X126785773Y-58603701D01*
X126689100Y-58837090D01*
X125271100Y-58837090D01*
X125271100Y-58390150D01*
X125112350Y-58231400D01*
X123863100Y-58231400D01*
X123609100Y-58231400D01*
X123589100Y-58231400D01*
X123589100Y-57977400D01*
X123609100Y-57977400D01*
X123609100Y-57957400D01*
X123863100Y-57957400D01*
X123863100Y-57977400D01*
X125112350Y-57977400D01*
X125271100Y-57818650D01*
X125271100Y-56228091D01*
X125174427Y-55994702D01*
X125061566Y-55881840D01*
X125311100Y-55881840D01*
X125558865Y-55832557D01*
X125768909Y-55692209D01*
X125909257Y-55482165D01*
X125958540Y-55234400D01*
X125958540Y-53455741D01*
X130287270Y-57784472D01*
G04 #@! TD*
M02*
