M48
INCH,TZ
T1C0.0315
T2C0.0394
T3C0.0400
T4C0.0402
T5C0.0472
T6C0.0598
T7C0.0709
T8C0.0984
%
G90
G05
T1
X52415Y-27560
X56290Y-32894
X56280Y-40404
X56280Y-41388
X49715Y-48533
X49715Y-49518
X56290Y-33878
T2
X61115Y-45060
X63115Y-45060
X59154Y-47537
X59154Y-48537
X59154Y-49537
T3
X64815Y-24560
X64815Y-25560
X64815Y-26560
X64815Y-27560
X64815Y-28560
X64815Y-29560
X64815Y-30560
X64815Y-31560
X64815Y-32560
X64815Y-33560
X64815Y-34560
X64815Y-35560
X64815Y-36560
X64815Y-37560
X64815Y-38560
X64815Y-39560
X64815Y-40560
X64815Y-41560
X64815Y-42560
X64815Y-43560
X64815Y-44560
X64815Y-45560
X64815Y-46560
X65815Y-24560
X65815Y-25560
X65815Y-26560
X65815Y-27560
X65815Y-28560
X65815Y-29560
X65815Y-30560
X65815Y-31560
X65815Y-32560
X65815Y-33560
X65815Y-34560
X65815Y-35560
X65815Y-36560
X65815Y-37560
X65815Y-38560
X65815Y-39560
X65815Y-40560
X65815Y-41560
X65815Y-42560
X65815Y-43560
X65815Y-44560
X65815Y-45560
X65815Y-46560
X45815Y-24560
X45815Y-25560
X45815Y-26560
X45815Y-27560
X45815Y-28560
X45815Y-29560
X45815Y-30560
X45815Y-31560
X45815Y-32560
X45815Y-33560
X45815Y-34560
X45815Y-35560
X45815Y-36560
X45815Y-37560
X45815Y-38560
X45815Y-39560
X45815Y-40560
X45815Y-41560
X45815Y-42560
X45815Y-43560
X45815Y-44560
X45815Y-45560
X45815Y-46560
X46815Y-24560
X46815Y-25560
X46815Y-26560
X46815Y-27560
X46815Y-28560
X46815Y-29560
X46815Y-30560
X46815Y-31560
X46815Y-32560
X46815Y-33560
X46815Y-34560
X46815Y-35560
X46815Y-36560
X46815Y-37560
X46815Y-38560
X46815Y-39560
X46815Y-40560
X46815Y-41560
X46815Y-42560
X46815Y-43560
X46815Y-44560
X46815Y-45560
X46815Y-46560
T4
X52306Y-43043
X52306Y-44043
X52306Y-45043
X52306Y-46043
X52306Y-47043
X52306Y-48043
X52306Y-49043
X52306Y-50043
X57306Y-43043
X57306Y-44043
X57306Y-45043
X57306Y-46043
X57306Y-47043
X57306Y-48043
X57306Y-49043
X57306Y-50043
X58504Y-27354
X58504Y-28354
X58504Y-29354
X58504Y-30354
X58504Y-31354
X58504Y-32354
X58504Y-33354
X58504Y-34354
X63504Y-27354
X63504Y-28354
X63504Y-29354
X63504Y-30354
X63504Y-31354
X63504Y-32354
X63504Y-33354
X63504Y-34354
X58583Y-35853
X58583Y-36853
X58583Y-37853
X58583Y-38853
X58583Y-39853
X58583Y-40853
X58583Y-41853
X58583Y-42853
X63583Y-35853
X63583Y-36853
X63583Y-37853
X63583Y-38853
X63583Y-39853
X63583Y-40853
X63583Y-41853
X63583Y-42853
T5
X49730Y-43782
X49730Y-44782
X49730Y-45782
X49730Y-46782
X48915Y-30360
X48915Y-31360
X48915Y-32360
X53415Y-28817
X53415Y-29817
X53415Y-30817
X65138Y-19911
X65138Y-20911
X49200Y-38220
X49200Y-39220
X49200Y-40220
X49200Y-41220
X49200Y-42220
X52542Y-38752
X52542Y-39752
X52542Y-40752
X49115Y-34260
X49115Y-35260
X49115Y-36260
X54415Y-23460
X54415Y-24460
X56294Y-35668
X56294Y-36668
X56294Y-37668
X56294Y-38668
X56245Y-28114
X56245Y-29114
X56245Y-30114
X56245Y-31114
T6
X61831Y-47323
X61831Y-49323
T7
X51498Y-20100
X54498Y-20100
X57498Y-20100
X60498Y-20100
T8
X57490Y-25240
X59459Y-25240
X61033Y-25240
X63002Y-25240
T0
M30
