G04 #@! TF.GenerationSoftware,KiCad,Pcbnew,5.0.1-33cea8e~68~ubuntu16.04.1*
G04 #@! TF.CreationDate,2019-04-24T21:21:49+02:00*
G04 #@! TF.ProjectId,BeagleBone-Black-Cape,426561676C65426F6E652D426C61636B,0.2*
G04 #@! TF.SameCoordinates,Original*
G04 #@! TF.FileFunction,Copper,L2,Bot,Signal*
G04 #@! TF.FilePolarity,Positive*
%FSLAX46Y46*%
G04 Gerber Fmt 4.6, Leading zero omitted, Abs format (unit mm)*
G04 Created by KiCad (PCBNEW 5.0.1-33cea8e~68~ubuntu16.04.1) date wo 24 apr 2019 21:21:49 CEST*
%MOMM*%
%LPD*%
G01*
G04 APERTURE LIST*
G04 #@! TA.AperFunction,ComponentPad*
%ADD10O,1.800000X1.800000*%
G04 #@! TD*
G04 #@! TA.AperFunction,ComponentPad*
%ADD11R,1.800000X1.800000*%
G04 #@! TD*
G04 #@! TA.AperFunction,ComponentPad*
%ADD12C,3.700000*%
G04 #@! TD*
G04 #@! TA.AperFunction,ComponentPad*
%ADD13R,3.300000X3.300000*%
G04 #@! TD*
G04 #@! TA.AperFunction,ComponentPad*
%ADD14C,3.300000*%
G04 #@! TD*
G04 #@! TA.AperFunction,ComponentPad*
%ADD15C,1.500000*%
G04 #@! TD*
G04 #@! TA.AperFunction,ComponentPad*
%ADD16R,2.600000X2.000000*%
G04 #@! TD*
G04 #@! TA.AperFunction,ComponentPad*
%ADD17O,2.600000X2.000000*%
G04 #@! TD*
G04 #@! TA.AperFunction,ComponentPad*
%ADD18R,1.600000X1.600000*%
G04 #@! TD*
G04 #@! TA.AperFunction,ComponentPad*
%ADD19C,1.600000*%
G04 #@! TD*
G04 #@! TA.AperFunction,ComponentPad*
%ADD20R,3.000000X3.000000*%
G04 #@! TD*
G04 #@! TA.AperFunction,ComponentPad*
%ADD21C,3.000000*%
G04 #@! TD*
G04 #@! TA.AperFunction,ComponentPad*
%ADD22O,1.727200X1.727200*%
G04 #@! TD*
G04 #@! TA.AperFunction,ComponentPad*
%ADD23R,1.727200X1.727200*%
G04 #@! TD*
G04 #@! TA.AperFunction,Conductor*
%ADD24C,0.250000*%
G04 #@! TD*
G04 #@! TA.AperFunction,Conductor*
%ADD25C,0.700000*%
G04 #@! TD*
G04 #@! TA.AperFunction,Conductor*
%ADD26C,0.500000*%
G04 #@! TD*
G04 #@! TA.AperFunction,Conductor*
%ADD27C,1.370000*%
G04 #@! TD*
G04 #@! TA.AperFunction,Conductor*
%ADD28C,3.000000*%
G04 #@! TD*
G04 #@! TA.AperFunction,Conductor*
%ADD29C,0.254000*%
G04 #@! TD*
G04 APERTURE END LIST*
D10*
G04 #@! TO.P,U3,8*
G04 #@! TO.N,X_DIR*
X145557240Y-109329220D03*
G04 #@! TO.P,U3,16*
G04 #@! TO.N,+24V*
X132857240Y-127109220D03*
G04 #@! TO.P,U3,7*
G04 #@! TO.N,X_STEP*
X145557240Y-111869220D03*
G04 #@! TO.P,U3,15*
G04 #@! TO.N,GND*
X132857240Y-124569220D03*
G04 #@! TO.P,U3,6*
G04 #@! TO.N,Net-(U3-Pad6)*
X145557240Y-114409220D03*
G04 #@! TO.P,U3,14*
G04 #@! TO.N,X_2B*
X132857240Y-122029220D03*
G04 #@! TO.P,U3,5*
G04 #@! TO.N,SPIO_DO*
X145557240Y-116949220D03*
G04 #@! TO.P,U3,13*
G04 #@! TO.N,X_2A*
X132857240Y-119489220D03*
G04 #@! TO.P,U3,4*
G04 #@! TO.N,SPI0_CSX*
X145557240Y-119489220D03*
G04 #@! TO.P,U3,12*
G04 #@! TO.N,X_1A*
X132857240Y-116949220D03*
G04 #@! TO.P,U3,3*
G04 #@! TO.N,SPIO_SCL*
X145557240Y-122029220D03*
G04 #@! TO.P,U3,11*
G04 #@! TO.N,X_1B*
X132857240Y-114409220D03*
G04 #@! TO.P,U3,2*
G04 #@! TO.N,SPIO_DI*
X145557240Y-124569220D03*
G04 #@! TO.P,U3,10*
G04 #@! TO.N,+3V3*
X132857240Y-111869220D03*
G04 #@! TO.P,U3,1*
G04 #@! TO.N,X_ENABLE*
X145557240Y-127109220D03*
D11*
G04 #@! TO.P,U3,9*
G04 #@! TO.N,GND*
X132857240Y-109329220D03*
G04 #@! TD*
D10*
G04 #@! TO.P,U5,8*
G04 #@! TO.N,Z_DIR*
X161500820Y-91066620D03*
G04 #@! TO.P,U5,16*
G04 #@! TO.N,+24V*
X148800820Y-108846620D03*
G04 #@! TO.P,U5,7*
G04 #@! TO.N,Z_STEP*
X161500820Y-93606620D03*
G04 #@! TO.P,U5,15*
G04 #@! TO.N,GND*
X148800820Y-106306620D03*
G04 #@! TO.P,U5,6*
G04 #@! TO.N,Net-(U5-Pad6)*
X161500820Y-96146620D03*
G04 #@! TO.P,U5,14*
G04 #@! TO.N,Z_2B*
X148800820Y-103766620D03*
G04 #@! TO.P,U5,5*
G04 #@! TO.N,SPIO_DO*
X161500820Y-98686620D03*
G04 #@! TO.P,U5,13*
G04 #@! TO.N,Z_2A*
X148800820Y-101226620D03*
G04 #@! TO.P,U5,4*
G04 #@! TO.N,SPIO_CSZ*
X161500820Y-101226620D03*
G04 #@! TO.P,U5,12*
G04 #@! TO.N,Z_1A*
X148800820Y-98686620D03*
G04 #@! TO.P,U5,3*
G04 #@! TO.N,SPIO_SCL*
X161500820Y-103766620D03*
G04 #@! TO.P,U5,11*
G04 #@! TO.N,Z_1B*
X148800820Y-96146620D03*
G04 #@! TO.P,U5,2*
G04 #@! TO.N,SPIO_DI*
X161500820Y-106306620D03*
G04 #@! TO.P,U5,10*
G04 #@! TO.N,+3V3*
X148800820Y-93606620D03*
G04 #@! TO.P,U5,1*
G04 #@! TO.N,Z_ENABLE*
X161500820Y-108846620D03*
D11*
G04 #@! TO.P,U5,9*
G04 #@! TO.N,GND*
X148800820Y-91066620D03*
G04 #@! TD*
D10*
G04 #@! TO.P,U4,8*
G04 #@! TO.N,Y_DIR*
X161300160Y-69479160D03*
G04 #@! TO.P,U4,16*
G04 #@! TO.N,+24V*
X148600160Y-87259160D03*
G04 #@! TO.P,U4,7*
G04 #@! TO.N,Y_STEP*
X161300160Y-72019160D03*
G04 #@! TO.P,U4,15*
G04 #@! TO.N,GND*
X148600160Y-84719160D03*
G04 #@! TO.P,U4,6*
G04 #@! TO.N,Net-(U4-Pad6)*
X161300160Y-74559160D03*
G04 #@! TO.P,U4,14*
G04 #@! TO.N,Y_2B*
X148600160Y-82179160D03*
G04 #@! TO.P,U4,5*
G04 #@! TO.N,SPIO_DO*
X161300160Y-77099160D03*
G04 #@! TO.P,U4,13*
G04 #@! TO.N,Y_2A*
X148600160Y-79639160D03*
G04 #@! TO.P,U4,4*
G04 #@! TO.N,SPIO_CSY*
X161300160Y-79639160D03*
G04 #@! TO.P,U4,12*
G04 #@! TO.N,Y_1A*
X148600160Y-77099160D03*
G04 #@! TO.P,U4,3*
G04 #@! TO.N,SPIO_SCL*
X161300160Y-82179160D03*
G04 #@! TO.P,U4,11*
G04 #@! TO.N,Y_1B*
X148600160Y-74559160D03*
G04 #@! TO.P,U4,2*
G04 #@! TO.N,SPIO_DI*
X161300160Y-84719160D03*
G04 #@! TO.P,U4,10*
G04 #@! TO.N,+3V3*
X148600160Y-72019160D03*
G04 #@! TO.P,U4,1*
G04 #@! TO.N,Y_ENABLE*
X161300160Y-87259160D03*
D11*
G04 #@! TO.P,U4,9*
G04 #@! TO.N,GND*
X148600160Y-69479160D03*
G04 #@! TD*
D12*
G04 #@! TO.P,F2,4*
G04 #@! TO.N,+24V*
X146025000Y-64109600D03*
G04 #@! TO.P,F2,3*
X151025000Y-64109600D03*
G04 #@! TO.P,F2,2*
G04 #@! TO.N,Net-(F2-Pad1)*
X155025000Y-64109600D03*
G04 #@! TO.P,F2,1*
X160025000Y-64109600D03*
G04 #@! TD*
D13*
G04 #@! TO.P,J1,1*
G04 #@! TO.N,GND*
X130804920Y-51054000D03*
D14*
G04 #@! TO.P,J1,4*
G04 #@! TO.N,Net-(F2-Pad1)*
X153664920Y-51054000D03*
G04 #@! TO.P,J1,2*
G04 #@! TO.N,Net-(F3-Pad2)*
X138424920Y-51054000D03*
G04 #@! TO.P,J1,3*
G04 #@! TO.N,Net-(F1-Pad2)*
X146044920Y-51054000D03*
G04 #@! TD*
D15*
G04 #@! TO.P,TP1,1*
G04 #@! TO.N,POT_W*
X133134100Y-70002400D03*
G04 #@! TD*
D16*
G04 #@! TO.P,J10,1*
G04 #@! TO.N,+3V3*
X135675000Y-78275000D03*
D17*
G04 #@! TO.P,J10,2*
G04 #@! TO.N,Z_PO*
X135675000Y-75735000D03*
G04 #@! TO.P,J10,3*
G04 #@! TO.N,GND*
X135675000Y-73195000D03*
G04 #@! TD*
D18*
G04 #@! TO.P,C5,1*
G04 #@! TO.N,+24V*
X142976600Y-86050120D03*
D19*
G04 #@! TO.P,C5,2*
G04 #@! TO.N,GND*
X142976600Y-83550120D03*
G04 #@! TD*
D18*
G04 #@! TO.P,C4,1*
G04 #@! TO.N,+24V*
X142950000Y-105125000D03*
D19*
G04 #@! TO.P,C4,2*
G04 #@! TO.N,GND*
X142950000Y-102625000D03*
G04 #@! TD*
D18*
G04 #@! TO.P,CP_1,1*
G04 #@! TO.N,+24V*
X126275000Y-125775000D03*
D19*
G04 #@! TO.P,CP_1,2*
G04 #@! TO.N,GND*
X126275000Y-123275000D03*
G04 #@! TD*
D16*
G04 #@! TO.P,J11,1*
G04 #@! TO.N,+24V*
X165450000Y-50575000D03*
D17*
G04 #@! TO.P,J11,2*
G04 #@! TO.N,Net-(D5-Pad2)*
X165450000Y-53115000D03*
G04 #@! TD*
D16*
G04 #@! TO.P,J4,1*
G04 #@! TO.N,+12V*
X138214100Y-59588400D03*
D17*
G04 #@! TO.P,J4,2*
G04 #@! TO.N,LDK*
X138214100Y-62128400D03*
G04 #@! TD*
D16*
G04 #@! TO.P,J3,1*
G04 #@! TO.N,+3V3*
X124752100Y-87020400D03*
D17*
G04 #@! TO.P,J3,2*
G04 #@! TO.N,PH_DIODE*
X124752100Y-89560400D03*
G04 #@! TO.P,J3,3*
G04 #@! TO.N,GND*
X124752100Y-92100400D03*
G04 #@! TD*
D16*
G04 #@! TO.P,J6,1*
G04 #@! TO.N,+3V3*
X133456680Y-103510080D03*
D17*
G04 #@! TO.P,J6,2*
G04 #@! TO.N,X_PO*
X133456680Y-100970080D03*
G04 #@! TO.P,J6,3*
G04 #@! TO.N,GND*
X133456680Y-98430080D03*
G04 #@! TD*
D16*
G04 #@! TO.P,J8,1*
G04 #@! TO.N,+3V3*
X124244100Y-77114400D03*
D17*
G04 #@! TO.P,J8,2*
G04 #@! TO.N,Y_PO*
X124244100Y-79654400D03*
G04 #@! TO.P,J8,3*
G04 #@! TO.N,GND*
X124244100Y-82194400D03*
G04 #@! TD*
D16*
G04 #@! TO.P,J5,1*
G04 #@! TO.N,X_2B*
X126314200Y-118826280D03*
D17*
G04 #@! TO.P,J5,2*
G04 #@! TO.N,X_2A*
X126314200Y-116286280D03*
G04 #@! TO.P,J5,3*
G04 #@! TO.N,X_1A*
X126314200Y-113746280D03*
G04 #@! TO.P,J5,4*
G04 #@! TO.N,X_1B*
X126314200Y-111206280D03*
G04 #@! TD*
D16*
G04 #@! TO.P,J9,1*
G04 #@! TO.N,Z_2B*
X142986760Y-98216720D03*
D17*
G04 #@! TO.P,J9,2*
G04 #@! TO.N,Z_2A*
X142986760Y-95676720D03*
G04 #@! TO.P,J9,3*
G04 #@! TO.N,Z_1A*
X142986760Y-93136720D03*
G04 #@! TO.P,J9,4*
G04 #@! TO.N,Z_1B*
X142986760Y-90596720D03*
G04 #@! TD*
D16*
G04 #@! TO.P,J7,1*
G04 #@! TO.N,Y_2B*
X142862300Y-79029560D03*
D17*
G04 #@! TO.P,J7,2*
G04 #@! TO.N,Y_2A*
X142862300Y-76489560D03*
G04 #@! TO.P,J7,3*
G04 #@! TO.N,Y_1A*
X142862300Y-73949560D03*
G04 #@! TO.P,J7,4*
G04 #@! TO.N,Y_1B*
X142862300Y-71409560D03*
G04 #@! TD*
D16*
G04 #@! TO.P,J2,1*
G04 #@! TO.N,+24V*
X124968000Y-107238800D03*
D17*
G04 #@! TO.P,J2,2*
G04 #@! TO.N,GND*
X124968000Y-104698800D03*
G04 #@! TO.P,J2,3*
G04 #@! TO.N,POLY_EN*
X124968000Y-102158800D03*
G04 #@! TO.P,J2,4*
G04 #@! TO.N,POLY_READY*
X124968000Y-99618800D03*
G04 #@! TO.P,J2,5*
G04 #@! TO.N,POLY_PWM*
X124968000Y-97078800D03*
G04 #@! TD*
D20*
G04 #@! TO.P,J12,1*
G04 #@! TO.N,+24V*
X157050000Y-120200000D03*
D21*
G04 #@! TO.P,J12,2*
G04 #@! TO.N,Net-(D4-Pad2)*
X157050000Y-125280000D03*
G04 #@! TD*
D22*
G04 #@! TO.P,P2,46*
G04 #@! TO.N,GND*
X118910100Y-118262400D03*
G04 #@! TO.P,P2,45*
X116370100Y-118262400D03*
G04 #@! TO.P,P2,44*
X118910100Y-115722400D03*
G04 #@! TO.P,P2,43*
X116370100Y-115722400D03*
G04 #@! TO.P,P2,42*
G04 #@! TO.N,X_DIR*
X118910100Y-113182400D03*
G04 #@! TO.P,P2,41*
G04 #@! TO.N,X_STEP*
X116370100Y-113182400D03*
G04 #@! TO.P,P2,40*
G04 #@! TO.N,Net-(P2-Pad40)*
X118910100Y-110642400D03*
G04 #@! TO.P,P2,39*
G04 #@! TO.N,Net-(P2-Pad39)*
X116370100Y-110642400D03*
G04 #@! TO.P,P2,38*
G04 #@! TO.N,Net-(P2-Pad38)*
X118910100Y-108102400D03*
G04 #@! TO.P,P2,37*
G04 #@! TO.N,Net-(P2-Pad37)*
X116370100Y-108102400D03*
G04 #@! TO.P,P2,36*
G04 #@! TO.N,Net-(P2-Pad36)*
X118910100Y-105562400D03*
G04 #@! TO.P,P2,35*
G04 #@! TO.N,Net-(P2-Pad35)*
X116370100Y-105562400D03*
G04 #@! TO.P,P2,34*
G04 #@! TO.N,Net-(P2-Pad34)*
X118910100Y-103022400D03*
G04 #@! TO.P,P2,33*
G04 #@! TO.N,Net-(P2-Pad33)*
X116370100Y-103022400D03*
G04 #@! TO.P,P2,32*
G04 #@! TO.N,Net-(P2-Pad32)*
X118910100Y-100482400D03*
G04 #@! TO.P,P2,31*
G04 #@! TO.N,Net-(P2-Pad31)*
X116370100Y-100482400D03*
G04 #@! TO.P,P2,30*
G04 #@! TO.N,POLY_PWM*
X118910100Y-97942400D03*
G04 #@! TO.P,P2,29*
G04 #@! TO.N,Net-(P2-Pad29)*
X116370100Y-97942400D03*
G04 #@! TO.P,P2,28*
G04 #@! TO.N,Net-(P2-Pad28)*
X118910100Y-95402400D03*
G04 #@! TO.P,P2,27*
G04 #@! TO.N,IC_HB_PWM2*
X116370100Y-95402400D03*
G04 #@! TO.P,P2,26*
G04 #@! TO.N,POLY_READY*
X118910100Y-92862400D03*
G04 #@! TO.P,P2,25*
G04 #@! TO.N,IC_HB_PWM1*
X116370100Y-92862400D03*
G04 #@! TO.P,P2,24*
G04 #@! TO.N,PH_DIODE*
X118910100Y-90322400D03*
G04 #@! TO.P,P2,23*
G04 #@! TO.N,POLY_EN*
X116370100Y-90322400D03*
G04 #@! TO.P,P2,22*
G04 #@! TO.N,SPIO_SCL*
X118910100Y-87782400D03*
G04 #@! TO.P,P2,21*
G04 #@! TO.N,SPIO_DO*
X116370100Y-87782400D03*
G04 #@! TO.P,P2,20*
G04 #@! TO.N,POT_SDA*
X118910100Y-85242400D03*
G04 #@! TO.P,P2,19*
G04 #@! TO.N,POT_SCL*
X116370100Y-85242400D03*
G04 #@! TO.P,P2,18*
G04 #@! TO.N,SPIO_DI*
X118910100Y-82702400D03*
G04 #@! TO.P,P2,17*
G04 #@! TO.N,SPI0_CSX*
X116370100Y-82702400D03*
G04 #@! TO.P,P2,16*
G04 #@! TO.N,Z_PO*
X118910100Y-80162400D03*
G04 #@! TO.P,P2,15*
G04 #@! TO.N,X_PO*
X116370100Y-80162400D03*
G04 #@! TO.P,P2,14*
G04 #@! TO.N,Y_PO*
X118910100Y-77622400D03*
G04 #@! TO.P,P2,13*
G04 #@! TO.N,Net-(P2-Pad13)*
X116370100Y-77622400D03*
G04 #@! TO.P,P2,12*
G04 #@! TO.N,X_ENABLE*
X118910100Y-75082400D03*
G04 #@! TO.P,P2,11*
G04 #@! TO.N,SPIO_CSY*
X116370100Y-75082400D03*
G04 #@! TO.P,P2,10*
G04 #@! TO.N,Net-(P2-Pad10)*
X118910100Y-72542400D03*
G04 #@! TO.P,P2,9*
G04 #@! TO.N,Net-(P2-Pad9)*
X116370100Y-72542400D03*
G04 #@! TO.P,P2,8*
G04 #@! TO.N,Net-(P2-Pad8)*
X118910100Y-70002400D03*
G04 #@! TO.P,P2,7*
G04 #@! TO.N,Net-(P2-Pad7)*
X116370100Y-70002400D03*
G04 #@! TO.P,P2,6*
G04 #@! TO.N,+5V*
X118910100Y-67462400D03*
G04 #@! TO.P,P2,5*
X116370100Y-67462400D03*
G04 #@! TO.P,P2,4*
G04 #@! TO.N,+3V3*
X118910100Y-64922400D03*
G04 #@! TO.P,P2,3*
X116370100Y-64922400D03*
G04 #@! TO.P,P2,2*
G04 #@! TO.N,GND*
X118910100Y-62382400D03*
D23*
G04 #@! TO.P,P2,1*
X116370100Y-62382400D03*
G04 #@! TD*
D22*
G04 #@! TO.P,P1,46*
G04 #@! TO.N,Net-(P1-Pad46)*
X167170100Y-118262400D03*
G04 #@! TO.P,P1,45*
G04 #@! TO.N,Net-(P1-Pad45)*
X164630100Y-118262400D03*
G04 #@! TO.P,P1,44*
G04 #@! TO.N,Net-(P1-Pad44)*
X167170100Y-115722400D03*
G04 #@! TO.P,P1,43*
G04 #@! TO.N,Net-(P1-Pad43)*
X164630100Y-115722400D03*
G04 #@! TO.P,P1,42*
G04 #@! TO.N,Net-(P1-Pad42)*
X167170100Y-113182400D03*
G04 #@! TO.P,P1,41*
G04 #@! TO.N,Net-(P1-Pad41)*
X164630100Y-113182400D03*
G04 #@! TO.P,P1,40*
G04 #@! TO.N,Net-(P1-Pad40)*
X167170100Y-110642400D03*
G04 #@! TO.P,P1,39*
G04 #@! TO.N,Net-(P1-Pad39)*
X164630100Y-110642400D03*
G04 #@! TO.P,P1,38*
G04 #@! TO.N,Net-(P1-Pad38)*
X167170100Y-108102400D03*
G04 #@! TO.P,P1,37*
G04 #@! TO.N,Net-(P1-Pad37)*
X164630100Y-108102400D03*
G04 #@! TO.P,P1,36*
G04 #@! TO.N,Net-(P1-Pad36)*
X167170100Y-105562400D03*
G04 #@! TO.P,P1,35*
G04 #@! TO.N,Net-(P1-Pad35)*
X164630100Y-105562400D03*
G04 #@! TO.P,P1,34*
G04 #@! TO.N,Net-(P1-Pad34)*
X167170100Y-103022400D03*
G04 #@! TO.P,P1,33*
G04 #@! TO.N,Net-(P1-Pad33)*
X164630100Y-103022400D03*
G04 #@! TO.P,P1,32*
G04 #@! TO.N,Net-(P1-Pad32)*
X167170100Y-100482400D03*
G04 #@! TO.P,P1,31*
G04 #@! TO.N,Net-(P1-Pad31)*
X164630100Y-100482400D03*
G04 #@! TO.P,P1,30*
G04 #@! TO.N,Net-(P1-Pad30)*
X167170100Y-97942400D03*
G04 #@! TO.P,P1,29*
G04 #@! TO.N,Net-(P1-Pad29)*
X164630100Y-97942400D03*
G04 #@! TO.P,P1,28*
G04 #@! TO.N,Net-(P1-Pad28)*
X167170100Y-95402400D03*
G04 #@! TO.P,P1,27*
G04 #@! TO.N,Net-(P1-Pad27)*
X164630100Y-95402400D03*
G04 #@! TO.P,P1,26*
G04 #@! TO.N,Net-(P1-Pad26)*
X167170100Y-92862400D03*
G04 #@! TO.P,P1,25*
G04 #@! TO.N,Net-(P1-Pad25)*
X164630100Y-92862400D03*
G04 #@! TO.P,P1,24*
G04 #@! TO.N,Net-(P1-Pad24)*
X167170100Y-90322400D03*
G04 #@! TO.P,P1,23*
G04 #@! TO.N,Net-(P1-Pad23)*
X164630100Y-90322400D03*
G04 #@! TO.P,P1,22*
G04 #@! TO.N,Net-(P1-Pad22)*
X167170100Y-87782400D03*
G04 #@! TO.P,P1,21*
G04 #@! TO.N,Net-(P1-Pad21)*
X164630100Y-87782400D03*
G04 #@! TO.P,P1,20*
G04 #@! TO.N,Net-(P1-Pad20)*
X167170100Y-85242400D03*
G04 #@! TO.P,P1,19*
G04 #@! TO.N,SPINDLE_PWM*
X164630100Y-85242400D03*
G04 #@! TO.P,P1,18*
G04 #@! TO.N,Z_ENABLE*
X167170100Y-82702400D03*
G04 #@! TO.P,P1,17*
G04 #@! TO.N,Z_DIR*
X164630100Y-82702400D03*
G04 #@! TO.P,P1,16*
G04 #@! TO.N,Z_STEP*
X167170100Y-80162400D03*
G04 #@! TO.P,P1,15*
G04 #@! TO.N,Y_DIR*
X164630100Y-80162400D03*
G04 #@! TO.P,P1,14*
G04 #@! TO.N,SPIO_CSZ*
X167170100Y-77622400D03*
G04 #@! TO.P,P1,13*
G04 #@! TO.N,FAN_PWM*
X164630100Y-77622400D03*
G04 #@! TO.P,P1,12*
G04 #@! TO.N,Y_STEP*
X167170100Y-75082400D03*
G04 #@! TO.P,P1,11*
G04 #@! TO.N,Y_ENABLE*
X164630100Y-75082400D03*
G04 #@! TO.P,P1,10*
G04 #@! TO.N,Net-(P1-Pad10)*
X167170100Y-72542400D03*
G04 #@! TO.P,P1,9*
G04 #@! TO.N,Net-(P1-Pad9)*
X164630100Y-72542400D03*
G04 #@! TO.P,P1,8*
G04 #@! TO.N,Net-(P1-Pad8)*
X167170100Y-70002400D03*
G04 #@! TO.P,P1,7*
G04 #@! TO.N,Net-(P1-Pad7)*
X164630100Y-70002400D03*
G04 #@! TO.P,P1,6*
G04 #@! TO.N,Net-(P1-Pad6)*
X167170100Y-67462400D03*
G04 #@! TO.P,P1,5*
G04 #@! TO.N,Net-(P1-Pad5)*
X164630100Y-67462400D03*
G04 #@! TO.P,P1,4*
G04 #@! TO.N,Net-(P1-Pad4)*
X167170100Y-64922400D03*
G04 #@! TO.P,P1,3*
G04 #@! TO.N,Net-(P1-Pad3)*
X164630100Y-64922400D03*
G04 #@! TO.P,P1,2*
G04 #@! TO.N,GND*
X167170100Y-62382400D03*
D23*
G04 #@! TO.P,P1,1*
X164630100Y-62382400D03*
G04 #@! TD*
D11*
G04 #@! TO.P,D4,1*
G04 #@! TO.N,+24V*
X160312100Y-114452400D03*
D10*
G04 #@! TO.P,D4,2*
G04 #@! TO.N,Net-(D4-Pad2)*
X155232100Y-114452400D03*
G04 #@! TD*
D11*
G04 #@! TO.P,Q1,1*
G04 #@! TO.N,SPINDLE_PWM*
X150250000Y-125825000D03*
D10*
G04 #@! TO.P,Q1,2*
G04 #@! TO.N,Net-(D4-Pad2)*
X150250000Y-123285000D03*
G04 #@! TO.P,Q1,3*
G04 #@! TO.N,GND*
X150250000Y-120745000D03*
G04 #@! TD*
D24*
G04 #@! TO.N,+3V3*
X124244100Y-77114400D02*
X123944100Y-77114400D01*
D25*
X116370100Y-64922400D02*
X118910100Y-64922400D01*
D24*
X136182100Y-78333600D02*
X134632100Y-78333600D01*
X136482100Y-78333600D02*
X136182100Y-78333600D01*
X137807110Y-77008590D02*
X136482100Y-78333600D01*
X137807110Y-74290903D02*
X137807110Y-77008590D01*
X142013463Y-70084550D02*
X137807110Y-74290903D01*
X146665550Y-70084550D02*
X142013463Y-70084550D01*
X148600160Y-72019160D02*
X146665550Y-70084550D01*
X118339571Y-73893799D02*
X119480629Y-73893799D01*
X115962369Y-76271001D02*
X116940629Y-76271001D01*
X117558701Y-74674669D02*
X118339571Y-73893799D01*
X115181499Y-80732929D02*
X115181499Y-77051871D01*
X115962369Y-81513799D02*
X115181499Y-80732929D01*
X117558701Y-75652929D02*
X117558701Y-74674669D01*
X117073799Y-81513799D02*
X115962369Y-81513799D01*
X116940629Y-76271001D02*
X117558701Y-75652929D01*
X117721499Y-82161499D02*
X117073799Y-81513799D01*
X118502369Y-86593799D02*
X117721499Y-85812929D01*
X117721499Y-85812929D02*
X117721499Y-82161499D01*
X122775499Y-86593799D02*
X118502369Y-86593799D01*
X123202100Y-87020400D02*
X122775499Y-86593799D01*
X115181499Y-77051871D02*
X115962369Y-76271001D01*
X124752100Y-87020400D02*
X123202100Y-87020400D01*
X118910100Y-64922400D02*
X123522400Y-64922400D01*
X123522400Y-64922400D02*
X134025000Y-75425000D01*
X135375000Y-78275000D02*
X135675000Y-78275000D01*
X134025000Y-76925000D02*
X135375000Y-78275000D01*
X134025000Y-75425000D02*
X134025000Y-76925000D01*
X124244100Y-75864400D02*
X122273499Y-73893799D01*
X124244100Y-77114400D02*
X124244100Y-75864400D01*
X119773699Y-65785999D02*
X118910100Y-64922400D01*
X120098701Y-66111001D02*
X119773699Y-65785999D01*
X120098701Y-73112929D02*
X120098701Y-66111001D01*
X119925000Y-73286630D02*
X120098701Y-73112929D01*
X119925000Y-73893799D02*
X119925000Y-73286630D01*
X122273499Y-73893799D02*
X119925000Y-73893799D01*
X119925000Y-73893799D02*
X118339571Y-73893799D01*
X146599879Y-84675121D02*
X146714870Y-84560130D01*
X144465910Y-89271710D02*
X144013188Y-89271710D01*
X148800820Y-93606620D02*
X144465910Y-89271710D01*
X141851599Y-87110121D02*
X141851599Y-84990119D01*
X144013188Y-89271710D02*
X141851599Y-87110121D01*
X141851599Y-84990119D02*
X142166597Y-84675121D01*
X142166597Y-84675121D02*
X146599879Y-84675121D01*
X149500159Y-72919159D02*
X148600160Y-72019160D01*
X149825161Y-73244161D02*
X149500159Y-72919159D01*
X149825161Y-85307161D02*
X149825161Y-73244161D01*
X149188161Y-85944161D02*
X149825161Y-85307161D01*
X148012159Y-85944161D02*
X149188161Y-85944161D01*
X146714870Y-84646872D02*
X148012159Y-85944161D01*
X146714870Y-84560130D02*
X146714870Y-84646872D01*
G04 #@! TO.N,+5V*
X116370100Y-67462400D02*
X118910100Y-67462400D01*
G04 #@! TO.N,GND*
X124244100Y-82194400D02*
X124544100Y-82194400D01*
D25*
X116370100Y-115722400D02*
X118910100Y-115722400D01*
X116370100Y-118262400D02*
X118910100Y-118262400D01*
D26*
X164630100Y-62382400D02*
X167170100Y-62382400D01*
D27*
X128226820Y-104698800D02*
X132857240Y-109329220D01*
X124968000Y-104698800D02*
X128226820Y-104698800D01*
X130756020Y-122468000D02*
X127508000Y-122468000D01*
X132857240Y-124569220D02*
X130756020Y-122468000D01*
X130238500Y-51054000D02*
X130804920Y-51054000D01*
X118910100Y-62382400D02*
X130238500Y-51054000D01*
X127784920Y-51054000D02*
X130804920Y-51054000D01*
X125464900Y-51054000D02*
X127784920Y-51054000D01*
X116370100Y-60148800D02*
X125464900Y-51054000D01*
X116370100Y-62382400D02*
X116370100Y-60148800D01*
X133512100Y-73253600D02*
X136182100Y-73253600D01*
X123504499Y-63245999D02*
X133512100Y-73253600D01*
X119773699Y-63245999D02*
X123504499Y-63245999D01*
X118910100Y-62382400D02*
X119773699Y-63245999D01*
X148195540Y-69074540D02*
X148600160Y-69479160D01*
X140661160Y-69074540D02*
X148195540Y-69074540D01*
X136482100Y-73253600D02*
X140661160Y-69074540D01*
X136182100Y-73253600D02*
X136482100Y-73253600D01*
D28*
X117006509Y-60202411D02*
X117006509Y-62382400D01*
X130804920Y-51054000D02*
X126154920Y-51054000D01*
X126154920Y-51054000D02*
X117006509Y-60202411D01*
D27*
X126914100Y-82194400D02*
X124244100Y-82194400D01*
X136541707Y-91822007D02*
X126914100Y-82194400D01*
X136541707Y-97348077D02*
X136541707Y-91822007D01*
X141818630Y-102625000D02*
X136541707Y-97348077D01*
X142950000Y-102625000D02*
X141818630Y-102625000D01*
X147431120Y-83550120D02*
X148600160Y-84719160D01*
X142976600Y-83550120D02*
X147431120Y-83550120D01*
X124899090Y-81539410D02*
X124244100Y-82194400D01*
X140965890Y-81539410D02*
X124899090Y-81539410D01*
X142976600Y-83550120D02*
X140965890Y-81539410D01*
X131563020Y-123275000D02*
X132857240Y-124569220D01*
X126275000Y-123275000D02*
X131563020Y-123275000D01*
X167170100Y-61161086D02*
X167170100Y-62382400D01*
X167170100Y-60807378D02*
X167170100Y-61161086D01*
X154881721Y-48518999D02*
X167170100Y-60807378D01*
X133824920Y-51054000D02*
X130804920Y-51054000D01*
X136359921Y-48518999D02*
X133824920Y-51054000D01*
X154881721Y-48518999D02*
X136359921Y-48518999D01*
X164630100Y-58267378D02*
X154881721Y-48518999D01*
X164630100Y-62382400D02*
X164630100Y-58267378D01*
G04 #@! TO.N,Net-(D4-Pad2)*
X150281500Y-123253500D02*
X149819360Y-123253500D01*
X152720009Y-120814991D02*
X150281500Y-123253500D01*
X152720009Y-116964491D02*
X152720009Y-120814991D01*
X155232100Y-114452400D02*
X152720009Y-116964491D01*
X155055000Y-123285000D02*
X157050000Y-125280000D01*
X150250000Y-123285000D02*
X155055000Y-123285000D01*
D24*
G04 #@! TO.N,SPINDLE_PWM*
X151035741Y-127760741D02*
X150250000Y-126975000D01*
X159607687Y-127760741D02*
X151035741Y-127760741D01*
X168475000Y-118893428D02*
X159607687Y-127760741D01*
X165818701Y-86431001D02*
X165818701Y-88190131D01*
X164630100Y-85242400D02*
X165818701Y-86431001D01*
X165818701Y-88190131D02*
X166762369Y-89133799D01*
X166762369Y-89133799D02*
X167740629Y-89133799D01*
X167740629Y-89133799D02*
X168475000Y-89868170D01*
X168475000Y-89868170D02*
X168475000Y-118893428D01*
X150250000Y-126975000D02*
X150250000Y-125825000D01*
G04 #@! TO.N,Z_ENABLE*
X165166630Y-83925000D02*
X166389230Y-82702400D01*
X164188370Y-83925000D02*
X165166630Y-83925000D01*
X163425000Y-88336430D02*
X163425000Y-84688370D01*
X163425000Y-84688370D02*
X164188370Y-83925000D01*
X164222369Y-89133799D02*
X163425000Y-88336430D01*
X165200629Y-89133799D02*
X164222369Y-89133799D01*
X165818701Y-89751871D02*
X165200629Y-89133799D01*
X165818701Y-106132929D02*
X165818701Y-89751871D01*
X166389230Y-82702400D02*
X167170100Y-82702400D01*
X165037831Y-106913799D02*
X165818701Y-106132929D01*
X163433641Y-106913799D02*
X165037831Y-106913799D01*
X161500820Y-108846620D02*
X163433641Y-106913799D01*
G04 #@! TO.N,SPIO_DI*
X126749512Y-85496400D02*
X121704100Y-85496400D01*
X127493030Y-88685032D02*
X127493029Y-86239917D01*
X127606398Y-88798400D02*
X127493030Y-88685032D01*
X127606399Y-101481399D02*
X127606398Y-88798400D01*
X131275000Y-105150000D02*
X127606399Y-101481399D01*
X121704100Y-85496400D02*
X118910100Y-82702400D01*
X145557240Y-124569220D02*
X147232251Y-122894209D01*
X147232251Y-114271229D02*
X146145241Y-113184219D01*
X146145241Y-113184219D02*
X143134219Y-113184219D01*
X147232251Y-122894209D02*
X147232251Y-114271229D01*
X143134219Y-113184219D02*
X135100000Y-105150000D01*
X127493029Y-86239917D02*
X126749512Y-85496400D01*
X135100000Y-105150000D02*
X131275000Y-105150000D01*
X160400161Y-85619159D02*
X161300160Y-84719160D01*
X159625150Y-86394170D02*
X160400161Y-85619159D01*
X159625150Y-104430950D02*
X159625150Y-86394170D01*
X161500820Y-106306620D02*
X159625150Y-104430950D01*
G04 #@! TO.N,SPIO_SCL*
X146782241Y-120804219D02*
X145557240Y-122029220D01*
X146145241Y-115724219D02*
X146782241Y-116361219D01*
X135007189Y-105700000D02*
X145031408Y-115724219D01*
X131125000Y-105700000D02*
X135007189Y-105700000D01*
X146782241Y-116361219D02*
X146782241Y-120804219D01*
X131100000Y-105675000D02*
X131125000Y-105700000D01*
X118910100Y-87782400D02*
X119773699Y-88645999D01*
X119773699Y-89295846D02*
X126593010Y-96115157D01*
X145031408Y-115724219D02*
X146145241Y-115724219D01*
X126593010Y-96115157D02*
X126593010Y-101193010D01*
X119773699Y-88645999D02*
X119773699Y-89295846D01*
X126593010Y-101193010D02*
X131075000Y-105675000D01*
X131075000Y-105675000D02*
X131100000Y-105675000D01*
G04 #@! TO.N,SPIO_CSZ*
X165818701Y-78973799D02*
X167170100Y-77622400D01*
X161500820Y-101226620D02*
X160150000Y-99875800D01*
X165818701Y-80732929D02*
X165818701Y-78973799D01*
X164273999Y-81351001D02*
X165200629Y-81351001D01*
X162974990Y-82650010D02*
X164273999Y-81351001D01*
X165200629Y-81351001D02*
X165818701Y-80732929D01*
X162974990Y-87397332D02*
X162974990Y-82650010D01*
X160297322Y-90075000D02*
X162974990Y-87397332D01*
X160150000Y-90075000D02*
X160297322Y-90075000D01*
X160150000Y-99875800D02*
X160150000Y-90075000D01*
G04 #@! TO.N,SPIO_DO*
X117233699Y-88645999D02*
X116370100Y-87782400D01*
X117558701Y-88971001D02*
X117233699Y-88645999D01*
X117558701Y-100890131D02*
X117558701Y-88971001D01*
X119317831Y-101671001D02*
X118339571Y-101671001D01*
X120098701Y-105254503D02*
X120098701Y-102451871D01*
X123407999Y-108563801D02*
X120098701Y-105254503D01*
X120098701Y-102451871D02*
X119317831Y-101671001D01*
X126737501Y-108563801D02*
X123407999Y-108563801D01*
X128727921Y-110554221D02*
X126737501Y-108563801D01*
X118339571Y-101671001D02*
X117558701Y-100890131D01*
X133100000Y-110554221D02*
X128727921Y-110554221D01*
X133355243Y-110554221D02*
X133100000Y-110554221D01*
X139225000Y-110554221D02*
X133100000Y-110554221D01*
X144305000Y-115634221D02*
X139225000Y-110554221D01*
X144305000Y-115696980D02*
X145557240Y-116949220D01*
X144305000Y-115634221D02*
X144305000Y-115696980D01*
G04 #@! TO.N,Y_DIR*
X164630100Y-79381530D02*
X164630100Y-80162400D01*
X165818701Y-78192929D02*
X164630100Y-79381530D01*
X165818701Y-71971871D02*
X165818701Y-78192929D01*
X165037831Y-71191001D02*
X165818701Y-71971871D01*
X161300160Y-69479160D02*
X163012001Y-71191001D01*
X163012001Y-71191001D02*
X165037831Y-71191001D01*
G04 #@! TO.N,SPIO_CSY*
X162156000Y-44300000D02*
X120400000Y-44300000D01*
X168358701Y-65492929D02*
X168358701Y-50502701D01*
X167740629Y-66111001D02*
X168358701Y-65492929D01*
X162855317Y-66111001D02*
X167740629Y-66111001D01*
X115181499Y-49518501D02*
X115181499Y-73893799D01*
X160075159Y-68891159D02*
X162855317Y-66111001D01*
X120400000Y-44300000D02*
X115181499Y-49518501D01*
X160075159Y-72607161D02*
X160075159Y-68891159D01*
X160712159Y-73244161D02*
X160075159Y-72607161D01*
X115181499Y-73893799D02*
X116370100Y-75082400D01*
X161888161Y-73244161D02*
X160712159Y-73244161D01*
X162525161Y-73881161D02*
X161888161Y-73244161D01*
X168358701Y-50502701D02*
X162156000Y-44300000D01*
X162525161Y-78414159D02*
X162525161Y-73881161D01*
X161300160Y-79639160D02*
X162525161Y-78414159D01*
G04 #@! TO.N,X_ENABLE*
X147682261Y-124984198D02*
X145557240Y-127109220D01*
X147682261Y-112107261D02*
X147682261Y-124984198D01*
X146129221Y-110554221D02*
X147682261Y-112107261D01*
X141140631Y-110554221D02*
X146129221Y-110554221D01*
X135531699Y-104945289D02*
X141140631Y-110554221D01*
X118910100Y-75082400D02*
X122619090Y-78791390D01*
X122619090Y-78791390D02*
X122619090Y-82743237D01*
X122619090Y-82743237D02*
X123395263Y-83519410D01*
X123395263Y-83519410D02*
X126045342Y-83519410D01*
X126045342Y-83519410D02*
X135531699Y-93005767D01*
X135531699Y-93005767D02*
X135531699Y-104945289D01*
G04 #@! TO.N,SPI0_CSX*
X116370100Y-82702400D02*
X115181499Y-83891001D01*
X119351001Y-106751001D02*
X115632500Y-106751001D01*
X121613811Y-109013811D02*
X119351001Y-106751001D01*
X130375988Y-113094221D02*
X126295578Y-109013811D01*
X115632500Y-106751001D02*
X115181499Y-106300000D01*
X126295578Y-109013811D02*
X121613811Y-109013811D01*
X115181499Y-83891001D02*
X115181499Y-106300000D01*
X133394221Y-113094221D02*
X132900000Y-113094221D01*
X132900000Y-113094221D02*
X130375988Y-113094221D01*
X144325000Y-118256980D02*
X145557240Y-119489220D01*
X144325000Y-116425000D02*
X144325000Y-118256980D01*
X132900000Y-113094221D02*
X140994221Y-113094221D01*
X140994221Y-113094221D02*
X144325000Y-116425000D01*
G04 #@! TO.N,POLY_READY*
X119773699Y-93725999D02*
X118910100Y-92862400D01*
X123342990Y-97295290D02*
X119773699Y-93725999D01*
X123342990Y-98293790D02*
X123342990Y-97295290D01*
X124668000Y-99618800D02*
X123342990Y-98293790D01*
X124968000Y-99618800D02*
X124668000Y-99618800D01*
G04 #@! TO.N,X_PO*
X117233699Y-79298801D02*
X116370100Y-80162400D01*
X117721499Y-78811001D02*
X117233699Y-79298801D01*
X119317831Y-78811001D02*
X117721499Y-78811001D01*
X120098701Y-80518000D02*
X120098701Y-79591871D01*
X120098701Y-80732929D02*
X120098701Y-80518000D01*
X120098701Y-79591871D02*
X119317831Y-78811001D01*
X131906680Y-100970080D02*
X133456680Y-100970080D01*
X120098701Y-82760701D02*
X122194478Y-84856478D01*
X120098701Y-80518000D02*
X120098701Y-82760701D01*
X122194478Y-84856478D02*
X126746000Y-84856478D01*
X126746000Y-84856478D02*
X128056408Y-86166886D01*
X128056408Y-86166886D02*
X128056408Y-97119808D01*
X128056408Y-97119808D02*
X131906680Y-100970080D01*
D28*
G04 #@! TO.N,Net-(F2-Pad1)*
X160376880Y-57765960D02*
X153664920Y-51054000D01*
X160376880Y-64109600D02*
X160376880Y-57765960D01*
X155025000Y-52414080D02*
X155025000Y-64109600D01*
X153664920Y-51054000D02*
X155025000Y-52414080D01*
G04 #@! TD*
D29*
G04 #@! TO.N,+24V*
G36*
X121023481Y-109498283D02*
X121065882Y-109561740D01*
X121317274Y-109729715D01*
X121538959Y-109773811D01*
X121538963Y-109773811D01*
X121613811Y-109788699D01*
X121688659Y-109773811D01*
X125215120Y-109773811D01*
X124835431Y-110027511D01*
X124474064Y-110568335D01*
X124347169Y-111206280D01*
X124474064Y-111844225D01*
X124835431Y-112385049D01*
X124971968Y-112476280D01*
X124835431Y-112567511D01*
X124474064Y-113108335D01*
X124347169Y-113746280D01*
X124474064Y-114384225D01*
X124835431Y-114925049D01*
X124971968Y-115016280D01*
X124835431Y-115107511D01*
X124474064Y-115648335D01*
X124347169Y-116286280D01*
X124474064Y-116924225D01*
X124704689Y-117269380D01*
X124556391Y-117368471D01*
X124416043Y-117578515D01*
X124366760Y-117826280D01*
X124366760Y-119826280D01*
X124416043Y-120074045D01*
X124556391Y-120284089D01*
X124766435Y-120424437D01*
X125014200Y-120473720D01*
X127614200Y-120473720D01*
X127861965Y-120424437D01*
X128072009Y-120284089D01*
X128212357Y-120074045D01*
X128261640Y-119826280D01*
X128261640Y-117826280D01*
X128212357Y-117578515D01*
X128072009Y-117368471D01*
X127923711Y-117269380D01*
X128154336Y-116924225D01*
X128281231Y-116286280D01*
X128154336Y-115648335D01*
X127792969Y-115107511D01*
X127656432Y-115016280D01*
X127792969Y-114925049D01*
X128154336Y-114384225D01*
X128281231Y-113746280D01*
X128154336Y-113108335D01*
X127792969Y-112567511D01*
X127656432Y-112476280D01*
X127792969Y-112385049D01*
X128113022Y-111906056D01*
X129785658Y-113578693D01*
X129828059Y-113642150D01*
X130079451Y-113810125D01*
X130301136Y-113854221D01*
X130301140Y-113854221D01*
X130375987Y-113869109D01*
X130450834Y-113854221D01*
X131402564Y-113854221D01*
X131292168Y-114409220D01*
X131411302Y-115008147D01*
X131750567Y-115515893D01*
X131995003Y-115679220D01*
X131750567Y-115842547D01*
X131411302Y-116350293D01*
X131292168Y-116949220D01*
X131411302Y-117548147D01*
X131750567Y-118055893D01*
X131995003Y-118219220D01*
X131750567Y-118382547D01*
X131411302Y-118890293D01*
X131292168Y-119489220D01*
X131411302Y-120088147D01*
X131750567Y-120595893D01*
X131995003Y-120759220D01*
X131750567Y-120922547D01*
X131463038Y-121352864D01*
X131271058Y-121224587D01*
X130886028Y-121148000D01*
X130886026Y-121148000D01*
X130756020Y-121122140D01*
X130626014Y-121148000D01*
X127377992Y-121148000D01*
X126992962Y-121224587D01*
X126556333Y-121516333D01*
X126340066Y-121840000D01*
X125989561Y-121840000D01*
X125462138Y-122058466D01*
X125058466Y-122462138D01*
X124840000Y-122989561D01*
X124840000Y-123560439D01*
X125058466Y-124087862D01*
X125321759Y-124351155D01*
X125115301Y-124436673D01*
X124936673Y-124615302D01*
X124840000Y-124848691D01*
X124840000Y-125489250D01*
X124998750Y-125648000D01*
X126148000Y-125648000D01*
X126148000Y-125628000D01*
X126402000Y-125628000D01*
X126402000Y-125648000D01*
X127551250Y-125648000D01*
X127710000Y-125489250D01*
X127710000Y-124848691D01*
X127613327Y-124615302D01*
X127593025Y-124595000D01*
X131016258Y-124595000D01*
X131367078Y-124945820D01*
X131411302Y-125168147D01*
X131750567Y-125675893D01*
X132258313Y-126015158D01*
X132706058Y-126104220D01*
X133008422Y-126104220D01*
X133456167Y-126015158D01*
X133963913Y-125675893D01*
X134303178Y-125168147D01*
X134422312Y-124569220D01*
X134303178Y-123970293D01*
X133963913Y-123462547D01*
X133719477Y-123299220D01*
X133963913Y-123135893D01*
X134303178Y-122628147D01*
X134422312Y-122029220D01*
X134303178Y-121430293D01*
X133963913Y-120922547D01*
X133719477Y-120759220D01*
X133963913Y-120595893D01*
X134303178Y-120088147D01*
X134422312Y-119489220D01*
X134303178Y-118890293D01*
X133963913Y-118382547D01*
X133719477Y-118219220D01*
X133963913Y-118055893D01*
X134303178Y-117548147D01*
X134422312Y-116949220D01*
X134303178Y-116350293D01*
X133963913Y-115842547D01*
X133719477Y-115679220D01*
X133963913Y-115515893D01*
X134303178Y-115008147D01*
X134422312Y-114409220D01*
X134311916Y-113854221D01*
X140679420Y-113854221D01*
X143565000Y-116739802D01*
X143565001Y-118182128D01*
X143550112Y-118256980D01*
X143609097Y-118553517D01*
X143686391Y-118669195D01*
X143777072Y-118804909D01*
X143840528Y-118847309D01*
X144073509Y-119080290D01*
X143992168Y-119489220D01*
X144111302Y-120088147D01*
X144450567Y-120595893D01*
X144695003Y-120759220D01*
X144450567Y-120922547D01*
X144111302Y-121430293D01*
X143992168Y-122029220D01*
X144111302Y-122628147D01*
X144450567Y-123135893D01*
X144695003Y-123299220D01*
X144450567Y-123462547D01*
X144111302Y-123970293D01*
X143992168Y-124569220D01*
X144111302Y-125168147D01*
X144450567Y-125675893D01*
X144695003Y-125839220D01*
X144450567Y-126002547D01*
X144111302Y-126510293D01*
X143992168Y-127109220D01*
X144111302Y-127708147D01*
X144450567Y-128215893D01*
X144757726Y-128421130D01*
X127182875Y-128421130D01*
X125820482Y-128344961D01*
X124492617Y-128120369D01*
X123198070Y-127749164D01*
X121952963Y-127235967D01*
X120772826Y-126587182D01*
X120026561Y-126060750D01*
X124840000Y-126060750D01*
X124840000Y-126701309D01*
X124936673Y-126934698D01*
X125115301Y-127113327D01*
X125348690Y-127210000D01*
X125989250Y-127210000D01*
X126148000Y-127051250D01*
X126148000Y-125902000D01*
X126402000Y-125902000D01*
X126402000Y-127051250D01*
X126560750Y-127210000D01*
X127201310Y-127210000D01*
X127434699Y-127113327D01*
X127613327Y-126934698D01*
X127710000Y-126701309D01*
X127710000Y-126060750D01*
X127551250Y-125902000D01*
X126402000Y-125902000D01*
X126148000Y-125902000D01*
X124998750Y-125902000D01*
X124840000Y-126060750D01*
X120026561Y-126060750D01*
X119672356Y-125810886D01*
X118665281Y-124916762D01*
X117764149Y-123915953D01*
X116980196Y-122820939D01*
X116323187Y-121645361D01*
X115801309Y-120403863D01*
X115537833Y-119508647D01*
X115785375Y-119674050D01*
X116222502Y-119761000D01*
X116517698Y-119761000D01*
X116954825Y-119674050D01*
X117450530Y-119342830D01*
X117514294Y-119247400D01*
X117765906Y-119247400D01*
X117829670Y-119342830D01*
X118325375Y-119674050D01*
X118762502Y-119761000D01*
X119057698Y-119761000D01*
X119494825Y-119674050D01*
X119990530Y-119342830D01*
X120321750Y-118847125D01*
X120438059Y-118262400D01*
X120321750Y-117677675D01*
X119990530Y-117181970D01*
X119706819Y-116992400D01*
X119990530Y-116802830D01*
X120321750Y-116307125D01*
X120438059Y-115722400D01*
X120321750Y-115137675D01*
X119990530Y-114641970D01*
X119706819Y-114452400D01*
X119990530Y-114262830D01*
X120321750Y-113767125D01*
X120438059Y-113182400D01*
X120321750Y-112597675D01*
X119990530Y-112101970D01*
X119706819Y-111912400D01*
X119990530Y-111722830D01*
X120321750Y-111227125D01*
X120438059Y-110642400D01*
X120321750Y-110057675D01*
X119990530Y-109561970D01*
X119706819Y-109372400D01*
X119990530Y-109182830D01*
X120277920Y-108752721D01*
X121023481Y-109498283D01*
X121023481Y-109498283D01*
G37*
X121023481Y-109498283D02*
X121065882Y-109561740D01*
X121317274Y-109729715D01*
X121538959Y-109773811D01*
X121538963Y-109773811D01*
X121613811Y-109788699D01*
X121688659Y-109773811D01*
X125215120Y-109773811D01*
X124835431Y-110027511D01*
X124474064Y-110568335D01*
X124347169Y-111206280D01*
X124474064Y-111844225D01*
X124835431Y-112385049D01*
X124971968Y-112476280D01*
X124835431Y-112567511D01*
X124474064Y-113108335D01*
X124347169Y-113746280D01*
X124474064Y-114384225D01*
X124835431Y-114925049D01*
X124971968Y-115016280D01*
X124835431Y-115107511D01*
X124474064Y-115648335D01*
X124347169Y-116286280D01*
X124474064Y-116924225D01*
X124704689Y-117269380D01*
X124556391Y-117368471D01*
X124416043Y-117578515D01*
X124366760Y-117826280D01*
X124366760Y-119826280D01*
X124416043Y-120074045D01*
X124556391Y-120284089D01*
X124766435Y-120424437D01*
X125014200Y-120473720D01*
X127614200Y-120473720D01*
X127861965Y-120424437D01*
X128072009Y-120284089D01*
X128212357Y-120074045D01*
X128261640Y-119826280D01*
X128261640Y-117826280D01*
X128212357Y-117578515D01*
X128072009Y-117368471D01*
X127923711Y-117269380D01*
X128154336Y-116924225D01*
X128281231Y-116286280D01*
X128154336Y-115648335D01*
X127792969Y-115107511D01*
X127656432Y-115016280D01*
X127792969Y-114925049D01*
X128154336Y-114384225D01*
X128281231Y-113746280D01*
X128154336Y-113108335D01*
X127792969Y-112567511D01*
X127656432Y-112476280D01*
X127792969Y-112385049D01*
X128113022Y-111906056D01*
X129785658Y-113578693D01*
X129828059Y-113642150D01*
X130079451Y-113810125D01*
X130301136Y-113854221D01*
X130301140Y-113854221D01*
X130375987Y-113869109D01*
X130450834Y-113854221D01*
X131402564Y-113854221D01*
X131292168Y-114409220D01*
X131411302Y-115008147D01*
X131750567Y-115515893D01*
X131995003Y-115679220D01*
X131750567Y-115842547D01*
X131411302Y-116350293D01*
X131292168Y-116949220D01*
X131411302Y-117548147D01*
X131750567Y-118055893D01*
X131995003Y-118219220D01*
X131750567Y-118382547D01*
X131411302Y-118890293D01*
X131292168Y-119489220D01*
X131411302Y-120088147D01*
X131750567Y-120595893D01*
X131995003Y-120759220D01*
X131750567Y-120922547D01*
X131463038Y-121352864D01*
X131271058Y-121224587D01*
X130886028Y-121148000D01*
X130886026Y-121148000D01*
X130756020Y-121122140D01*
X130626014Y-121148000D01*
X127377992Y-121148000D01*
X126992962Y-121224587D01*
X126556333Y-121516333D01*
X126340066Y-121840000D01*
X125989561Y-121840000D01*
X125462138Y-122058466D01*
X125058466Y-122462138D01*
X124840000Y-122989561D01*
X124840000Y-123560439D01*
X125058466Y-124087862D01*
X125321759Y-124351155D01*
X125115301Y-124436673D01*
X124936673Y-124615302D01*
X124840000Y-124848691D01*
X124840000Y-125489250D01*
X124998750Y-125648000D01*
X126148000Y-125648000D01*
X126148000Y-125628000D01*
X126402000Y-125628000D01*
X126402000Y-125648000D01*
X127551250Y-125648000D01*
X127710000Y-125489250D01*
X127710000Y-124848691D01*
X127613327Y-124615302D01*
X127593025Y-124595000D01*
X131016258Y-124595000D01*
X131367078Y-124945820D01*
X131411302Y-125168147D01*
X131750567Y-125675893D01*
X132258313Y-126015158D01*
X132706058Y-126104220D01*
X133008422Y-126104220D01*
X133456167Y-126015158D01*
X133963913Y-125675893D01*
X134303178Y-125168147D01*
X134422312Y-124569220D01*
X134303178Y-123970293D01*
X133963913Y-123462547D01*
X133719477Y-123299220D01*
X133963913Y-123135893D01*
X134303178Y-122628147D01*
X134422312Y-122029220D01*
X134303178Y-121430293D01*
X133963913Y-120922547D01*
X133719477Y-120759220D01*
X133963913Y-120595893D01*
X134303178Y-120088147D01*
X134422312Y-119489220D01*
X134303178Y-118890293D01*
X133963913Y-118382547D01*
X133719477Y-118219220D01*
X133963913Y-118055893D01*
X134303178Y-117548147D01*
X134422312Y-116949220D01*
X134303178Y-116350293D01*
X133963913Y-115842547D01*
X133719477Y-115679220D01*
X133963913Y-115515893D01*
X134303178Y-115008147D01*
X134422312Y-114409220D01*
X134311916Y-113854221D01*
X140679420Y-113854221D01*
X143565000Y-116739802D01*
X143565001Y-118182128D01*
X143550112Y-118256980D01*
X143609097Y-118553517D01*
X143686391Y-118669195D01*
X143777072Y-118804909D01*
X143840528Y-118847309D01*
X144073509Y-119080290D01*
X143992168Y-119489220D01*
X144111302Y-120088147D01*
X144450567Y-120595893D01*
X144695003Y-120759220D01*
X144450567Y-120922547D01*
X144111302Y-121430293D01*
X143992168Y-122029220D01*
X144111302Y-122628147D01*
X144450567Y-123135893D01*
X144695003Y-123299220D01*
X144450567Y-123462547D01*
X144111302Y-123970293D01*
X143992168Y-124569220D01*
X144111302Y-125168147D01*
X144450567Y-125675893D01*
X144695003Y-125839220D01*
X144450567Y-126002547D01*
X144111302Y-126510293D01*
X143992168Y-127109220D01*
X144111302Y-127708147D01*
X144450567Y-128215893D01*
X144757726Y-128421130D01*
X127182875Y-128421130D01*
X125820482Y-128344961D01*
X124492617Y-128120369D01*
X123198070Y-127749164D01*
X121952963Y-127235967D01*
X120772826Y-126587182D01*
X120026561Y-126060750D01*
X124840000Y-126060750D01*
X124840000Y-126701309D01*
X124936673Y-126934698D01*
X125115301Y-127113327D01*
X125348690Y-127210000D01*
X125989250Y-127210000D01*
X126148000Y-127051250D01*
X126148000Y-125902000D01*
X126402000Y-125902000D01*
X126402000Y-127051250D01*
X126560750Y-127210000D01*
X127201310Y-127210000D01*
X127434699Y-127113327D01*
X127613327Y-126934698D01*
X127710000Y-126701309D01*
X127710000Y-126060750D01*
X127551250Y-125902000D01*
X126402000Y-125902000D01*
X126148000Y-125902000D01*
X124998750Y-125902000D01*
X124840000Y-126060750D01*
X120026561Y-126060750D01*
X119672356Y-125810886D01*
X118665281Y-124916762D01*
X117764149Y-123915953D01*
X116980196Y-122820939D01*
X116323187Y-121645361D01*
X115801309Y-120403863D01*
X115537833Y-119508647D01*
X115785375Y-119674050D01*
X116222502Y-119761000D01*
X116517698Y-119761000D01*
X116954825Y-119674050D01*
X117450530Y-119342830D01*
X117514294Y-119247400D01*
X117765906Y-119247400D01*
X117829670Y-119342830D01*
X118325375Y-119674050D01*
X118762502Y-119761000D01*
X119057698Y-119761000D01*
X119494825Y-119674050D01*
X119990530Y-119342830D01*
X120321750Y-118847125D01*
X120438059Y-118262400D01*
X120321750Y-117677675D01*
X119990530Y-117181970D01*
X119706819Y-116992400D01*
X119990530Y-116802830D01*
X120321750Y-116307125D01*
X120438059Y-115722400D01*
X120321750Y-115137675D01*
X119990530Y-114641970D01*
X119706819Y-114452400D01*
X119990530Y-114262830D01*
X120321750Y-113767125D01*
X120438059Y-113182400D01*
X120321750Y-112597675D01*
X119990530Y-112101970D01*
X119706819Y-111912400D01*
X119990530Y-111722830D01*
X120321750Y-111227125D01*
X120438059Y-110642400D01*
X120321750Y-110057675D01*
X119990530Y-109561970D01*
X119706819Y-109372400D01*
X119990530Y-109182830D01*
X120277920Y-108752721D01*
X121023481Y-109498283D01*
G36*
X143759920Y-50599485D02*
X143759920Y-51508515D01*
X144107790Y-52348349D01*
X144750571Y-52991130D01*
X145590405Y-53339000D01*
X146499435Y-53339000D01*
X147339269Y-52991130D01*
X147982050Y-52348349D01*
X148329920Y-51508515D01*
X148329920Y-50599485D01*
X148014917Y-49838999D01*
X151694923Y-49838999D01*
X151379920Y-50599485D01*
X151379920Y-51508515D01*
X151727790Y-52348349D01*
X152370571Y-52991130D01*
X152732706Y-53141131D01*
X152890000Y-53298425D01*
X152890001Y-62770327D01*
X152540000Y-63615303D01*
X152540000Y-64603897D01*
X152918319Y-65517239D01*
X153617361Y-66216281D01*
X154530703Y-66594600D01*
X155519297Y-66594600D01*
X156432639Y-66216281D01*
X157131681Y-65517239D01*
X157510000Y-64603897D01*
X157510000Y-63615303D01*
X157160000Y-62770329D01*
X157160000Y-57568426D01*
X158241881Y-58650307D01*
X158241880Y-62378400D01*
X157918319Y-62701961D01*
X157540000Y-63615303D01*
X157540000Y-64603897D01*
X157918319Y-65517239D01*
X158617361Y-66216281D01*
X159530703Y-66594600D01*
X160519297Y-66594600D01*
X161432639Y-66216281D01*
X162131681Y-65517239D01*
X162339816Y-65014758D01*
X162388006Y-64942636D01*
X162404928Y-64857563D01*
X162510000Y-64603897D01*
X162510000Y-64329330D01*
X162511880Y-64319879D01*
X162511880Y-58015920D01*
X163310101Y-58814141D01*
X163310100Y-61060049D01*
X163308691Y-61060991D01*
X163168343Y-61271035D01*
X163119060Y-61518800D01*
X163119060Y-63246000D01*
X163168343Y-63493765D01*
X163308691Y-63703809D01*
X163518735Y-63844157D01*
X163544751Y-63849332D01*
X163218450Y-64337675D01*
X163102141Y-64922400D01*
X163187395Y-65351001D01*
X162930163Y-65351001D01*
X162855316Y-65336113D01*
X162780469Y-65351001D01*
X162780465Y-65351001D01*
X162558780Y-65395097D01*
X162307388Y-65563072D01*
X162264988Y-65626528D01*
X159590687Y-68300830D01*
X159527231Y-68343230D01*
X159484831Y-68406686D01*
X159484830Y-68406687D01*
X159359256Y-68594622D01*
X159300271Y-68891159D01*
X159315160Y-68966011D01*
X159315159Y-72532314D01*
X159300271Y-72607161D01*
X159315159Y-72682008D01*
X159315159Y-72682012D01*
X159359255Y-72903697D01*
X159527230Y-73155090D01*
X159590689Y-73197492D01*
X160054176Y-73660980D01*
X159854222Y-73960233D01*
X159735088Y-74559160D01*
X159854222Y-75158087D01*
X160193487Y-75665833D01*
X160437923Y-75829160D01*
X160193487Y-75992487D01*
X159854222Y-76500233D01*
X159735088Y-77099160D01*
X159854222Y-77698087D01*
X160193487Y-78205833D01*
X160437923Y-78369160D01*
X160193487Y-78532487D01*
X159854222Y-79040233D01*
X159735088Y-79639160D01*
X159854222Y-80238087D01*
X160193487Y-80745833D01*
X160437923Y-80909160D01*
X160193487Y-81072487D01*
X159854222Y-81580233D01*
X159735088Y-82179160D01*
X159854222Y-82778087D01*
X160193487Y-83285833D01*
X160437923Y-83449160D01*
X160193487Y-83612487D01*
X159854222Y-84120233D01*
X159735088Y-84719160D01*
X159816429Y-85128089D01*
X159140678Y-85803841D01*
X159077222Y-85846241D01*
X159034822Y-85909697D01*
X159034821Y-85909698D01*
X158909247Y-86097633D01*
X158850262Y-86394170D01*
X158865151Y-86469022D01*
X158865150Y-104356103D01*
X158850262Y-104430950D01*
X158865150Y-104505797D01*
X158865150Y-104505801D01*
X158909246Y-104727486D01*
X159077221Y-104978879D01*
X159140680Y-105021281D01*
X160017089Y-105897691D01*
X159935748Y-106306620D01*
X160054882Y-106905547D01*
X160394147Y-107413293D01*
X160638583Y-107576620D01*
X160394147Y-107739947D01*
X160054882Y-108247693D01*
X159935748Y-108846620D01*
X160054882Y-109445547D01*
X160394147Y-109953293D01*
X160901893Y-110292558D01*
X161349638Y-110381620D01*
X161652002Y-110381620D01*
X162099747Y-110292558D01*
X162607493Y-109953293D01*
X162946758Y-109445547D01*
X163065892Y-108846620D01*
X162984551Y-108437691D01*
X163138260Y-108283982D01*
X163218450Y-108687125D01*
X163549670Y-109182830D01*
X163833381Y-109372400D01*
X163549670Y-109561970D01*
X163218450Y-110057675D01*
X163102141Y-110642400D01*
X163218450Y-111227125D01*
X163549670Y-111722830D01*
X163833381Y-111912400D01*
X163549670Y-112101970D01*
X163218450Y-112597675D01*
X163102141Y-113182400D01*
X163218450Y-113767125D01*
X163549670Y-114262830D01*
X163833381Y-114452400D01*
X163549670Y-114641970D01*
X163218450Y-115137675D01*
X163102141Y-115722400D01*
X163218450Y-116307125D01*
X163549670Y-116802830D01*
X163833381Y-116992400D01*
X163549670Y-117181970D01*
X163218450Y-117677675D01*
X163102141Y-118262400D01*
X163218450Y-118847125D01*
X163549670Y-119342830D01*
X164045375Y-119674050D01*
X164482502Y-119761000D01*
X164777698Y-119761000D01*
X165214825Y-119674050D01*
X165710530Y-119342830D01*
X165900100Y-119059119D01*
X166089670Y-119342830D01*
X166585375Y-119674050D01*
X166613901Y-119679724D01*
X159292886Y-127000741D01*
X158348605Y-127000741D01*
X158859966Y-126489380D01*
X159185000Y-125704678D01*
X159185000Y-124855322D01*
X158859966Y-124070620D01*
X158259380Y-123470034D01*
X157474678Y-123145000D01*
X156781761Y-123145000D01*
X156080313Y-122443552D01*
X156006667Y-122333333D01*
X155570038Y-122041587D01*
X155185008Y-121965000D01*
X155185006Y-121965000D01*
X155055000Y-121939140D01*
X154924994Y-121965000D01*
X153436762Y-121965000D01*
X153561460Y-121840302D01*
X153671676Y-121766658D01*
X153850542Y-121498966D01*
X153963421Y-121330031D01*
X153963421Y-121330030D01*
X153963422Y-121330029D01*
X154040009Y-120944999D01*
X154065869Y-120814992D01*
X154040009Y-120684985D01*
X154040009Y-117511252D01*
X155608700Y-115942562D01*
X155831027Y-115898338D01*
X156338773Y-115559073D01*
X156678038Y-115051327D01*
X156797172Y-114452400D01*
X156678038Y-113853473D01*
X156338773Y-113345727D01*
X155831027Y-113006462D01*
X155383282Y-112917400D01*
X155080918Y-112917400D01*
X154633173Y-113006462D01*
X154125427Y-113345727D01*
X153786162Y-113853473D01*
X153741938Y-114075800D01*
X151878558Y-115939181D01*
X151768342Y-116012825D01*
X151476596Y-116449454D01*
X151403661Y-116816125D01*
X151374149Y-116964491D01*
X151400009Y-117094498D01*
X151400010Y-119703185D01*
X151356673Y-119638327D01*
X150848927Y-119299062D01*
X150401182Y-119210000D01*
X150098818Y-119210000D01*
X149651073Y-119299062D01*
X149143327Y-119638327D01*
X148804062Y-120146073D01*
X148684928Y-120745000D01*
X148804062Y-121343927D01*
X149143327Y-121851673D01*
X149362956Y-121998424D01*
X149304322Y-122010087D01*
X148867693Y-122301833D01*
X148575947Y-122738462D01*
X148473500Y-123253500D01*
X148575947Y-123768538D01*
X148867693Y-124205167D01*
X149076015Y-124344363D01*
X148892191Y-124467191D01*
X148751843Y-124677235D01*
X148702560Y-124925000D01*
X148702560Y-126725000D01*
X148751843Y-126972765D01*
X148892191Y-127182809D01*
X149102235Y-127323157D01*
X149350000Y-127372440D01*
X149601518Y-127372440D01*
X149702071Y-127522929D01*
X149765530Y-127565331D01*
X150445412Y-128245214D01*
X150487812Y-128308670D01*
X150656120Y-128421130D01*
X146356754Y-128421130D01*
X146663913Y-128215893D01*
X147003178Y-127708147D01*
X147122312Y-127109220D01*
X147040971Y-126700290D01*
X148166734Y-125574527D01*
X148230190Y-125532127D01*
X148398165Y-125280735D01*
X148442261Y-125059050D01*
X148442261Y-125059045D01*
X148457149Y-124984198D01*
X148442261Y-124909351D01*
X148442261Y-112182107D01*
X148457149Y-112107260D01*
X148442261Y-112032413D01*
X148442261Y-112032409D01*
X148398165Y-111810724D01*
X148230190Y-111559332D01*
X148166734Y-111516932D01*
X146832855Y-110183054D01*
X147003178Y-109928147D01*
X147122312Y-109329220D01*
X147003178Y-108730293D01*
X146663913Y-108222547D01*
X146156167Y-107883282D01*
X145708422Y-107794220D01*
X145406058Y-107794220D01*
X144958313Y-107883282D01*
X144450567Y-108222547D01*
X144111302Y-108730293D01*
X143992168Y-109329220D01*
X144084662Y-109794221D01*
X141455433Y-109794221D01*
X137071962Y-105410750D01*
X141515000Y-105410750D01*
X141515000Y-106051309D01*
X141611673Y-106284698D01*
X141790301Y-106463327D01*
X142023690Y-106560000D01*
X142664250Y-106560000D01*
X142823000Y-106401250D01*
X142823000Y-105252000D01*
X143077000Y-105252000D01*
X143077000Y-106401250D01*
X143235750Y-106560000D01*
X143876310Y-106560000D01*
X144109699Y-106463327D01*
X144288327Y-106284698D01*
X144385000Y-106051309D01*
X144385000Y-105410750D01*
X144226250Y-105252000D01*
X143077000Y-105252000D01*
X142823000Y-105252000D01*
X141673750Y-105252000D01*
X141515000Y-105410750D01*
X137071962Y-105410750D01*
X136291699Y-104630488D01*
X136291699Y-98964830D01*
X140793319Y-103466451D01*
X140866963Y-103576667D01*
X141303592Y-103868413D01*
X141641373Y-103935602D01*
X141611673Y-103965302D01*
X141515000Y-104198691D01*
X141515000Y-104839250D01*
X141673750Y-104998000D01*
X142823000Y-104998000D01*
X142823000Y-104978000D01*
X143077000Y-104978000D01*
X143077000Y-104998000D01*
X144226250Y-104998000D01*
X144385000Y-104839250D01*
X144385000Y-104198691D01*
X144288327Y-103965302D01*
X144109699Y-103786673D01*
X143903241Y-103701155D01*
X144166534Y-103437862D01*
X144385000Y-102910439D01*
X144385000Y-102339561D01*
X144166534Y-101812138D01*
X143762862Y-101408466D01*
X143235439Y-101190000D01*
X142664561Y-101190000D01*
X142386927Y-101305000D01*
X142365392Y-101305000D01*
X137861707Y-96801316D01*
X137861707Y-91952013D01*
X137887567Y-91822006D01*
X137816048Y-91462455D01*
X137785120Y-91306969D01*
X137493374Y-90870340D01*
X137383158Y-90796696D01*
X129445871Y-82859410D01*
X140419129Y-82859410D01*
X141645066Y-84085348D01*
X141652919Y-84104306D01*
X141618668Y-84127192D01*
X141576267Y-84190649D01*
X141367126Y-84399790D01*
X141303671Y-84442190D01*
X141261271Y-84505646D01*
X141261270Y-84505647D01*
X141135696Y-84693582D01*
X141076711Y-84990119D01*
X141091600Y-85064971D01*
X141091599Y-87035274D01*
X141076711Y-87110121D01*
X141091599Y-87184968D01*
X141091599Y-87184972D01*
X141135695Y-87406657D01*
X141303670Y-87658050D01*
X141367129Y-87700452D01*
X142628396Y-88961720D01*
X142525729Y-88961720D01*
X142048815Y-89056584D01*
X141507991Y-89417951D01*
X141146624Y-89958775D01*
X141019729Y-90596720D01*
X141146624Y-91234665D01*
X141507991Y-91775489D01*
X141644528Y-91866720D01*
X141507991Y-91957951D01*
X141146624Y-92498775D01*
X141019729Y-93136720D01*
X141146624Y-93774665D01*
X141507991Y-94315489D01*
X141644528Y-94406720D01*
X141507991Y-94497951D01*
X141146624Y-95038775D01*
X141019729Y-95676720D01*
X141146624Y-96314665D01*
X141377249Y-96659820D01*
X141228951Y-96758911D01*
X141088603Y-96968955D01*
X141039320Y-97216720D01*
X141039320Y-99216720D01*
X141088603Y-99464485D01*
X141228951Y-99674529D01*
X141438995Y-99814877D01*
X141686760Y-99864160D01*
X144286760Y-99864160D01*
X144534525Y-99814877D01*
X144744569Y-99674529D01*
X144884917Y-99464485D01*
X144934200Y-99216720D01*
X144934200Y-97216720D01*
X144884917Y-96968955D01*
X144744569Y-96758911D01*
X144596271Y-96659820D01*
X144826896Y-96314665D01*
X144953791Y-95676720D01*
X144826896Y-95038775D01*
X144465529Y-94497951D01*
X144328992Y-94406720D01*
X144465529Y-94315489D01*
X144826896Y-93774665D01*
X144953791Y-93136720D01*
X144826896Y-92498775D01*
X144465529Y-91957951D01*
X144328992Y-91866720D01*
X144465529Y-91775489D01*
X144826896Y-91234665D01*
X144914359Y-90794960D01*
X147317089Y-93197691D01*
X147235748Y-93606620D01*
X147354882Y-94205547D01*
X147694147Y-94713293D01*
X147938583Y-94876620D01*
X147694147Y-95039947D01*
X147354882Y-95547693D01*
X147235748Y-96146620D01*
X147354882Y-96745547D01*
X147694147Y-97253293D01*
X147938583Y-97416620D01*
X147694147Y-97579947D01*
X147354882Y-98087693D01*
X147235748Y-98686620D01*
X147354882Y-99285547D01*
X147694147Y-99793293D01*
X147938583Y-99956620D01*
X147694147Y-100119947D01*
X147354882Y-100627693D01*
X147235748Y-101226620D01*
X147354882Y-101825547D01*
X147694147Y-102333293D01*
X147938583Y-102496620D01*
X147694147Y-102659947D01*
X147354882Y-103167693D01*
X147235748Y-103766620D01*
X147354882Y-104365547D01*
X147694147Y-104873293D01*
X147938583Y-105036620D01*
X147694147Y-105199947D01*
X147354882Y-105707693D01*
X147235748Y-106306620D01*
X147354882Y-106905547D01*
X147694147Y-107413293D01*
X148201893Y-107752558D01*
X148649638Y-107841620D01*
X148952002Y-107841620D01*
X149399747Y-107752558D01*
X149907493Y-107413293D01*
X150246758Y-106905547D01*
X150365892Y-106306620D01*
X150246758Y-105707693D01*
X149907493Y-105199947D01*
X149663057Y-105036620D01*
X149907493Y-104873293D01*
X150246758Y-104365547D01*
X150365892Y-103766620D01*
X150246758Y-103167693D01*
X149907493Y-102659947D01*
X149663057Y-102496620D01*
X149907493Y-102333293D01*
X150246758Y-101825547D01*
X150365892Y-101226620D01*
X150246758Y-100627693D01*
X149907493Y-100119947D01*
X149663057Y-99956620D01*
X149907493Y-99793293D01*
X150246758Y-99285547D01*
X150365892Y-98686620D01*
X150246758Y-98087693D01*
X149907493Y-97579947D01*
X149663057Y-97416620D01*
X149907493Y-97253293D01*
X150246758Y-96745547D01*
X150365892Y-96146620D01*
X150246758Y-95547693D01*
X149907493Y-95039947D01*
X149663057Y-94876620D01*
X149907493Y-94713293D01*
X150246758Y-94205547D01*
X150365892Y-93606620D01*
X150246758Y-93007693D01*
X149950124Y-92563749D01*
X150158629Y-92424429D01*
X150298977Y-92214385D01*
X150348260Y-91966620D01*
X150348260Y-90166620D01*
X150298977Y-89918855D01*
X150158629Y-89708811D01*
X149948585Y-89568463D01*
X149700820Y-89519180D01*
X147900820Y-89519180D01*
X147653055Y-89568463D01*
X147443011Y-89708811D01*
X147302663Y-89918855D01*
X147253380Y-90166620D01*
X147253380Y-90984378D01*
X145056241Y-88787240D01*
X145013839Y-88723781D01*
X144762447Y-88555806D01*
X144540762Y-88511710D01*
X144540757Y-88511710D01*
X144465910Y-88496822D01*
X144391063Y-88511710D01*
X144327991Y-88511710D01*
X143301400Y-87485120D01*
X143902910Y-87485120D01*
X144136299Y-87388447D01*
X144314927Y-87209818D01*
X144411600Y-86976429D01*
X144411600Y-86335870D01*
X144252850Y-86177120D01*
X143103600Y-86177120D01*
X143103600Y-86197120D01*
X142849600Y-86197120D01*
X142849600Y-86177120D01*
X142829600Y-86177120D01*
X142829600Y-85923120D01*
X142849600Y-85923120D01*
X142849600Y-85903120D01*
X143103600Y-85903120D01*
X143103600Y-85923120D01*
X144252850Y-85923120D01*
X144411600Y-85764370D01*
X144411600Y-85435121D01*
X146428318Y-85435121D01*
X147421830Y-86428634D01*
X147464230Y-86492090D01*
X147527686Y-86534490D01*
X147715621Y-86660065D01*
X147763764Y-86669641D01*
X147937307Y-86704161D01*
X147937311Y-86704161D01*
X148012159Y-86719049D01*
X148087007Y-86704161D01*
X149113314Y-86704161D01*
X149188161Y-86719049D01*
X149263008Y-86704161D01*
X149263013Y-86704161D01*
X149484698Y-86660065D01*
X149736090Y-86492090D01*
X149778492Y-86428631D01*
X150309634Y-85897490D01*
X150373090Y-85855090D01*
X150541065Y-85603698D01*
X150585161Y-85382013D01*
X150585161Y-85382009D01*
X150600049Y-85307162D01*
X150585161Y-85232315D01*
X150585161Y-73319007D01*
X150600049Y-73244160D01*
X150585161Y-73169313D01*
X150585161Y-73169309D01*
X150541065Y-72947624D01*
X150373090Y-72696232D01*
X150309631Y-72653830D01*
X150090490Y-72434689D01*
X150090488Y-72434686D01*
X150083891Y-72428089D01*
X150165232Y-72019160D01*
X150046098Y-71420233D01*
X149749464Y-70976289D01*
X149957969Y-70836969D01*
X150098317Y-70626925D01*
X150147600Y-70379160D01*
X150147600Y-68579160D01*
X150098317Y-68331395D01*
X149957969Y-68121351D01*
X149747925Y-67981003D01*
X149500160Y-67931720D01*
X148861126Y-67931720D01*
X148710578Y-67831127D01*
X148325548Y-67754540D01*
X148325546Y-67754540D01*
X148195540Y-67728680D01*
X148065534Y-67754540D01*
X140791166Y-67754540D01*
X140661159Y-67728680D01*
X140531152Y-67754540D01*
X140146122Y-67831127D01*
X140146121Y-67831128D01*
X140146120Y-67831128D01*
X139995574Y-67931720D01*
X139709493Y-68122873D01*
X139635849Y-68233089D01*
X136280252Y-71588687D01*
X136136031Y-71560000D01*
X135213969Y-71560000D01*
X134737055Y-71654864D01*
X134319897Y-71933600D01*
X134058862Y-71933600D01*
X133482474Y-71357212D01*
X133918640Y-71176547D01*
X134308247Y-70786940D01*
X134519100Y-70277894D01*
X134519100Y-69726906D01*
X134308247Y-69217860D01*
X133918640Y-68828253D01*
X133409594Y-68617400D01*
X132858606Y-68617400D01*
X132349560Y-68828253D01*
X131959953Y-69217860D01*
X131779288Y-69654026D01*
X124529812Y-62404551D01*
X124456166Y-62294332D01*
X124207832Y-62128400D01*
X136247069Y-62128400D01*
X136373964Y-62766345D01*
X136735331Y-63307169D01*
X137276155Y-63668536D01*
X137753069Y-63763400D01*
X138675131Y-63763400D01*
X139152045Y-63668536D01*
X139692869Y-63307169D01*
X140054236Y-62766345D01*
X140181131Y-62128400D01*
X140054236Y-61490455D01*
X139823611Y-61145300D01*
X139971909Y-61046209D01*
X140112257Y-60836165D01*
X140161540Y-60588400D01*
X140161540Y-58588400D01*
X140112257Y-58340635D01*
X139971909Y-58130591D01*
X139761865Y-57990243D01*
X139514100Y-57940960D01*
X136914100Y-57940960D01*
X136666335Y-57990243D01*
X136456291Y-58130591D01*
X136315943Y-58340635D01*
X136266660Y-58588400D01*
X136266660Y-60588400D01*
X136315943Y-60836165D01*
X136456291Y-61046209D01*
X136604589Y-61145300D01*
X136373964Y-61490455D01*
X136247069Y-62128400D01*
X124207832Y-62128400D01*
X124019537Y-62002586D01*
X123634507Y-61925999D01*
X123634505Y-61925999D01*
X123504499Y-61900139D01*
X123374493Y-61925999D01*
X121233262Y-61925999D01*
X129807822Y-53351440D01*
X132454920Y-53351440D01*
X132702685Y-53302157D01*
X132912729Y-53161809D01*
X133053077Y-52951765D01*
X133102360Y-52704000D01*
X133102360Y-52374000D01*
X133694914Y-52374000D01*
X133824920Y-52399860D01*
X133954926Y-52374000D01*
X133954928Y-52374000D01*
X134339958Y-52297413D01*
X134776587Y-52005667D01*
X134850233Y-51895448D01*
X136139920Y-50605762D01*
X136139920Y-51508515D01*
X136487790Y-52348349D01*
X137130571Y-52991130D01*
X137970405Y-53339000D01*
X138879435Y-53339000D01*
X139719269Y-52991130D01*
X140362050Y-52348349D01*
X140709920Y-51508515D01*
X140709920Y-50599485D01*
X140394917Y-49838999D01*
X144074923Y-49838999D01*
X143759920Y-50599485D01*
X143759920Y-50599485D01*
G37*
X143759920Y-50599485D02*
X143759920Y-51508515D01*
X144107790Y-52348349D01*
X144750571Y-52991130D01*
X145590405Y-53339000D01*
X146499435Y-53339000D01*
X147339269Y-52991130D01*
X147982050Y-52348349D01*
X148329920Y-51508515D01*
X148329920Y-50599485D01*
X148014917Y-49838999D01*
X151694923Y-49838999D01*
X151379920Y-50599485D01*
X151379920Y-51508515D01*
X151727790Y-52348349D01*
X152370571Y-52991130D01*
X152732706Y-53141131D01*
X152890000Y-53298425D01*
X152890001Y-62770327D01*
X152540000Y-63615303D01*
X152540000Y-64603897D01*
X152918319Y-65517239D01*
X153617361Y-66216281D01*
X154530703Y-66594600D01*
X155519297Y-66594600D01*
X156432639Y-66216281D01*
X157131681Y-65517239D01*
X157510000Y-64603897D01*
X157510000Y-63615303D01*
X157160000Y-62770329D01*
X157160000Y-57568426D01*
X158241881Y-58650307D01*
X158241880Y-62378400D01*
X157918319Y-62701961D01*
X157540000Y-63615303D01*
X157540000Y-64603897D01*
X157918319Y-65517239D01*
X158617361Y-66216281D01*
X159530703Y-66594600D01*
X160519297Y-66594600D01*
X161432639Y-66216281D01*
X162131681Y-65517239D01*
X162339816Y-65014758D01*
X162388006Y-64942636D01*
X162404928Y-64857563D01*
X162510000Y-64603897D01*
X162510000Y-64329330D01*
X162511880Y-64319879D01*
X162511880Y-58015920D01*
X163310101Y-58814141D01*
X163310100Y-61060049D01*
X163308691Y-61060991D01*
X163168343Y-61271035D01*
X163119060Y-61518800D01*
X163119060Y-63246000D01*
X163168343Y-63493765D01*
X163308691Y-63703809D01*
X163518735Y-63844157D01*
X163544751Y-63849332D01*
X163218450Y-64337675D01*
X163102141Y-64922400D01*
X163187395Y-65351001D01*
X162930163Y-65351001D01*
X162855316Y-65336113D01*
X162780469Y-65351001D01*
X162780465Y-65351001D01*
X162558780Y-65395097D01*
X162307388Y-65563072D01*
X162264988Y-65626528D01*
X159590687Y-68300830D01*
X159527231Y-68343230D01*
X159484831Y-68406686D01*
X159484830Y-68406687D01*
X159359256Y-68594622D01*
X159300271Y-68891159D01*
X159315160Y-68966011D01*
X159315159Y-72532314D01*
X159300271Y-72607161D01*
X159315159Y-72682008D01*
X159315159Y-72682012D01*
X159359255Y-72903697D01*
X159527230Y-73155090D01*
X159590689Y-73197492D01*
X160054176Y-73660980D01*
X159854222Y-73960233D01*
X159735088Y-74559160D01*
X159854222Y-75158087D01*
X160193487Y-75665833D01*
X160437923Y-75829160D01*
X160193487Y-75992487D01*
X159854222Y-76500233D01*
X159735088Y-77099160D01*
X159854222Y-77698087D01*
X160193487Y-78205833D01*
X160437923Y-78369160D01*
X160193487Y-78532487D01*
X159854222Y-79040233D01*
X159735088Y-79639160D01*
X159854222Y-80238087D01*
X160193487Y-80745833D01*
X160437923Y-80909160D01*
X160193487Y-81072487D01*
X159854222Y-81580233D01*
X159735088Y-82179160D01*
X159854222Y-82778087D01*
X160193487Y-83285833D01*
X160437923Y-83449160D01*
X160193487Y-83612487D01*
X159854222Y-84120233D01*
X159735088Y-84719160D01*
X159816429Y-85128089D01*
X159140678Y-85803841D01*
X159077222Y-85846241D01*
X159034822Y-85909697D01*
X159034821Y-85909698D01*
X158909247Y-86097633D01*
X158850262Y-86394170D01*
X158865151Y-86469022D01*
X158865150Y-104356103D01*
X158850262Y-104430950D01*
X158865150Y-104505797D01*
X158865150Y-104505801D01*
X158909246Y-104727486D01*
X159077221Y-104978879D01*
X159140680Y-105021281D01*
X160017089Y-105897691D01*
X159935748Y-106306620D01*
X160054882Y-106905547D01*
X160394147Y-107413293D01*
X160638583Y-107576620D01*
X160394147Y-107739947D01*
X160054882Y-108247693D01*
X159935748Y-108846620D01*
X160054882Y-109445547D01*
X160394147Y-109953293D01*
X160901893Y-110292558D01*
X161349638Y-110381620D01*
X161652002Y-110381620D01*
X162099747Y-110292558D01*
X162607493Y-109953293D01*
X162946758Y-109445547D01*
X163065892Y-108846620D01*
X162984551Y-108437691D01*
X163138260Y-108283982D01*
X163218450Y-108687125D01*
X163549670Y-109182830D01*
X163833381Y-109372400D01*
X163549670Y-109561970D01*
X163218450Y-110057675D01*
X163102141Y-110642400D01*
X163218450Y-111227125D01*
X163549670Y-111722830D01*
X163833381Y-111912400D01*
X163549670Y-112101970D01*
X163218450Y-112597675D01*
X163102141Y-113182400D01*
X163218450Y-113767125D01*
X163549670Y-114262830D01*
X163833381Y-114452400D01*
X163549670Y-114641970D01*
X163218450Y-115137675D01*
X163102141Y-115722400D01*
X163218450Y-116307125D01*
X163549670Y-116802830D01*
X163833381Y-116992400D01*
X163549670Y-117181970D01*
X163218450Y-117677675D01*
X163102141Y-118262400D01*
X163218450Y-118847125D01*
X163549670Y-119342830D01*
X164045375Y-119674050D01*
X164482502Y-119761000D01*
X164777698Y-119761000D01*
X165214825Y-119674050D01*
X165710530Y-119342830D01*
X165900100Y-119059119D01*
X166089670Y-119342830D01*
X166585375Y-119674050D01*
X166613901Y-119679724D01*
X159292886Y-127000741D01*
X158348605Y-127000741D01*
X158859966Y-126489380D01*
X159185000Y-125704678D01*
X159185000Y-124855322D01*
X158859966Y-124070620D01*
X158259380Y-123470034D01*
X157474678Y-123145000D01*
X156781761Y-123145000D01*
X156080313Y-122443552D01*
X156006667Y-122333333D01*
X155570038Y-122041587D01*
X155185008Y-121965000D01*
X155185006Y-121965000D01*
X155055000Y-121939140D01*
X154924994Y-121965000D01*
X153436762Y-121965000D01*
X153561460Y-121840302D01*
X153671676Y-121766658D01*
X153850542Y-121498966D01*
X153963421Y-121330031D01*
X153963421Y-121330030D01*
X153963422Y-121330029D01*
X154040009Y-120944999D01*
X154065869Y-120814992D01*
X154040009Y-120684985D01*
X154040009Y-117511252D01*
X155608700Y-115942562D01*
X155831027Y-115898338D01*
X156338773Y-115559073D01*
X156678038Y-115051327D01*
X156797172Y-114452400D01*
X156678038Y-113853473D01*
X156338773Y-113345727D01*
X155831027Y-113006462D01*
X155383282Y-112917400D01*
X155080918Y-112917400D01*
X154633173Y-113006462D01*
X154125427Y-113345727D01*
X153786162Y-113853473D01*
X153741938Y-114075800D01*
X151878558Y-115939181D01*
X151768342Y-116012825D01*
X151476596Y-116449454D01*
X151403661Y-116816125D01*
X151374149Y-116964491D01*
X151400009Y-117094498D01*
X151400010Y-119703185D01*
X151356673Y-119638327D01*
X150848927Y-119299062D01*
X150401182Y-119210000D01*
X150098818Y-119210000D01*
X149651073Y-119299062D01*
X149143327Y-119638327D01*
X148804062Y-120146073D01*
X148684928Y-120745000D01*
X148804062Y-121343927D01*
X149143327Y-121851673D01*
X149362956Y-121998424D01*
X149304322Y-122010087D01*
X148867693Y-122301833D01*
X148575947Y-122738462D01*
X148473500Y-123253500D01*
X148575947Y-123768538D01*
X148867693Y-124205167D01*
X149076015Y-124344363D01*
X148892191Y-124467191D01*
X148751843Y-124677235D01*
X148702560Y-124925000D01*
X148702560Y-126725000D01*
X148751843Y-126972765D01*
X148892191Y-127182809D01*
X149102235Y-127323157D01*
X149350000Y-127372440D01*
X149601518Y-127372440D01*
X149702071Y-127522929D01*
X149765530Y-127565331D01*
X150445412Y-128245214D01*
X150487812Y-128308670D01*
X150656120Y-128421130D01*
X146356754Y-128421130D01*
X146663913Y-128215893D01*
X147003178Y-127708147D01*
X147122312Y-127109220D01*
X147040971Y-126700290D01*
X148166734Y-125574527D01*
X148230190Y-125532127D01*
X148398165Y-125280735D01*
X148442261Y-125059050D01*
X148442261Y-125059045D01*
X148457149Y-124984198D01*
X148442261Y-124909351D01*
X148442261Y-112182107D01*
X148457149Y-112107260D01*
X148442261Y-112032413D01*
X148442261Y-112032409D01*
X148398165Y-111810724D01*
X148230190Y-111559332D01*
X148166734Y-111516932D01*
X146832855Y-110183054D01*
X147003178Y-109928147D01*
X147122312Y-109329220D01*
X147003178Y-108730293D01*
X146663913Y-108222547D01*
X146156167Y-107883282D01*
X145708422Y-107794220D01*
X145406058Y-107794220D01*
X144958313Y-107883282D01*
X144450567Y-108222547D01*
X144111302Y-108730293D01*
X143992168Y-109329220D01*
X144084662Y-109794221D01*
X141455433Y-109794221D01*
X137071962Y-105410750D01*
X141515000Y-105410750D01*
X141515000Y-106051309D01*
X141611673Y-106284698D01*
X141790301Y-106463327D01*
X142023690Y-106560000D01*
X142664250Y-106560000D01*
X142823000Y-106401250D01*
X142823000Y-105252000D01*
X143077000Y-105252000D01*
X143077000Y-106401250D01*
X143235750Y-106560000D01*
X143876310Y-106560000D01*
X144109699Y-106463327D01*
X144288327Y-106284698D01*
X144385000Y-106051309D01*
X144385000Y-105410750D01*
X144226250Y-105252000D01*
X143077000Y-105252000D01*
X142823000Y-105252000D01*
X141673750Y-105252000D01*
X141515000Y-105410750D01*
X137071962Y-105410750D01*
X136291699Y-104630488D01*
X136291699Y-98964830D01*
X140793319Y-103466451D01*
X140866963Y-103576667D01*
X141303592Y-103868413D01*
X141641373Y-103935602D01*
X141611673Y-103965302D01*
X141515000Y-104198691D01*
X141515000Y-104839250D01*
X141673750Y-104998000D01*
X142823000Y-104998000D01*
X142823000Y-104978000D01*
X143077000Y-104978000D01*
X143077000Y-104998000D01*
X144226250Y-104998000D01*
X144385000Y-104839250D01*
X144385000Y-104198691D01*
X144288327Y-103965302D01*
X144109699Y-103786673D01*
X143903241Y-103701155D01*
X144166534Y-103437862D01*
X144385000Y-102910439D01*
X144385000Y-102339561D01*
X144166534Y-101812138D01*
X143762862Y-101408466D01*
X143235439Y-101190000D01*
X142664561Y-101190000D01*
X142386927Y-101305000D01*
X142365392Y-101305000D01*
X137861707Y-96801316D01*
X137861707Y-91952013D01*
X137887567Y-91822006D01*
X137816048Y-91462455D01*
X137785120Y-91306969D01*
X137493374Y-90870340D01*
X137383158Y-90796696D01*
X129445871Y-82859410D01*
X140419129Y-82859410D01*
X141645066Y-84085348D01*
X141652919Y-84104306D01*
X141618668Y-84127192D01*
X141576267Y-84190649D01*
X141367126Y-84399790D01*
X141303671Y-84442190D01*
X141261271Y-84505646D01*
X141261270Y-84505647D01*
X141135696Y-84693582D01*
X141076711Y-84990119D01*
X141091600Y-85064971D01*
X141091599Y-87035274D01*
X141076711Y-87110121D01*
X141091599Y-87184968D01*
X141091599Y-87184972D01*
X141135695Y-87406657D01*
X141303670Y-87658050D01*
X141367129Y-87700452D01*
X142628396Y-88961720D01*
X142525729Y-88961720D01*
X142048815Y-89056584D01*
X141507991Y-89417951D01*
X141146624Y-89958775D01*
X141019729Y-90596720D01*
X141146624Y-91234665D01*
X141507991Y-91775489D01*
X141644528Y-91866720D01*
X141507991Y-91957951D01*
X141146624Y-92498775D01*
X141019729Y-93136720D01*
X141146624Y-93774665D01*
X141507991Y-94315489D01*
X141644528Y-94406720D01*
X141507991Y-94497951D01*
X141146624Y-95038775D01*
X141019729Y-95676720D01*
X141146624Y-96314665D01*
X141377249Y-96659820D01*
X141228951Y-96758911D01*
X141088603Y-96968955D01*
X141039320Y-97216720D01*
X141039320Y-99216720D01*
X141088603Y-99464485D01*
X141228951Y-99674529D01*
X141438995Y-99814877D01*
X141686760Y-99864160D01*
X144286760Y-99864160D01*
X144534525Y-99814877D01*
X144744569Y-99674529D01*
X144884917Y-99464485D01*
X144934200Y-99216720D01*
X144934200Y-97216720D01*
X144884917Y-96968955D01*
X144744569Y-96758911D01*
X144596271Y-96659820D01*
X144826896Y-96314665D01*
X144953791Y-95676720D01*
X144826896Y-95038775D01*
X144465529Y-94497951D01*
X144328992Y-94406720D01*
X144465529Y-94315489D01*
X144826896Y-93774665D01*
X144953791Y-93136720D01*
X144826896Y-92498775D01*
X144465529Y-91957951D01*
X144328992Y-91866720D01*
X144465529Y-91775489D01*
X144826896Y-91234665D01*
X144914359Y-90794960D01*
X147317089Y-93197691D01*
X147235748Y-93606620D01*
X147354882Y-94205547D01*
X147694147Y-94713293D01*
X147938583Y-94876620D01*
X147694147Y-95039947D01*
X147354882Y-95547693D01*
X147235748Y-96146620D01*
X147354882Y-96745547D01*
X147694147Y-97253293D01*
X147938583Y-97416620D01*
X147694147Y-97579947D01*
X147354882Y-98087693D01*
X147235748Y-98686620D01*
X147354882Y-99285547D01*
X147694147Y-99793293D01*
X147938583Y-99956620D01*
X147694147Y-100119947D01*
X147354882Y-100627693D01*
X147235748Y-101226620D01*
X147354882Y-101825547D01*
X147694147Y-102333293D01*
X147938583Y-102496620D01*
X147694147Y-102659947D01*
X147354882Y-103167693D01*
X147235748Y-103766620D01*
X147354882Y-104365547D01*
X147694147Y-104873293D01*
X147938583Y-105036620D01*
X147694147Y-105199947D01*
X147354882Y-105707693D01*
X147235748Y-106306620D01*
X147354882Y-106905547D01*
X147694147Y-107413293D01*
X148201893Y-107752558D01*
X148649638Y-107841620D01*
X148952002Y-107841620D01*
X149399747Y-107752558D01*
X149907493Y-107413293D01*
X150246758Y-106905547D01*
X150365892Y-106306620D01*
X150246758Y-105707693D01*
X149907493Y-105199947D01*
X149663057Y-105036620D01*
X149907493Y-104873293D01*
X150246758Y-104365547D01*
X150365892Y-103766620D01*
X150246758Y-103167693D01*
X149907493Y-102659947D01*
X149663057Y-102496620D01*
X149907493Y-102333293D01*
X150246758Y-101825547D01*
X150365892Y-101226620D01*
X150246758Y-100627693D01*
X149907493Y-100119947D01*
X149663057Y-99956620D01*
X149907493Y-99793293D01*
X150246758Y-99285547D01*
X150365892Y-98686620D01*
X150246758Y-98087693D01*
X149907493Y-97579947D01*
X149663057Y-97416620D01*
X149907493Y-97253293D01*
X150246758Y-96745547D01*
X150365892Y-96146620D01*
X150246758Y-95547693D01*
X149907493Y-95039947D01*
X149663057Y-94876620D01*
X149907493Y-94713293D01*
X150246758Y-94205547D01*
X150365892Y-93606620D01*
X150246758Y-93007693D01*
X149950124Y-92563749D01*
X150158629Y-92424429D01*
X150298977Y-92214385D01*
X150348260Y-91966620D01*
X150348260Y-90166620D01*
X150298977Y-89918855D01*
X150158629Y-89708811D01*
X149948585Y-89568463D01*
X149700820Y-89519180D01*
X147900820Y-89519180D01*
X147653055Y-89568463D01*
X147443011Y-89708811D01*
X147302663Y-89918855D01*
X147253380Y-90166620D01*
X147253380Y-90984378D01*
X145056241Y-88787240D01*
X145013839Y-88723781D01*
X144762447Y-88555806D01*
X144540762Y-88511710D01*
X144540757Y-88511710D01*
X144465910Y-88496822D01*
X144391063Y-88511710D01*
X144327991Y-88511710D01*
X143301400Y-87485120D01*
X143902910Y-87485120D01*
X144136299Y-87388447D01*
X144314927Y-87209818D01*
X144411600Y-86976429D01*
X144411600Y-86335870D01*
X144252850Y-86177120D01*
X143103600Y-86177120D01*
X143103600Y-86197120D01*
X142849600Y-86197120D01*
X142849600Y-86177120D01*
X142829600Y-86177120D01*
X142829600Y-85923120D01*
X142849600Y-85923120D01*
X142849600Y-85903120D01*
X143103600Y-85903120D01*
X143103600Y-85923120D01*
X144252850Y-85923120D01*
X144411600Y-85764370D01*
X144411600Y-85435121D01*
X146428318Y-85435121D01*
X147421830Y-86428634D01*
X147464230Y-86492090D01*
X147527686Y-86534490D01*
X147715621Y-86660065D01*
X147763764Y-86669641D01*
X147937307Y-86704161D01*
X147937311Y-86704161D01*
X148012159Y-86719049D01*
X148087007Y-86704161D01*
X149113314Y-86704161D01*
X149188161Y-86719049D01*
X149263008Y-86704161D01*
X149263013Y-86704161D01*
X149484698Y-86660065D01*
X149736090Y-86492090D01*
X149778492Y-86428631D01*
X150309634Y-85897490D01*
X150373090Y-85855090D01*
X150541065Y-85603698D01*
X150585161Y-85382013D01*
X150585161Y-85382009D01*
X150600049Y-85307162D01*
X150585161Y-85232315D01*
X150585161Y-73319007D01*
X150600049Y-73244160D01*
X150585161Y-73169313D01*
X150585161Y-73169309D01*
X150541065Y-72947624D01*
X150373090Y-72696232D01*
X150309631Y-72653830D01*
X150090490Y-72434689D01*
X150090488Y-72434686D01*
X150083891Y-72428089D01*
X150165232Y-72019160D01*
X150046098Y-71420233D01*
X149749464Y-70976289D01*
X149957969Y-70836969D01*
X150098317Y-70626925D01*
X150147600Y-70379160D01*
X150147600Y-68579160D01*
X150098317Y-68331395D01*
X149957969Y-68121351D01*
X149747925Y-67981003D01*
X149500160Y-67931720D01*
X148861126Y-67931720D01*
X148710578Y-67831127D01*
X148325548Y-67754540D01*
X148325546Y-67754540D01*
X148195540Y-67728680D01*
X148065534Y-67754540D01*
X140791166Y-67754540D01*
X140661159Y-67728680D01*
X140531152Y-67754540D01*
X140146122Y-67831127D01*
X140146121Y-67831128D01*
X140146120Y-67831128D01*
X139995574Y-67931720D01*
X139709493Y-68122873D01*
X139635849Y-68233089D01*
X136280252Y-71588687D01*
X136136031Y-71560000D01*
X135213969Y-71560000D01*
X134737055Y-71654864D01*
X134319897Y-71933600D01*
X134058862Y-71933600D01*
X133482474Y-71357212D01*
X133918640Y-71176547D01*
X134308247Y-70786940D01*
X134519100Y-70277894D01*
X134519100Y-69726906D01*
X134308247Y-69217860D01*
X133918640Y-68828253D01*
X133409594Y-68617400D01*
X132858606Y-68617400D01*
X132349560Y-68828253D01*
X131959953Y-69217860D01*
X131779288Y-69654026D01*
X124529812Y-62404551D01*
X124456166Y-62294332D01*
X124207832Y-62128400D01*
X136247069Y-62128400D01*
X136373964Y-62766345D01*
X136735331Y-63307169D01*
X137276155Y-63668536D01*
X137753069Y-63763400D01*
X138675131Y-63763400D01*
X139152045Y-63668536D01*
X139692869Y-63307169D01*
X140054236Y-62766345D01*
X140181131Y-62128400D01*
X140054236Y-61490455D01*
X139823611Y-61145300D01*
X139971909Y-61046209D01*
X140112257Y-60836165D01*
X140161540Y-60588400D01*
X140161540Y-58588400D01*
X140112257Y-58340635D01*
X139971909Y-58130591D01*
X139761865Y-57990243D01*
X139514100Y-57940960D01*
X136914100Y-57940960D01*
X136666335Y-57990243D01*
X136456291Y-58130591D01*
X136315943Y-58340635D01*
X136266660Y-58588400D01*
X136266660Y-60588400D01*
X136315943Y-60836165D01*
X136456291Y-61046209D01*
X136604589Y-61145300D01*
X136373964Y-61490455D01*
X136247069Y-62128400D01*
X124207832Y-62128400D01*
X124019537Y-62002586D01*
X123634507Y-61925999D01*
X123634505Y-61925999D01*
X123504499Y-61900139D01*
X123374493Y-61925999D01*
X121233262Y-61925999D01*
X129807822Y-53351440D01*
X132454920Y-53351440D01*
X132702685Y-53302157D01*
X132912729Y-53161809D01*
X133053077Y-52951765D01*
X133102360Y-52704000D01*
X133102360Y-52374000D01*
X133694914Y-52374000D01*
X133824920Y-52399860D01*
X133954926Y-52374000D01*
X133954928Y-52374000D01*
X134339958Y-52297413D01*
X134776587Y-52005667D01*
X134850233Y-51895448D01*
X136139920Y-50605762D01*
X136139920Y-51508515D01*
X136487790Y-52348349D01*
X137130571Y-52991130D01*
X137970405Y-53339000D01*
X138879435Y-53339000D01*
X139719269Y-52991130D01*
X140362050Y-52348349D01*
X140709920Y-51508515D01*
X140709920Y-50599485D01*
X140394917Y-49838999D01*
X144074923Y-49838999D01*
X143759920Y-50599485D01*
G36*
X122582991Y-97610093D02*
X122582990Y-98218942D01*
X122568102Y-98293790D01*
X122582990Y-98368637D01*
X122582990Y-98368641D01*
X122627086Y-98590326D01*
X122795061Y-98841719D01*
X122858520Y-98884121D01*
X123099226Y-99124827D01*
X123000969Y-99618800D01*
X123127864Y-100256745D01*
X123489231Y-100797569D01*
X123625768Y-100888800D01*
X123489231Y-100980031D01*
X123127864Y-101520855D01*
X123000969Y-102158800D01*
X123127864Y-102796745D01*
X123489231Y-103337569D01*
X123625768Y-103428800D01*
X123489231Y-103520031D01*
X123127864Y-104060855D01*
X123000969Y-104698800D01*
X123127864Y-105336745D01*
X123489231Y-105877569D01*
X124030055Y-106238936D01*
X124506969Y-106333800D01*
X125429031Y-106333800D01*
X125905945Y-106238936D01*
X126235402Y-106018800D01*
X127680059Y-106018800D01*
X131309800Y-109648542D01*
X131309800Y-109794221D01*
X129042723Y-109794221D01*
X127327832Y-108079331D01*
X127285430Y-108015872D01*
X127034038Y-107847897D01*
X126812353Y-107803801D01*
X126812348Y-107803801D01*
X126737501Y-107788913D01*
X126662654Y-107803801D01*
X123722801Y-107803801D01*
X120858701Y-104939702D01*
X120858701Y-102526718D01*
X120873589Y-102451871D01*
X120858701Y-102377024D01*
X120858701Y-102377019D01*
X120814605Y-102155334D01*
X120646630Y-101903942D01*
X120583174Y-101861542D01*
X120108262Y-101386631D01*
X120321750Y-101067125D01*
X120438059Y-100482400D01*
X120321750Y-99897675D01*
X119990530Y-99401970D01*
X119706819Y-99212400D01*
X119990530Y-99022830D01*
X120321750Y-98527125D01*
X120438059Y-97942400D01*
X120321750Y-97357675D01*
X119990530Y-96861970D01*
X119706819Y-96672400D01*
X119990530Y-96482830D01*
X120321750Y-95987125D01*
X120427646Y-95454748D01*
X122582991Y-97610093D01*
X122582991Y-97610093D01*
G37*
X122582991Y-97610093D02*
X122582990Y-98218942D01*
X122568102Y-98293790D01*
X122582990Y-98368637D01*
X122582990Y-98368641D01*
X122627086Y-98590326D01*
X122795061Y-98841719D01*
X122858520Y-98884121D01*
X123099226Y-99124827D01*
X123000969Y-99618800D01*
X123127864Y-100256745D01*
X123489231Y-100797569D01*
X123625768Y-100888800D01*
X123489231Y-100980031D01*
X123127864Y-101520855D01*
X123000969Y-102158800D01*
X123127864Y-102796745D01*
X123489231Y-103337569D01*
X123625768Y-103428800D01*
X123489231Y-103520031D01*
X123127864Y-104060855D01*
X123000969Y-104698800D01*
X123127864Y-105336745D01*
X123489231Y-105877569D01*
X124030055Y-106238936D01*
X124506969Y-106333800D01*
X125429031Y-106333800D01*
X125905945Y-106238936D01*
X126235402Y-106018800D01*
X127680059Y-106018800D01*
X131309800Y-109648542D01*
X131309800Y-109794221D01*
X129042723Y-109794221D01*
X127327832Y-108079331D01*
X127285430Y-108015872D01*
X127034038Y-107847897D01*
X126812353Y-107803801D01*
X126812348Y-107803801D01*
X126737501Y-107788913D01*
X126662654Y-107803801D01*
X123722801Y-107803801D01*
X120858701Y-104939702D01*
X120858701Y-102526718D01*
X120873589Y-102451871D01*
X120858701Y-102377024D01*
X120858701Y-102377019D01*
X120814605Y-102155334D01*
X120646630Y-101903942D01*
X120583174Y-101861542D01*
X120108262Y-101386631D01*
X120321750Y-101067125D01*
X120438059Y-100482400D01*
X120321750Y-99897675D01*
X119990530Y-99401970D01*
X119706819Y-99212400D01*
X119990530Y-99022830D01*
X120321750Y-98527125D01*
X120438059Y-97942400D01*
X120321750Y-97357675D01*
X119990530Y-96861970D01*
X119706819Y-96672400D01*
X119990530Y-96482830D01*
X120321750Y-95987125D01*
X120427646Y-95454748D01*
X122582991Y-97610093D01*
G36*
X165728474Y-48947276D02*
X165577000Y-49098750D01*
X165577000Y-50448000D01*
X165597000Y-50448000D01*
X165597000Y-50702000D01*
X165577000Y-50702000D01*
X165577000Y-50722000D01*
X165323000Y-50722000D01*
X165323000Y-50702000D01*
X163673750Y-50702000D01*
X163515000Y-50860750D01*
X163515000Y-51701309D01*
X163611673Y-51934698D01*
X163790301Y-52113327D01*
X163839330Y-52133635D01*
X163609864Y-52477055D01*
X163482969Y-53115000D01*
X163609864Y-53752945D01*
X163971231Y-54293769D01*
X164512055Y-54655136D01*
X164988969Y-54750000D01*
X165911031Y-54750000D01*
X166387945Y-54655136D01*
X166928769Y-54293769D01*
X167290136Y-53752945D01*
X167417031Y-53115000D01*
X167290136Y-52477055D01*
X167060670Y-52133635D01*
X167109699Y-52113327D01*
X167288327Y-51934698D01*
X167385000Y-51701309D01*
X167385000Y-50860750D01*
X167226252Y-50702002D01*
X167385000Y-50702002D01*
X167385000Y-50603802D01*
X167598702Y-50817504D01*
X167598701Y-59369217D01*
X165655410Y-57425926D01*
X165581767Y-57315711D01*
X165471551Y-57242067D01*
X161580924Y-53351440D01*
X157678175Y-49448691D01*
X163515000Y-49448691D01*
X163515000Y-50289250D01*
X163673750Y-50448000D01*
X165323000Y-50448000D01*
X165323000Y-49098750D01*
X165164250Y-48940000D01*
X164023690Y-48940000D01*
X163790301Y-49036673D01*
X163611673Y-49215302D01*
X163515000Y-49448691D01*
X157678175Y-49448691D01*
X155907034Y-47677551D01*
X155833388Y-47567332D01*
X155396759Y-47275586D01*
X155011729Y-47198999D01*
X155011727Y-47198999D01*
X154881721Y-47173139D01*
X154751715Y-47198999D01*
X136489928Y-47198999D01*
X136359921Y-47173139D01*
X136229914Y-47198999D01*
X136229913Y-47198999D01*
X135844883Y-47275586D01*
X135408254Y-47567332D01*
X135334610Y-47677548D01*
X133278159Y-49734000D01*
X133102360Y-49734000D01*
X133102360Y-49404000D01*
X133053077Y-49156235D01*
X132912729Y-48946191D01*
X132702685Y-48805843D01*
X132454920Y-48756560D01*
X129154920Y-48756560D01*
X128907155Y-48805843D01*
X128737805Y-48919000D01*
X126365195Y-48919000D01*
X126154920Y-48877174D01*
X125944645Y-48919000D01*
X125944641Y-48919000D01*
X125321884Y-49042874D01*
X124615671Y-49514751D01*
X124496558Y-49693016D01*
X115941499Y-58248076D01*
X115941499Y-49833302D01*
X120714802Y-45060000D01*
X161841199Y-45060000D01*
X165728474Y-48947276D01*
X165728474Y-48947276D01*
G37*
X165728474Y-48947276D02*
X165577000Y-49098750D01*
X165577000Y-50448000D01*
X165597000Y-50448000D01*
X165597000Y-50702000D01*
X165577000Y-50702000D01*
X165577000Y-50722000D01*
X165323000Y-50722000D01*
X165323000Y-50702000D01*
X163673750Y-50702000D01*
X163515000Y-50860750D01*
X163515000Y-51701309D01*
X163611673Y-51934698D01*
X163790301Y-52113327D01*
X163839330Y-52133635D01*
X163609864Y-52477055D01*
X163482969Y-53115000D01*
X163609864Y-53752945D01*
X163971231Y-54293769D01*
X164512055Y-54655136D01*
X164988969Y-54750000D01*
X165911031Y-54750000D01*
X166387945Y-54655136D01*
X166928769Y-54293769D01*
X167290136Y-53752945D01*
X167417031Y-53115000D01*
X167290136Y-52477055D01*
X167060670Y-52133635D01*
X167109699Y-52113327D01*
X167288327Y-51934698D01*
X167385000Y-51701309D01*
X167385000Y-50860750D01*
X167226252Y-50702002D01*
X167385000Y-50702002D01*
X167385000Y-50603802D01*
X167598702Y-50817504D01*
X167598701Y-59369217D01*
X165655410Y-57425926D01*
X165581767Y-57315711D01*
X165471551Y-57242067D01*
X161580924Y-53351440D01*
X157678175Y-49448691D01*
X163515000Y-49448691D01*
X163515000Y-50289250D01*
X163673750Y-50448000D01*
X165323000Y-50448000D01*
X165323000Y-49098750D01*
X165164250Y-48940000D01*
X164023690Y-48940000D01*
X163790301Y-49036673D01*
X163611673Y-49215302D01*
X163515000Y-49448691D01*
X157678175Y-49448691D01*
X155907034Y-47677551D01*
X155833388Y-47567332D01*
X155396759Y-47275586D01*
X155011729Y-47198999D01*
X155011727Y-47198999D01*
X154881721Y-47173139D01*
X154751715Y-47198999D01*
X136489928Y-47198999D01*
X136359921Y-47173139D01*
X136229914Y-47198999D01*
X136229913Y-47198999D01*
X135844883Y-47275586D01*
X135408254Y-47567332D01*
X135334610Y-47677548D01*
X133278159Y-49734000D01*
X133102360Y-49734000D01*
X133102360Y-49404000D01*
X133053077Y-49156235D01*
X132912729Y-48946191D01*
X132702685Y-48805843D01*
X132454920Y-48756560D01*
X129154920Y-48756560D01*
X128907155Y-48805843D01*
X128737805Y-48919000D01*
X126365195Y-48919000D01*
X126154920Y-48877174D01*
X125944645Y-48919000D01*
X125944641Y-48919000D01*
X125321884Y-49042874D01*
X124615671Y-49514751D01*
X124496558Y-49693016D01*
X115941499Y-58248076D01*
X115941499Y-49833302D01*
X120714802Y-45060000D01*
X161841199Y-45060000D01*
X165728474Y-48947276D01*
G04 #@! TD*
M02*
